<svg width="1024" height="1536" viewBox="0 0 1024 1536" fill="none" xmlns="http://www.w3.org/2000/svg">
<g clip-path="url(#clip0_35_1181)">
<path d="M1024 0H0V1536H1024V0Z" fill="#E1F7F4"/>
<path d="M448.7 112.4C448.5 112.2 447.7 111.6 446.3 110.8C444.7 109.8 443 109 441.3 108.2C439.2 107.3 437 106.5 434.8 105.9C432.5 105.3 430.1 105 427.7 105C424.6 105 422.2 105.6 420.4 106.7C418.7 107.8 417.8 109.4 417.8 111.5C417.8 113.2 418.4 114.6 419.8 115.6C421.1 116.7 423 117.6 425.4 118.4C427.8 119.2 430.9 120 434.4 121C439.5 122.4 443.9 124 447.6 125.9C451.3 127.8 454.2 130.2 456.1 133.1C458.1 136 459.1 139.9 459.1 144.7C459.1 149 458.3 152.8 456.7 155.9C455.1 159 452.9 161.5 450 163.4C447.1 165.3 443.9 166.6 440.4 167.5C436.8 168.4 433.1 168.8 429.4 168.8C425.4 168.8 421.4 168.4 417.5 167.6C413.5 166.8 409.6 165.7 405.8 164.2C402.2 162.8 398.8 161.1 395.5 159.1L403.4 143.3C403.8 143.7 404.8 144.4 406.4 145.4C408 146.3 410.1 147.4 412.5 148.4C415.1 149.5 417.8 150.5 420.6 151.3C423.5 152.1 426.5 152.6 429.5 152.6C432.9 152.6 435.3 152.1 436.9 151C438.5 149.9 439.3 148.5 439.3 146.6C439.3 144.7 438.5 143.2 436.8 142C435.1 140.9 432.9 139.8 430 138.9C427.1 138 423.8 137 420.1 136C415.3 134.5 411.2 132.8 408.1 131C405 129.2 402.6 127 401.1 124.3C399.6 121.6 398.8 118.4 398.8 114.5C398.8 108.9 400.1 104.3 402.8 100.5C405.4 96.7 409 93.9 413.5 91.9C418 90 422.8 89 428.1 89C431.7 89 435.4 89.4 438.9 90.3C442.2 91.1 445.5 92.2 448.6 93.6C451.6 94.9 454.3 96.3 456.5 97.7L448.7 112.4Z" fill="#0184EA"/>
<path d="M504.501 168.2C498.701 168.2 493.401 167.1 488.601 164.9C483.801 162.7 479.601 159.7 476.101 155.9C472.601 152.2 469.901 147.9 468.101 143.1C466.201 138.4 465.301 133.5 465.301 128.4C465.301 123.3 466.301 118.2 468.301 113.5C470.201 108.8 473.001 104.6 476.601 100.9C480.101 97.2 484.301 94.3 489.201 92.2C494.001 90 499.301 89 505.101 89C511.001 89 516.301 90.1 521.101 92.4C525.901 94.7 530.001 97.7 533.501 101.5C536.901 105.2 539.601 109.6 541.501 114.3C543.401 119 544.301 123.9 544.301 128.8C544.301 133.9 543.301 138.9 541.401 143.6C537.501 153.1 530.001 160.8 520.601 164.9C515.601 167.2 510.301 168.2 504.501 168.2ZM504.801 152.2C508.201 152.2 511.201 151.5 513.801 150.2C516.301 148.9 518.601 147.1 520.301 144.8C522.001 142.5 523.301 139.9 524.101 137.2C524.901 134.4 525.401 131.5 525.401 128.6C525.401 125.6 524.901 122.7 524.001 119.9C523.101 117.2 521.801 114.6 520.001 112.4C518.201 110.2 516.001 108.4 513.501 107.2C510.901 105.9 508.001 105.3 504.701 105.3C501.201 105.3 498.101 106 495.601 107.3C493.101 108.6 490.801 110.5 489.101 112.7C487.401 115 486.101 117.5 485.201 120.2C484.301 123 483.801 125.9 483.901 128.8C483.901 131.8 484.401 134.7 485.301 137.5C486.201 140.2 487.601 142.8 489.301 145C491.001 147.2 493.301 149 495.801 150.3C498.201 151.6 501.301 152.2 504.801 152.2ZM499.801 136.9H517.001L545.401 167.7H528.001L499.801 136.9Z" fill="#0184EA"/>
<path d="M588.8 168.4C582.5 168.4 577.1 167.4 572.6 165.3C568.1 163.2 564.5 160.3 561.7 156.7C558.9 153 556.9 148.9 555.6 144.2C554.3 139.5 553.6 134.6 553.6 129.6V89.7002H571.9V129.6C571.9 132.5 572.2 135.4 572.8 138.2C573.4 140.9 574.3 143.3 575.6 145.4C576.9 147.5 578.7 149.2 580.8 150.5C583 151.8 585.6 152.4 588.7 152.4C591.8 152.4 594.5 151.8 596.6 150.5C598.8 149.3 600.5 147.5 601.8 145.3C603.1 143 604.1 140.5 604.7 137.9C605.3 135.2 605.7 132.4 605.7 129.5V89.7002H624V129.6C624 135 623.3 140.1 621.9 144.7C620.5 149.4 618.4 153.5 615.6 157.1C612.8 160.7 609.1 163.5 604.7 165.5C600.3 167.4 595 168.4 588.8 168.4Z" fill="#0184EA"/>
<path d="M654.8 89.7002H674.5L702 167.8H683.2L677.1 150.3H652.3L646.3 167.8H627.5L654.8 89.7002ZM673.8 137.9L664.8 107.8L655.2 137.9H673.8Z" fill="#0184EA"/>
<path d="M709.701 167.7V89.7002H745.301C749.101 89.7002 752.601 90.5002 755.801 92.0002C759.001 93.5002 761.801 95.6002 764.001 98.0002C766.201 100.4 768.101 103.3 769.401 106.5C770.701 109.6 771.401 112.8 771.401 116.2C771.401 119.3 770.901 122.4 769.801 125.3C768.801 128.1 767.201 130.8 765.301 133.1C763.401 135.4 761.101 137.3 758.501 138.7L775.901 167.7H755.701L740.501 142.5H728.001V167.7H709.701ZM728.001 126.7H744.901C746.301 126.7 747.701 126.2 748.701 125.4C749.901 124.5 750.801 123.3 751.501 121.7C752.201 120.1 752.601 118.3 752.601 116.2C752.601 114 752.201 112.1 751.301 110.5C750.401 108.9 749.401 107.7 748.101 106.8C746.801 105.9 745.501 105.5 744.101 105.5H728.001V126.7Z" fill="#0184EA"/>
<path d="M840.1 151.9V167.7H784.4V89.7002H839.1V105.5H802.7V120.7H834V135.3H802.7V151.9H840.1Z" fill="#0184EA"/>
<path d="M447.4 197.8H430.4V240H417.5V197.8H400.5V187H447.4V197.8Z" fill="#0184EA"/>
<path d="M473.301 240.1V187.1H498.401C501.101 187.1 503.501 187.6 505.801 188.7C508.001 189.7 509.901 191.1 511.601 192.8C513.201 194.5 514.501 196.4 515.401 198.6C516.301 200.7 516.801 202.9 516.801 205.2C516.801 209.4 515.301 213.5 512.501 216.7C511.101 218.2 509.501 219.5 507.701 220.5L519.901 240.2H505.701L494.901 223H486.201V240.1H473.301ZM486.201 212.2H498.101C499.101 212.2 500.001 211.9 500.801 211.3C501.601 210.7 502.301 209.9 502.801 208.8C503.301 207.7 503.601 206.5 503.601 205.1C503.601 203.6 503.301 202.3 502.701 201.3C502.101 200.2 501.301 199.4 500.401 198.8C499.501 198.2 498.501 197.9 497.601 197.9H486.201V212.2Z" fill="#0184EA"/>
<path d="M545.5 240.1V187.1H558.4V240.1H545.5Z" fill="#0184EA"/>
<path d="M596.901 187.1L610.001 225.8L623.001 187.1H636.601L616.301 240.1H603.601L583.201 187.1H596.901Z" fill="#0184EA"/>
<path d="M661.5 240.1V187.1H674.4V240.1H661.5Z" fill="#0184EA"/>
<path d="M718.7 187.1H732.5L751.8 240.1H738.6L734.8 228.2H716.4L712.6 240.1H699.4L718.7 187.1ZM732.2 219.8L725.7 199.4L719.1 219.8H732.2Z" fill="#0184EA"/>
<path d="M213 75.7998H343.8C359.8 75.7998 372.8 88.7998 372.8 104.8V224.2C372.8 240.2 359.8 253.3 343.8 253.3H213C197 253.3 183.9 240.3 183.9 224.2V104.9C183.9 88.7998 196.9 75.7998 213 75.7998Z" fill="white" stroke="#0184EA" stroke-width="8.4619" stroke-miterlimit="10"/>
<path d="M370.201 160.2H186.301V168.7H370.201V160.2Z" fill="#0184EA"/>
<path d="M282.6 78.8994H274.1V250.199H282.6V78.8994Z" fill="#0184EA"/>
<path d="M260.9 91.1994C257.9 87.8994 240.5 82.1995 219.1 97.2995C198.8 111.599 197.2 142.899 200.6 147.399C204 151.899 227.6 157.899 249.2 135.799C268.3 116.299 263.9 94.4994 260.9 91.1994Z" fill="#0184EA"/>
<path d="M243.5 92.2002L259.1 108.2L257.9 114.7L236.6 93.4002L243.5 92.2002Z" fill="#F4F3F3"/>
<path d="M204.601 124.399L225.901 145.799L219.701 147.299L203.301 130.499L204.601 124.399Z" fill="#F4F3F3"/>
<path d="M243.1 114L241.6 115.5C241.3 115.8 240.7 115.8 240.4 115.5L238.2 113.3L235.7 116.1L238.1 118.5C238.4 118.8 238.4 119.4 238.1 119.7L236.6 121.2C236.3 121.5 235.7 121.5 235.4 121.2L233.2 119L230.4 122L232.8 124.3C233.1 124.6 233.1 125.2 232.8 125.5L231.3 127C231 127.3 230.4 127.3 230.1 127L227.9 124.8L225.2 127.8L227.6 130.1C227.9 130.4 227.9 131 227.6 131.3L226.1 132.8C225.8 133.1 225.2 133.1 224.9 132.8L222.7 130.6L220.8 132.6C220.6 132.8 220.2 132.8 220 132.6L218 130.7C217.8 130.5 217.8 130.2 218 129.9L220 127.7L218 125.8C217.7 125.5 217.7 124.9 218 124.6L219.5 123.1C219.8 122.8 220.4 122.8 220.7 123.1L222.6 124.9L225.3 122L223.3 120C223 119.7 223 119.1 223.3 118.8L224.8 117.3C225.1 117 225.7 117 226 117.3L227.8 119.1L230.6 116.1L228.6 114.1C228.3 113.8 228.3 113.2 228.6 112.9L230.1 111.4C230.4 111.1 231 111.1 231.3 111.4L233.1 113.2L235.6 110.4L233.6 108.4C233.3 108.1 233.3 107.5 233.6 107.2L235.1 105.7C235.4 105.4 236 105.4 236.3 105.7L238.1 107.5L240 105.4C240.2 105.2 240.5 105.2 240.8 105.4L242.8 107.2C243 107.4 243 107.8 242.8 108L240.8 110.2L243.2 112.5C243.4 113.1 243.4 113.6 243.1 114Z" fill="#F4F3F3"/>
<path d="M231.901 180.9C233.701 180.9 235.401 181.1 237.201 181.4C240.201 182 243.101 183.1 245.701 184.6C253.701 189.3 258.701 197.9 258.901 207.2V207.3V207.4C258.901 207.5 258.901 207.7 258.901 207.9C258.901 213.8 257.001 219.6 253.301 224.3C250.901 227.5 247.801 230.1 244.201 231.9C240.501 233.8 236.501 234.8 232.401 234.9H232.301H232.201C232.101 234.9 232.001 234.9 231.801 234.9C216.901 234.9 204.801 222.8 204.801 207.9C204.801 207.4 204.801 207 204.801 206.6C205.201 199.2 208.501 192.4 214.101 187.5C219.001 183.2 225.301 180.9 231.901 180.9ZM231.901 175.7C214.701 175.7 200.601 189.2 199.801 206.3C199.801 206.8 199.801 207.4 199.801 207.9C199.801 225.7 214.201 240.1 232.001 240.1C232.201 240.1 232.501 240.1 232.701 240.1C250.201 239.7 264.201 225.4 264.201 207.9C264.201 207.7 264.201 207.4 264.201 207.1C263.801 191.8 252.801 179.2 238.301 176.3C236.101 175.9 234.001 175.7 231.901 175.7Z" fill="#0184EA"/>
<path d="M211.801 189.8C220.001 193.8 227.601 199 234.201 205.3C240.901 211.6 246.601 218.8 251.101 226.8C249.101 228.9 246.701 230.6 244.201 231.9C240.501 233.8 236.501 234.8 232.401 234.9H232.301H232.201C232.101 234.9 232.001 234.9 231.801 234.9C216.901 234.9 204.801 222.8 204.801 207.9C204.801 207.4 204.801 207 204.801 206.6C205.201 200.3 207.601 194.4 211.801 189.8ZM210.801 183.6C204.201 189.3 200.201 197.5 199.801 206.3C199.801 206.8 199.801 207.4 199.801 207.9C199.801 225.7 214.201 240.1 232.001 240.1C232.201 240.1 232.501 240.1 232.701 240.1C242.501 239.9 251.601 235.2 257.601 227.5C247.201 208 230.801 192.4 210.801 183.6Z" fill="#0184EA"/>
<path d="M251.001 207.8C253.501 207.8 256.201 208.5 258.801 210C257.901 222.2 248.901 232.2 236.901 234.5C236.301 228.7 236.801 223.2 238.401 218.6C239.301 215.9 240.601 213.7 242.101 212C243.601 210.3 245.301 209.1 247.201 208.5C248.401 208 249.701 207.8 251.001 207.8ZM251.001 202.6C249.101 202.6 247.301 202.9 245.501 203.5C234.201 207.4 229.101 223 232.601 240C250.101 239.6 264.101 225.4 264.101 207.8C264.101 207.6 264.101 207.3 264.101 207C259.801 204.2 255.301 202.6 251.001 202.6Z" fill="#0184EA"/>
<path d="M231.901 180.9C232.401 180.9 232.801 180.9 233.301 180.9C233.301 182.6 233.201 184.3 233.001 186C232.601 188.7 231.901 191.3 230.801 193.8C228.701 198.5 225.401 201.9 221.301 203.7C219.001 204.7 216.601 205.2 214.101 205.2C211.201 205.2 208.201 204.5 205.201 203.3C207.501 190.4 218.701 180.9 231.901 180.9ZM231.901 175.7C214.701 175.7 200.601 189.3 199.801 206.3C204.401 208.9 209.401 210.4 214.201 210.4C217.401 210.4 220.601 209.7 223.501 208.4C234.401 203.5 239.801 190.5 238.201 176.3C236.101 175.9 234.001 175.7 231.901 175.7Z" fill="#0184EA"/>
<path d="M251.801 189.3L213.201 227.9" stroke="#0184EA" stroke-width="5.1464" stroke-miterlimit="10"/>
<path d="M324.801 93.3002C326.601 93.3002 328.301 93.5002 330.101 93.8002C333.101 94.4002 336.001 95.5002 338.601 97.0002C346.601 101.7 351.601 110.3 351.801 119.6V119.7V119.8C351.801 119.9 351.801 120.1 351.801 120.3C351.801 126.2 349.901 132 346.301 136.7C343.901 139.9 340.801 142.5 337.201 144.3C333.501 146.2 329.501 147.2 325.401 147.3H325.301H325.201C325.101 147.3 325.001 147.3 324.801 147.3C309.901 147.3 297.801 135.2 297.801 120.3C297.801 120.3 297.801 120.3 297.801 120.2C297.801 119.7 297.801 119.3 297.801 118.9C298.201 111.6 301.501 104.7 307.101 99.8002C311.901 95.7002 318.201 93.3002 324.801 93.3002ZM324.801 88.2002C307.601 88.2002 293.501 101.7 292.701 118.8C292.701 119.3 292.701 119.9 292.701 120.4C292.701 138.2 307.101 152.6 324.901 152.6C325.101 152.6 325.401 152.6 325.601 152.6C343.101 152.2 357.101 137.9 357.101 120.4C357.101 120.2 357.101 119.9 357.101 119.6C356.701 104.3 345.701 91.7002 331.201 88.8002C329.001 88.4002 326.901 88.2002 324.801 88.2002Z" fill="#0184EA"/>
<path d="M304.7 102.2C312.9 106.2 320.5 111.4 327.2 117.7C333.9 124 339.6 131.2 344.2 139.2C342.2 141.3 339.8 143 337.3 144.3C333.6 146.2 329.6 147.2 325.5 147.3H325.4H325.3C325.2 147.3 325.1 147.3 324.9 147.3C310 147.3 297.9 135.2 297.9 120.3C297.9 120.3 297.9 120.3 297.9 120.2C297.9 119.7 297.9 119.3 297.9 118.9C298.1 112.8 300.5 106.8 304.7 102.2ZM303.6 96C297 101.7 293 109.9 292.6 118.7C292.6 119.2 292.6 119.8 292.6 120.3C292.6 138.1 307 152.5 324.8 152.5C325 152.5 325.3 152.5 325.5 152.5C335.3 152.3 344.5 147.6 350.4 139.9C340.1 120.5 323.7 104.9 303.6 96Z" fill="#0184EA"/>
<path d="M343.9 120.2C346.4 120.2 349.1 120.9 351.7 122.4C350.8 134.6 341.8 144.6 329.8 146.9C329.2 141.1 329.7 135.6 331.3 131C332.2 128.3 333.5 126.1 335 124.3C336.5 122.6 338.2 121.5 340.1 120.8C341.3 120.4 342.6 120.2 343.9 120.2ZM343.9 115.1C342 115.1 340.2 115.4 338.4 116C327.1 119.9 321.9 135.5 325.5 152.5C343 152.1 357 137.9 357 120.3C357 120.1 357 119.8 357 119.5C352.7 116.7 348.2 115.1 343.9 115.1Z" fill="#0184EA"/>
<path d="M324.801 93.3002C325.301 93.3002 325.701 93.3002 326.201 93.3002C326.201 95.0002 326.101 96.7002 325.901 98.4002C325.501 101.1 324.801 103.7 323.701 106.2C321.601 110.9 318.301 114.3 314.201 116.1C311.901 117.1 309.501 117.6 307.001 117.6C304.101 117.6 301.101 116.9 298.101 115.7C300.301 102.8 311.601 93.3002 324.801 93.3002ZM324.801 88.2002C307.601 88.2002 293.501 101.8 292.701 118.8C297.301 121.5 302.301 122.9 307.101 122.9C310.301 122.9 313.501 122.2 316.401 120.9C327.301 116 332.701 103 331.101 88.8002C329.001 88.4002 326.901 88.2002 324.801 88.2002Z" fill="#0184EA"/>
<path d="M344.7 101.8L306.1 140.4" stroke="#0184EA" stroke-width="5.1464" stroke-miterlimit="10"/>
<path d="M277.8 221.8C274.3 221.8 270.9 220.9 267.9 219.2C264.9 217.5 262.3 215 260.6 211.9C258.9 208.9 258 205.5 258 202.1C258 198.2 259 194.6 261 191.5V179.6C261 176.3 261.5 173.2 262.5 170.4C263.5 167.5 265.1 164.8 267.3 162.1C267.8 161.6 268.2 161 268.8 160.5H241.6V150.2C241.6 143.8 243.2 138 246.3 132.8C249.4 127.6 253.8 123.5 259.3 120.6C264.7 117.7 270.9 116.3 277.8 116.3C284.8 116.3 291.1 117.7 296.4 120.4C301.9 123.2 306.3 127.2 309.4 132.3C312.5 137.4 314 143 314 149.1C314 153.4 313.2 157.5 311.7 161.2C310.2 164.6 308.3 167.8 305.9 170.6C303.7 173.2 301.2 175.7 298.6 177.9C297.1 179.2 295.9 180.3 295 181.2C294.8 181.4 294.7 181.5 294.6 181.6V191.5C296.5 194.6 297.6 198.2 297.6 202.1C297.6 205.5 296.7 209 295 212C293.3 215 290.9 217.5 287.9 219.2C284.8 220.9 281.4 221.8 277.8 221.8ZM277.8 148.1C276.8 148.1 276 148.2 275.7 148.5C275.4 148.8 275.4 149.8 275.4 150.2V154.3C277.3 152.6 278.8 151 279.8 149.7C280.2 149.3 280.2 149 280.2 149C280.2 148.9 280.2 148.8 280.2 148.7C280.2 148.7 280.2 148.6 280 148.5C279.8 148.3 279 148.1 277.8 148.1Z" fill="#F3F3F3"/>
<path d="M270.5 184.3V180.2C270.5 178 270.8 176.1 271.4 174.4C272 172.7 273 171 274.4 169.3C275.8 167.6 277.7 165.7 280.2 163.7C283.2 161.1 285.5 158.7 287.2 156.5C288.9 154.3 289.7 152 289.7 149.6C289.7 146.5 288.6 143.8 286.3 141.7C284 139.6 280.9 138.5 277 138.5C273.1 138.5 270 139.6 267.7 141.9C265.4 144.1 264.3 147.1 264.3 150.9H251.1C251.1 146.4 252.2 142.4 254.3 138.8C256.5 135.2 259.5 132.4 263.4 130.3C267.3 128.2 271.8 127.2 277 127.2C282.4 127.2 287 128.2 290.9 130.2C294.8 132.2 297.7 134.8 299.8 138.3C301.9 141.7 302.9 145.5 302.9 149.8C302.9 152.8 302.4 155.5 301.4 157.9C300.4 160.3 299 162.6 297.2 164.7C295.3 166.9 293.2 169 291 170.9C289.3 172.4 287.9 173.7 286.8 174.8C285.7 175.9 284.9 177.1 284.3 178.2C283.7 179.3 283.5 180.6 283.5 182.2V184.6L270.5 184.3ZM277 212.1C275.3 212.1 273.7 211.7 272.2 210.9C270.8 210.1 269.6 208.9 268.8 207.5C268 206 267.6 204.4 267.6 202.7C267.6 199.9 268.5 197.7 270.3 195.9C272.1 194.1 274.3 193.3 277 193.3C279.7 193.3 281.9 194.2 283.7 195.9C285.5 197.7 286.4 199.9 286.4 202.7C286.4 204.4 286 206 285.2 207.5C284.4 208.9 283.2 210.1 281.8 210.9C280.4 211.6 278.8 212.1 277 212.1Z" fill="#0187E9"/>
<path d="M353.9 179.199C350.9 175.899 333.5 170.199 312.1 185.299C291.8 199.599 290.2 230.899 293.6 235.399C297 239.899 320.6 245.899 342.1 223.799C361.3 204.299 356.9 182.499 353.9 179.199Z" fill="#0184EA"/>
<path d="M336.5 180.1L352.1 196.1L350.9 202.6L329.6 181.4L336.5 180.1Z" fill="#F4F3F3"/>
<path d="M297.601 212.399L318.901 233.699L312.701 235.299L296.301 218.399L297.601 212.399Z" fill="#F4F3F3"/>
<path d="M336.001 201.9L334.501 203.4C334.201 203.7 333.601 203.7 333.301 203.4L331.101 201.2L328.601 204L331.001 206.4C331.301 206.7 331.301 207.3 331.001 207.6L329.501 209.1C329.201 209.4 328.601 209.4 328.301 209.1L326.101 206.9L323.301 209.9L325.701 212.3C326.001 212.6 326.001 213.2 325.701 213.5L324.201 215C323.901 215.3 323.301 215.3 323.001 215L320.801 212.8L318.101 215.8L320.501 218.2C320.801 218.5 320.801 219.1 320.501 219.4L319.001 220.9C318.701 221.2 318.101 221.2 317.801 220.9L315.601 218.7L313.701 220.7C313.501 220.9 313.201 220.9 312.901 220.7L310.901 218.8C310.701 218.6 310.701 218.2 310.901 218L312.901 215.8L310.901 213.9C310.601 213.6 310.601 213 310.901 212.7L312.401 211.2C312.701 210.9 313.301 210.9 313.601 211.2L315.401 213L318.101 210.1L316.101 208.1C315.801 207.8 315.801 207.2 316.101 206.9L317.601 205.4C317.901 205.1 318.501 205.1 318.801 205.4L320.601 207.2L323.401 204.2L321.401 202.2C321.101 201.9 321.101 201.3 321.401 201L322.901 199.5C323.201 199.2 323.801 199.2 324.101 199.5L326.001 201.3L328.501 198.5L326.501 196.5C326.201 196.2 326.201 195.6 326.501 195.3L328.001 193.8C328.301 193.5 328.901 193.5 329.201 193.8L331.001 195.6L332.901 193.5C333.101 193.3 333.401 193.3 333.701 193.5L335.701 195.3C335.901 195.5 335.901 195.9 335.701 196.1L333.701 198.3L336.101 200.7C336.401 201 336.401 201.6 336.001 201.9Z" fill="#F4F3F3"/>
<path d="M242.701 147.4C242.701 147.4 237.801 165.4 246.001 175.4C254.101 185.4 265.3 176.5 265.3 176.5L281.601 148.5L276.9 145.5L272.3 151.5L250.501 151.1L242.701 147.4Z" fill="white"/>
<text fill="#001E3A" xml:space="preserve" style="white-space: pre" font-family="Bebas Neue" font-size="134" letter-spacing="0em"><tspan x="96.3564" y="419.449">COMPARE YOUR TIME</tspan></text>
<path d="M911.8 657.9H112.2C105.4 657.9 99.9004 652.4 99.9004 645.6V507.2C99.9004 500.4 105.4 494.9 112.2 494.9H911.8C918.6 494.9 924.1 500.4 924.1 507.2V645.7C924.1 652.4 918.6 657.9 911.8 657.9Z" fill="#FEFEFE"/>
<g filter="url(#filter0_d_35_1181)">
<path d="M343.8 657.9H109.6C104.2 657.9 99.9004 653.6 99.9004 648.2V504.6C99.9004 499.2 104.2 494.9 109.6 494.9H343.8V657.9Z" fill="white"/>
</g>
<path d="M284.111 528.063C283.711 527.763 283.211 527.563 282.711 527.663C279.911 528.063 277.011 528.563 274.011 529.063C259.411 531.563 241.211 534.563 221.911 534.563C202.611 534.563 184.411 531.463 169.811 529.063C166.711 528.563 163.811 528.063 161.111 527.663C160.611 527.563 160.111 527.763 159.711 528.063C159.311 528.363 159.111 528.863 159.111 529.363V602.663C159.111 603.163 159.311 603.663 159.711 603.963C160.111 604.263 160.611 604.463 161.111 604.363C163.911 603.963 166.811 603.463 169.911 602.863C182.811 600.663 198.511 598.063 215.211 597.463C216.311 597.463 217.511 597.363 218.611 597.363C219.711 597.363 220.711 597.363 221.811 597.363C222.911 597.363 223.911 597.363 225.011 597.363C226.211 597.363 227.311 597.363 228.411 597.463C245.111 598.063 260.811 600.663 273.711 602.863C276.811 603.363 279.711 603.863 282.511 604.363C282.611 604.363 282.711 604.363 282.811 604.363C283.211 604.363 283.611 604.263 283.911 603.963C284.311 603.663 284.511 603.163 284.511 602.663V529.363C284.711 528.863 284.511 528.463 284.111 528.063ZM281.211 592.763C279.011 592.363 276.711 592.063 274.411 591.663C259.711 589.163 241.311 586.063 221.811 586.063C202.311 586.063 184.011 589.163 169.311 591.663C166.911 592.063 164.711 592.463 162.511 592.763V531.463C164.711 531.863 166.911 532.163 169.211 532.563C183.911 535.063 202.311 538.163 221.811 538.163C241.311 538.163 259.711 535.063 274.511 532.563C276.811 532.163 279.111 531.763 281.211 531.463V592.763ZM254.711 618.763V623.363C254.711 623.863 254.511 624.363 254.011 624.763C253.611 625.063 253.011 625.163 252.511 625.063L221.811 617.363L191.111 625.063C191.011 625.063 190.811 625.163 190.711 625.163C190.311 625.163 189.911 625.063 189.611 624.763C189.211 624.463 188.911 623.963 188.911 623.363V618.763C188.911 618.063 189.411 617.363 190.011 617.163L215.011 608.163V600.963C216.111 600.963 217.311 600.863 218.411 600.863C219.511 600.863 220.511 600.863 221.611 600.863C222.711 600.863 223.711 600.863 224.811 600.863C226.011 600.863 227.111 600.963 228.211 600.963V608.163L253.211 617.163C254.211 617.363 254.711 618.063 254.711 618.763Z" fill="#10B981"/>
<text fill="#001E3A" xml:space="preserve" style="white-space: pre" font-family="Inter" font-size="45" font-weight="bold" letter-spacing="0em"><tspan x="376.801" y="567.764">144 minutes scrolling </tspan></text>
<text fill="#001E3A" xml:space="preserve" style="white-space: pre" font-family="Inter" font-size="45" font-weight="bold" letter-spacing="0em"><tspan x="376.801" y="617.764">social media: </tspan></text>
<text fill="#10B981" xml:space="preserve" style="white-space: pre" font-family="Inter" font-size="45" font-weight="bold" letter-spacing="0em"><tspan x="673.662" y="617.764">$0</tspan></text>
<path d="M911.8 888.133H112.2C105.4 888.133 99.9004 882.633 99.9004 875.833V737.433C99.9004 730.633 105.4 725.133 112.2 725.133H911.8C918.6 725.133 924.1 730.633 924.1 737.433V875.933C924.1 882.633 918.6 888.133 911.8 888.133Z" fill="#FEFEFE"/>
<g filter="url(#filter1_d_35_1181)">
<path d="M343.8 888.133H109.6C104.2 888.133 99.9004 883.833 99.9004 878.433V734.833C99.9004 729.433 104.2 725.133 109.6 725.133H343.8V888.133Z" fill="white"/>
</g>
<path d="M256.6 766.133C256.6 760.633 252.1 756.133 246.6 756.133H196.1C191.1 756.133 187.1 760.133 187.1 765.133V848.133C187.1 853.133 191.1 857.133 196.1 857.133H247.6C252.6 857.133 256.6 853.133 256.6 848.133V766.133ZM221.9 852.233C218.8 852.233 216.3 849.733 216.3 846.633C216.3 843.533 218.8 841.033 221.9 841.033C225 841.033 227.5 843.533 227.5 846.633C227.5 849.733 225 852.233 221.9 852.233ZM249.1 833.633H194.6V764.033H249.1V833.633Z" fill="#10B981"/>
<text fill="#001E3A" xml:space="preserve" style="white-space: pre" font-family="Inter" font-size="45" font-weight="bold" letter-spacing="0em"><tspan x="376.801" y="797.996">175 minutes watching </tspan></text>
<text fill="#001E3A" xml:space="preserve" style="white-space: pre" font-family="Inter" font-size="45" font-weight="bold" letter-spacing="0em"><tspan x="376.801" y="847.996">TV: </tspan></text>
<text fill="#10B981" xml:space="preserve" style="white-space: pre" font-family="Inter" font-size="45" font-weight="bold" letter-spacing="0em"><tspan x="458.602" y="847.996">$0</tspan></text>
<path d="M911.8 1118.47H112.2C105.4 1118.47 99.9004 1112.97 99.9004 1106.17V967.666C99.9004 960.866 105.4 955.366 112.2 955.366H911.8C918.6 955.366 924.1 960.866 924.1 967.666V1106.17C924.1 1112.97 918.6 1118.47 911.8 1118.47Z" fill="#FEFEFE"/>
<g filter="url(#filter2_d_35_1181)">
<path d="M343.8 1118.47H109.6C104.2 1118.47 99.9004 1114.17 99.9004 1108.77V965.066C99.9004 959.666 104.2 955.366 109.6 955.366H343.8V1118.47Z" fill="white"/>
</g>
<path d="M265.603 1005.67C264.303 1002.47 262.003 1000.07 259.103 998.867C257.103 998.167 255.003 997.867 252.703 998.267C253.203 995.767 251.203 993.467 248.703 993.467H195.003C192.503 993.467 190.603 995.767 191.003 998.267C188.703 997.867 186.703 997.967 184.603 998.867C181.703 1000.07 179.403 1002.47 178.103 1005.67C176.103 1010.77 176.803 1017.57 179.803 1023.97C184.003 1032.67 191.103 1037.97 197.803 1038.17C199.803 1044.57 204.903 1049.87 211.403 1052.77C201.803 1056.57 195.303 1065.47 195.303 1075.47V1080.37H248.603V1075.47C248.603 1065.37 242.103 1056.47 232.503 1052.77C239.003 1049.97 244.103 1044.67 246.103 1038.17C252.603 1038.07 259.703 1032.67 263.803 1023.97C266.903 1017.47 267.603 1010.67 265.603 1005.67ZM188.703 1019.67C186.503 1015.07 186.503 1011.17 187.303 1009.27C187.603 1008.57 187.903 1008.07 188.303 1007.97C189.203 1007.67 190.903 1007.97 192.903 1009.57C194.103 1016.57 195.403 1023.57 196.103 1027.87C193.603 1026.77 190.703 1023.87 188.703 1019.67ZM255.003 1019.67C253.003 1023.97 249.903 1026.77 247.603 1027.77C248.303 1023.47 249.503 1016.47 250.803 1009.47C252.803 1007.87 254.603 1007.57 255.403 1007.87C255.803 1007.97 256.103 1008.47 256.403 1009.17C257.203 1011.17 257.403 1014.87 255.003 1019.67Z" fill="#10B981"/>
<text fill="#001E3A" xml:space="preserve" style="white-space: pre" font-family="Inter" font-size="45" font-weight="bold" letter-spacing="0em"><tspan x="376.801" y="1028.28">3.2 seconds on </tspan></text>
<text fill="#001E3A" xml:space="preserve" style="white-space: pre" font-family="Inter" font-size="45" font-weight="bold" letter-spacing="0em"><tspan x="376.801" y="1078.28">SquareTrivia: </tspan></text>
<text fill="#10B981" xml:space="preserve" style="white-space: pre" font-family="Inter" font-size="45" font-weight="bold" letter-spacing="0em"><tspan x="675.746" y="1078.28">$450</tspan></text>
<text fill="#10B981" xml:space="preserve" style="white-space: pre" font-family="Bebas Neue" font-size="103" letter-spacing="0em"><tspan x="105.131" y="1249.13">Everyone&#x2019;s killing time.</tspan></text>
<text fill="#10B981" xml:space="preserve" style="white-space: pre" font-family="Bebas Neue" font-size="75" letter-spacing="0em"><tspan x="224.278" y="1335.33">Winners get paid for it.</tspan></text>
<text fill="#0184EA" xml:space="preserve" style="white-space: pre" font-family="Bebas Neue" font-size="80" font-weight="bold" letter-spacing="0.23em"><tspan x="85.4019" y="1464.47">Speed Wins. Always.</tspan></text>
</g>
<defs>
<filter id="filter0_d_35_1181" x="97.7004" y="486.7" width="260.3" height="179.4" filterUnits="userSpaceOnUse" color-interpolation-filters="sRGB">
<feFlood flood-opacity="0" result="BackgroundImageFix"/>
<feColorMatrix in="SourceAlpha" type="matrix" values="0 0 0 0 0 0 0 0 0 0 0 0 0 0 0 0 0 0 127 0" result="hardAlpha"/>
<feOffset dx="6"/>
<feGaussianBlur stdDeviation="4.1"/>
<feComposite in2="hardAlpha" operator="out"/>
<feColorMatrix type="matrix" values="0 0 0 0 0 0 0 0 0 0 0 0 0 0 0 0 0 0 0.08 0"/>
<feBlend mode="normal" in2="BackgroundImageFix" result="effect1_dropShadow_35_1181"/>
<feBlend mode="normal" in="SourceGraphic" in2="effect1_dropShadow_35_1181" result="shape"/>
</filter>
<filter id="filter1_d_35_1181" x="97.7004" y="716.933" width="260.3" height="179.4" filterUnits="userSpaceOnUse" color-interpolation-filters="sRGB">
<feFlood flood-opacity="0" result="BackgroundImageFix"/>
<feColorMatrix in="SourceAlpha" type="matrix" values="0 0 0 0 0 0 0 0 0 0 0 0 0 0 0 0 0 0 127 0" result="hardAlpha"/>
<feOffset dx="6"/>
<feGaussianBlur stdDeviation="4.1"/>
<feComposite in2="hardAlpha" operator="out"/>
<feColorMatrix type="matrix" values="0 0 0 0 0 0 0 0 0 0 0 0 0 0 0 0 0 0 0.08 0"/>
<feBlend mode="normal" in2="BackgroundImageFix" result="effect1_dropShadow_35_1181"/>
<feBlend mode="normal" in="SourceGraphic" in2="effect1_dropShadow_35_1181" result="shape"/>
</filter>
<filter id="filter2_d_35_1181" x="97.7004" y="947.166" width="260.3" height="179.5" filterUnits="userSpaceOnUse" color-interpolation-filters="sRGB">
<feFlood flood-opacity="0" result="BackgroundImageFix"/>
<feColorMatrix in="SourceAlpha" type="matrix" values="0 0 0 0 0 0 0 0 0 0 0 0 0 0 0 0 0 0 127 0" result="hardAlpha"/>
<feOffset dx="6"/>
<feGaussianBlur stdDeviation="4.1"/>
<feComposite in2="hardAlpha" operator="out"/>
<feColorMatrix type="matrix" values="0 0 0 0 0 0 0 0 0 0 0 0 0 0 0 0 0 0 0.08 0"/>
<feBlend mode="normal" in2="BackgroundImageFix" result="effect1_dropShadow_35_1181"/>
<feBlend mode="normal" in="SourceGraphic" in2="effect1_dropShadow_35_1181" result="shape"/>
</filter>
<clipPath id="clip0_35_1181">
<rect width="1024" height="1536" fill="white"/>
</clipPath>
</defs>
</svg>
