<svg width="1024" height="1536" viewBox="0 0 1024 1536" fill="none" xmlns="http://www.w3.org/2000/svg">
<g clip-path="url(#clip0_35_12011)">
<path d="M1023.6 0H-0.398438V1536H1023.6V0Z" fill="#F3FEFD"/>
<path d="M450.7 118.799C450.5 118.599 449.7 118.099 448.4 117.299C446.8 116.399 445.2 115.499 443.6 114.799C441.6 113.899 439.5 113.199 437.3 112.599C435.1 111.999 432.8 111.699 430.4 111.699C427.4 111.699 425.1 112.199 423.4 113.299C421.8 114.399 420.9 115.899 420.9 117.999C420.9 119.599 421.5 120.899 422.8 121.999C424 122.999 425.9 123.899 428.2 124.599C430.6 125.299 433.5 126.199 436.9 127.099C441.8 128.399 446 129.999 449.6 131.799C453.2 133.599 455.9 135.899 457.8 138.699C459.7 141.499 460.6 145.299 460.6 149.899C460.6 154.099 459.8 157.599 458.3 160.599C456.8 163.599 454.6 165.999 451.8 167.799C449 169.599 446 170.899 442.6 171.699C439.1 172.499 435.6 172.899 432 172.899C428.1 172.899 424.3 172.499 420.6 171.699C416.8 170.899 413 169.799 409.4 168.399C406 167.099 402.7 165.399 399.5 163.499L407.1 148.299C407.5 148.699 408.4 149.399 410 150.299C411.6 151.199 413.5 152.199 415.9 153.199C418.4 154.299 421 155.199 423.7 155.999C426.5 156.799 429.4 157.199 432.3 157.199C435.5 157.199 437.9 156.699 439.4 155.699C440.9 154.699 441.7 153.299 441.7 151.499C441.7 149.699 440.9 148.199 439.3 147.099C437.7 145.999 435.5 144.999 432.8 144.099C430.1 143.199 426.9 142.299 423.3 141.299C418.6 139.799 414.8 138.199 411.8 136.499C408.8 134.799 406.5 132.599 405 130.099C403.5 127.599 402.8 124.399 402.8 120.699C402.8 115.299 404.1 110.899 406.6 107.199C409.1 103.499 412.6 100.799 416.9 98.9992C421.2 97.0992 425.9 96.1992 431 96.1992C434.5 96.1992 438 96.5992 441.4 97.4992C444.6 98.2992 447.7 99.3992 450.8 100.699C453.7 101.999 456.3 103.299 458.4 104.599L450.7 118.799Z" fill="#0184EA"/>
<path d="M504.298 172.499C498.698 172.499 493.598 171.399 488.998 169.299C484.398 167.199 480.398 164.299 476.998 160.699C473.698 157.099 470.998 152.999 469.298 148.399C467.498 143.899 466.598 139.099 466.598 134.299C466.598 129.399 467.598 124.499 469.398 119.999C471.298 115.499 473.998 111.399 477.398 107.899C480.798 104.399 484.798 101.599 489.498 99.4994C494.198 97.3994 499.298 96.3994 504.798 96.3994C510.498 96.3994 515.598 97.4994 520.198 99.6994C524.798 101.899 528.798 104.799 532.098 108.499C535.398 112.099 537.998 116.299 539.798 120.799C541.598 125.399 542.498 129.999 542.498 134.699C542.498 139.599 541.598 144.499 539.698 148.999C535.898 158.199 528.698 165.499 519.698 169.499C514.998 171.499 509.898 172.499 504.298 172.499ZM504.598 157.099C507.898 157.099 510.798 156.499 513.298 155.099C515.698 153.899 517.898 152.099 519.498 149.899C521.098 147.699 522.398 145.199 523.198 142.599C523.998 139.899 524.398 137.099 524.398 134.399C524.398 131.499 523.898 128.699 522.998 125.999C522.098 123.399 520.798 120.899 519.098 118.799C517.398 116.699 515.198 114.999 512.798 113.799C510.298 112.599 507.498 111.999 504.298 111.999C500.898 111.999 497.998 112.699 495.498 113.999C493.098 115.199 490.898 117.099 489.298 119.199C487.698 121.399 486.398 123.799 485.498 126.399C484.598 129.099 484.198 131.899 484.198 134.699C484.198 137.499 484.598 140.399 485.598 143.099C486.498 145.699 487.798 148.199 489.498 150.299C491.198 152.399 493.298 154.199 495.698 155.399C498.298 156.499 501.298 157.099 504.598 157.099ZM499.798 142.399H516.298L543.598 171.999H526.898L499.798 142.399Z" fill="#0184EA"/>
<path d="M585.498 172.599C579.398 172.599 574.198 171.599 569.898 169.599C565.598 167.599 562.098 164.799 559.398 161.299C556.698 157.799 554.698 153.799 553.498 149.299C552.198 144.699 551.598 139.999 551.598 135.299V96.8994H569.198V135.299C569.198 138.099 569.498 140.799 569.998 143.499C570.598 146.099 571.498 148.399 572.698 150.399C573.898 152.399 575.698 154.099 577.698 155.299C579.798 156.499 582.298 157.199 585.298 157.199C588.298 157.199 590.798 156.599 592.898 155.399C594.998 154.199 596.698 152.499 597.898 150.399C599.198 148.199 600.098 145.799 600.698 143.299C601.298 140.699 601.598 137.999 601.598 135.299V96.8994H619.098V135.299C619.098 140.499 618.398 145.399 617.098 149.899C615.798 154.399 613.798 158.299 610.998 161.799C608.298 165.299 604.798 167.899 600.498 169.799C596.498 171.699 591.398 172.599 585.498 172.599Z" fill="#0184EA"/>
<path d="M648.998 96.8994H667.898L694.298 171.999H676.198L670.298 155.199H646.498L640.698 171.999H622.598L648.998 96.8994ZM667.298 143.299L658.598 114.299L649.398 143.299H667.298Z" fill="#0184EA"/>
<path d="M701.797 171.999V96.8994H736.097C739.797 96.8994 743.097 97.5994 746.197 99.0994C749.297 100.599 751.897 102.499 754.097 104.899C756.297 107.299 757.997 110.099 759.297 112.999C760.497 115.899 761.197 119.099 761.197 122.299C761.197 125.299 760.697 128.299 759.597 131.099C758.597 133.799 757.097 136.399 755.297 138.599C753.497 140.799 751.197 142.599 748.797 143.999L765.597 171.899H746.097L731.497 147.699H719.597V171.999H701.797ZM719.397 132.499H735.597C736.897 132.499 738.197 132.099 739.297 131.199C740.397 130.399 741.297 129.199 741.997 127.599C742.697 125.999 743.097 124.299 743.097 122.299C743.097 120.199 742.697 118.399 741.897 116.899C741.097 115.399 739.997 114.199 738.797 113.399C737.597 112.599 736.297 112.099 734.997 112.099H719.397V132.499Z" fill="#0184EA"/>
<path d="M827.299 156.799V171.999H773.699V96.8994H826.399V112.099H791.399V126.699H821.499V140.799H791.399V156.799H827.299Z" fill="#0184EA"/>
<path d="M449.397 201H433.097V241.7H420.697V201H404.297V190.6H449.397V201Z" fill="#0184EA"/>
<path d="M474.398 241.6V190.6H498.498C501.098 190.6 503.398 191.1 505.598 192.1C507.698 193 509.598 194.4 511.098 196C512.598 197.6 513.898 199.5 514.698 201.5C515.598 203.5 515.998 205.6 515.998 207.8C515.998 211.9 514.498 215.8 511.798 218.9C510.498 220.4 508.898 221.6 507.198 222.6L518.998 241.6H505.298L494.998 225.2H486.598V241.6H474.398ZM486.798 214.9H498.198C499.098 214.9 500.098 214.6 500.798 214C501.598 213.4 502.198 212.6 502.698 211.6C503.198 210.5 503.498 209.4 503.498 208C503.498 206.6 503.198 205.3 502.598 204.3C501.998 203.3 501.298 202.5 500.398 201.9C499.498 201.3 498.598 201 497.698 201H486.698L486.798 214.9Z" fill="#0184EA"/>
<path d="M543.898 241.6V190.6H556.298V241.6H543.898Z" fill="#0184EA"/>
<path d="M593.2 190.6L605.8 227.8L618.3 190.6H631.4L611.9 241.6H599.7L580 190.6H593.2Z" fill="#0184EA"/>
<path d="M655.398 241.6V190.6H667.798V241.6H655.398Z" fill="#0184EA"/>
<path d="M710.5 190.6H723.8L742.4 241.6H729.7L726.1 230.2H708.4L704.7 241.6H692L710.5 190.6ZM723.5 222.2L717.2 202.5L710.9 222.2H723.5Z" fill="#0184EA"/>
<path d="M223.798 83.5996H349.698C365.098 83.5996 377.698 96.0996 377.698 111.5V226.4C377.698 241.8 365.198 254.3 349.698 254.3H223.798C208.398 254.3 195.898 241.8 195.898 226.4V111.5C195.898 96.0996 208.398 83.5996 223.798 83.5996Z" fill="white" stroke="#0184EA" stroke-width="8.1425" stroke-miterlimit="10"/>
<path d="M375.199 164.8H198.199V173H375.199V164.8Z" fill="#0184EA"/>
<path d="M290.899 86.5996H282.699V251.4H290.899V86.5996Z" fill="#0184EA"/>
<path d="M269.998 98.3999C267.198 95.2999 250.398 89.7999 229.798 104.3C210.298 118 208.698 148.2 211.998 152.5C215.198 156.8 237.898 162.6 258.698 141.4C277.098 122.6 272.798 101.6 269.998 98.3999Z" fill="#0184EA"/>
<path d="M253.198 99.2998L268.198 114.7L267.098 121L246.598 100.5L253.198 99.2998Z" fill="#F4F3F3"/>
<path d="M215.8 130.399L236.3 150.899L230.3 152.399L214.5 136.199L215.8 130.399Z" fill="#F4F3F3"/>
<path d="M252.797 120.3L251.397 121.7C251.097 122 250.497 122 250.197 121.7L247.997 119.5L245.597 122.2L247.897 124.5C248.197 124.8 248.197 125.3 247.897 125.7L246.497 127.1C246.197 127.4 245.597 127.4 245.297 127.1L243.097 124.9L240.397 127.8L242.697 130.1C242.997 130.4 242.997 131 242.697 131.3L241.297 132.7C240.997 133 240.397 133 240.097 132.7L237.897 130.5L235.297 133.3L237.597 135.6C237.897 135.9 237.897 136.5 237.597 136.8L236.197 138.2C235.897 138.5 235.297 138.5 234.997 138.2L232.797 136L230.997 138C230.797 138.2 230.497 138.2 230.297 138L228.397 136.2C228.197 136 228.197 135.7 228.397 135.5L230.297 133.4L228.397 131.5C228.097 131.2 228.097 130.6 228.397 130.3L229.797 128.9C230.097 128.6 230.697 128.6 230.997 128.9L232.797 130.7L235.397 127.9L233.497 126C233.197 125.7 233.197 125.2 233.497 124.8L234.897 123.4C235.197 123.1 235.797 123.1 236.097 123.4L237.897 125.2L240.597 122.3L238.697 120.4C238.397 120.1 238.397 119.5 238.697 119.2L240.097 117.8C240.397 117.5 240.997 117.5 241.297 117.8L243.097 119.6L245.497 116.9L243.497 115C243.197 114.7 243.197 114.1 243.497 113.8L244.897 112.4C245.197 112.1 245.797 112.1 246.097 112.4L247.897 114.2L249.697 112.2C249.897 112 250.197 112 250.397 112.2L252.297 114C252.497 114.2 252.497 114.5 252.297 114.7L250.397 116.8L252.697 119.1C253.097 119.4 253.097 120 252.797 120.3Z" fill="#F4F3F3"/>
<path d="M241.998 184.699C243.698 184.699 245.398 184.899 247.098 185.199C249.998 185.799 252.698 186.799 255.298 188.299C262.998 192.899 267.898 201.099 268.098 210.099V210.199V210.299C268.098 210.399 268.098 210.599 268.098 210.799C268.098 216.499 266.198 222.099 262.798 226.599C260.498 229.699 257.498 232.199 254.098 233.899C250.598 235.699 246.698 236.699 242.698 236.799H242.498H242.398C242.298 236.799 242.198 236.799 241.998 236.799C227.598 236.799 215.998 225.199 215.998 210.799C215.998 210.399 215.998 209.999 215.998 209.599C216.298 202.499 219.598 195.899 224.898 191.299C229.698 186.899 235.698 184.699 241.998 184.699ZM241.998 179.699C225.498 179.699 211.898 192.599 211.098 209.099C211.098 209.599 211.098 210.099 211.098 210.599C211.098 227.699 224.998 241.599 242.098 241.599C242.298 241.599 242.498 241.599 242.798 241.599C259.698 241.199 273.098 227.499 273.098 210.599C273.098 210.399 273.098 210.099 273.098 209.899C272.798 195.199 262.198 182.999 248.198 180.299C246.098 179.899 243.998 179.699 241.998 179.699Z" fill="#0184EA"/>
<path d="M222.698 193.2C230.598 197.1 237.898 202.1 244.298 208.1C250.698 214.2 256.198 221.1 260.598 228.8C258.698 230.8 256.398 232.5 253.898 233.7C250.398 235.5 246.498 236.5 242.498 236.6H242.398C242.298 236.6 242.198 236.6 241.998 236.6C227.598 236.6 215.998 225 215.998 210.6C215.998 210.2 215.998 209.8 215.998 209.4C216.298 203.4 218.698 197.7 222.698 193.2ZM221.698 187.3C215.298 192.8 211.498 200.7 211.098 209.1C211.098 209.6 211.098 210.1 211.098 210.6C211.098 227.7 224.998 241.6 242.098 241.6C242.298 241.6 242.498 241.6 242.798 241.6C252.198 241.4 260.998 236.9 266.698 229.4C256.798 210.8 240.998 195.8 221.698 187.3Z" fill="#0184EA"/>
<path d="M260.398 210.6C262.798 210.6 265.398 211.3 267.898 212.7C266.998 224.4 258.298 234.1 246.798 236.3C246.198 230.7 246.698 225.4 248.198 221C249.098 218.4 250.298 216.3 251.798 214.6C253.198 213 254.898 211.9 256.698 211.2C257.898 210.8 259.198 210.6 260.398 210.6ZM260.398 205.6C258.598 205.6 256.798 205.9 255.098 206.5C244.198 210.3 239.298 225.2 242.698 241.6C259.498 241.2 272.998 227.5 272.998 210.6C272.998 210.4 272.998 210.1 272.998 209.9C268.898 207.2 264.598 205.6 260.398 205.6Z" fill="#0184EA"/>
<path d="M241.998 184.699C242.398 184.699 242.898 184.699 243.398 184.699C243.398 186.299 243.298 187.999 243.098 189.599C242.798 192.199 242.098 194.699 240.998 197.099C238.998 201.599 235.898 204.899 231.898 206.699C229.698 207.699 227.298 208.199 224.998 208.199C222.198 208.199 219.298 207.599 216.398 206.299C218.498 193.799 229.398 184.699 241.998 184.699ZM241.998 179.699C225.398 179.699 211.898 192.699 211.098 209.099C215.598 211.699 220.298 212.999 224.998 212.999C228.098 212.999 231.098 212.399 233.998 211.099C244.498 206.399 249.698 193.899 248.098 180.199C246.098 179.899 243.998 179.699 241.998 179.699Z" fill="#0184EA"/>
<path d="M261.2 192.8L224 230" stroke="#0184EA" stroke-width="4.9521" stroke-miterlimit="10"/>
<path d="M331.4 100.4C333.1 100.4 334.8 100.6 336.5 100.9C339.4 101.5 342.1 102.5 344.7 104C352.4 108.6 357.2 116.8 357.5 125.8V125.9V126C357.5 126.1 357.5 126.3 357.5 126.5C357.5 132.2 355.6 137.8 352.2 142.3C349.9 145.4 346.9 147.9 343.5 149.6C340 151.4 336.1 152.4 332.1 152.5H332H331.9C331.8 152.5 331.7 152.5 331.5 152.5C317.1 152.5 305.5 140.9 305.5 126.5C305.5 126.5 305.5 126.5 305.5 126.4C305.5 126 305.5 125.6 305.5 125.2C305.9 118.1 309.1 111.5 314.4 106.9C319 102.7 325.1 100.4 331.4 100.4ZM331.4 95.5C314.9 95.5 301.3 108.4 300.5 124.9C300.5 125.4 300.5 125.9 300.5 126.4C300.5 143.5 314.4 157.4 331.5 157.4C331.7 157.4 331.9 157.4 332.2 157.4C349 157 362.5 143.3 362.5 126.4C362.5 126.2 362.5 125.9 362.5 125.7C362.2 111 351.6 98.8 337.6 96.1C335.4 95.7 333.4 95.5 331.4 95.5Z" fill="#0184EA"/>
<path d="M312.1 109C320 112.9 327.3 117.9 333.7 123.9C340.1 130 345.6 136.9 350 144.6C348 146.6 345.8 148.3 343.3 149.5C339.8 151.3 335.9 152.3 331.9 152.4H331.8H331.7C331.6 152.4 331.5 152.4 331.3 152.4C316.9 152.4 305.3 140.8 305.3 126.4C305.3 126.4 305.3 126.4 305.3 126.3C305.3 125.9 305.3 125.5 305.3 125.1C305.7 119.1 308.1 113.4 312.1 109ZM311.1 103C304.7 108.5 300.9 116.4 300.5 124.8C300.5 125.3 300.5 125.8 300.5 126.3C300.5 143.4 314.4 157.3 331.5 157.3C331.7 157.3 331.9 157.3 332.2 157.3C341.6 157.1 350.4 152.6 356.2 145.1C346.2 126.5 330.4 111.6 311.1 103Z" fill="#0184EA"/>
<path d="M349.799 126.299C352.199 126.299 354.799 126.999 357.299 128.399C356.399 140.099 347.699 149.799 336.199 151.999C335.599 146.399 336.099 141.099 337.599 136.699C338.499 134.099 339.699 131.999 341.199 130.299C342.599 128.699 344.299 127.599 346.099 126.899C347.299 126.499 348.499 126.299 349.799 126.299ZM349.799 121.399C347.999 121.399 346.199 121.699 344.499 122.299C333.599 126.099 328.699 140.999 331.999 157.399C348.799 156.999 362.299 143.299 362.299 126.399C362.299 126.199 362.299 125.899 362.299 125.699C358.299 122.899 353.999 121.399 349.799 121.399Z" fill="#0184EA"/>
<path d="M331.4 100.4C331.9 100.4 332.3 100.4 332.8 100.4C332.8 102 332.7 103.7 332.5 105.3C332.2 107.9 331.5 110.4 330.4 112.8C328.4 117.3 325.3 120.6 321.3 122.4C319.1 123.4 316.7 123.9 314.3 123.9C311.5 123.9 308.6 123.3 305.7 122C307.9 109.5 318.7 100.4 331.4 100.4ZM331.4 95.5C314.8 95.5 301.3 108.6 300.5 124.9C305 127.5 309.7 128.8 314.4 128.8C317.5 128.8 320.5 128.2 323.4 126.9C333.9 122.2 339.1 109.7 337.5 96C335.5 95.7 333.4 95.5 331.4 95.5Z" fill="#0184EA"/>
<path d="M350.598 108.5L313.398 145.7" stroke="#0184EA" stroke-width="4.9521" stroke-miterlimit="10"/>
<path d="M286.197 224C282.897 224 279.597 223.2 276.697 221.5C273.797 219.9 271.297 217.4 269.697 214.5C268.097 211.6 267.197 208.4 267.197 205C267.197 201.2 268.197 197.8 269.997 194.8V183.4C269.997 180.2 270.497 177.2 271.397 174.5C272.397 171.7 273.897 169.1 275.997 166.5C276.397 166 276.897 165.5 277.397 164.9H251.297V155C251.297 148.9 252.797 143.2 255.797 138.3C258.797 133.3 262.997 129.4 268.297 126.5C273.497 123.7 279.397 122.3 286.097 122.3C292.897 122.3 298.897 123.6 303.997 126.2C309.297 128.9 313.597 132.8 316.497 137.6C319.397 142.4 320.997 147.9 320.997 153.8C320.997 158 320.197 161.9 318.797 165.4C317.397 168.7 315.497 171.8 313.197 174.5C310.997 177 308.697 179.4 306.197 181.5C304.797 182.7 303.597 183.8 302.797 184.7C302.597 184.9 302.497 185 302.397 185.1V194.6C304.297 197.6 305.197 201 305.197 204.8C305.197 208.1 304.397 211.4 302.697 214.3C301.097 217.2 298.697 219.6 295.797 221.2C292.897 223.2 289.697 224 286.197 224ZM286.197 153.1C285.197 153.1 284.397 153.2 284.197 153.5C283.897 153.8 283.897 154.7 283.897 155.1V159.1C285.697 157.5 287.097 156 288.197 154.6C288.497 154.2 288.597 154 288.597 154C288.597 153.9 288.597 153.8 288.597 153.7C288.597 153.7 288.597 153.6 288.397 153.5C288.097 153.3 287.397 153.1 286.197 153.1Z" fill="#F3F3F3"/>
<path d="M279.2 187.999V183.999C279.2 181.899 279.5 179.999 280.1 178.399C280.7 176.799 281.6 175.199 283 173.499C284.4 171.799 286.2 170.099 288.5 168.099C291.4 165.599 293.6 163.299 295.2 161.199C296.8 159.099 297.6 156.899 297.6 154.499C297.6 151.499 296.5 148.899 294.3 146.899C292.1 144.899 289.1 143.799 285.3 143.799C281.5 143.799 278.5 144.899 276.3 146.999C274.1 149.099 273 151.999 273 155.699H260.5C260.5 151.399 261.5 147.499 263.6 144.099C265.7 140.699 268.6 137.999 272.3 135.899C276 133.899 280.4 132.899 285.4 132.899C290.6 132.899 295.1 133.799 298.8 135.699C302.5 137.599 305.3 140.199 307.3 143.499C309.3 146.799 310.3 150.499 310.3 154.499C310.3 157.399 309.8 159.999 308.8 162.299C307.8 164.699 306.4 166.899 304.8 168.799C303 170.899 301 172.899 298.9 174.699C297.2 176.099 295.9 177.399 294.8 178.499C293.8 179.599 292.9 180.699 292.4 181.699C291.9 182.699 291.6 183.999 291.6 185.599V187.899L279.2 187.999ZM285.5 214.699C283.9 214.699 282.3 214.299 280.9 213.499C279.5 212.699 278.4 211.599 277.6 210.199C276.8 208.799 276.4 207.199 276.4 205.599C276.4 202.999 277.3 200.799 279 199.099C280.7 197.399 282.9 196.499 285.5 196.499C288.1 196.499 290.2 197.399 292 199.099C293.7 200.799 294.6 202.999 294.6 205.599C294.6 207.199 294.2 208.799 293.4 210.199C292.6 211.599 291.5 212.699 290.2 213.499C288.7 214.299 287.2 214.699 285.5 214.699Z" fill="#0184EA"/>
<path d="M359.4 183.1C356.6 180 339.8 174.5 319.2 189C299.7 202.7 298.1 232.9 301.4 237.2C304.7 241.5 327.4 247.3 348.1 226.1C366.5 207.2 362.3 186.2 359.4 183.1Z" fill="#0184EA"/>
<path d="M342.698 183.899L357.698 199.399L356.498 205.599L336.098 185.199L342.698 183.899Z" fill="#F4F3F3"/>
<path d="M305.2 215L325.8 235.5L319.8 237L304 220.8L305.2 215Z" fill="#F4F3F3"/>
<path d="M342.297 204.899L340.897 206.299C340.597 206.599 339.997 206.599 339.697 206.299L337.497 204.199L335.097 206.899L337.397 209.199C337.697 209.499 337.697 210.099 337.397 210.399L335.997 211.799C335.697 212.099 335.097 212.099 334.797 211.799L332.597 209.699L329.897 212.599L332.197 214.899C332.497 215.199 332.497 215.799 332.197 216.099L330.797 217.499C330.497 217.799 329.897 217.799 329.597 217.499L327.397 215.399L324.797 218.199L327.097 220.499C327.397 220.799 327.397 221.399 327.097 221.699L325.697 223.099C325.397 223.399 324.797 223.399 324.497 223.099L322.297 220.899L320.497 222.899C320.297 223.099 319.997 223.099 319.797 222.899L317.897 221.099C317.697 220.899 317.697 220.599 317.897 220.399L319.797 218.299L317.897 216.399C317.597 216.099 317.597 215.499 317.897 215.199L319.297 213.799C319.597 213.499 320.197 213.499 320.497 213.799L322.297 215.599L324.897 212.799L322.997 210.899C322.697 210.599 322.697 209.999 322.997 209.699L324.397 208.299C324.697 207.999 325.297 207.999 325.597 208.299L327.397 210.099L330.097 207.199L328.197 205.299C327.897 204.999 327.897 204.399 328.197 204.099L329.597 202.699C329.897 202.399 330.497 202.399 330.797 202.699L332.597 204.499L334.997 201.799L333.097 199.899C332.797 199.599 332.797 198.999 333.097 198.699L334.497 197.299C334.797 196.999 335.397 196.999 335.697 197.299L337.497 199.099L339.297 197.099C339.497 196.899 339.797 196.899 339.997 197.099L341.897 198.899C342.097 199.099 342.097 199.399 341.897 199.599L339.997 201.699L342.297 203.999C342.597 204.099 342.597 204.599 342.297 204.899Z" fill="#F4F3F3"/>
<path d="M252.497 152.499C252.497 152.499 247.797 169.899 255.697 179.499C263.497 189.099 274.197 180.499 274.197 180.499L289.897 153.499L285.397 150.699L280.997 156.499L259.997 156.099L252.497 152.499Z" fill="white"/>
<text fill="#10B981" xml:space="preserve" style="white-space: pre" font-family="Bebas Neue" font-size="135" letter-spacing="0em"><tspan x="111.021" y="410.865">THE MATH OF SPEED</tspan></text>
<text fill="#0184EA" xml:space="preserve" style="white-space: pre" font-family="Bebas Neue" font-size="70" letter-spacing="0em"><tspan x="68.4844" y="496.359">AVERAGE SQUARETRIVIA CONTEST WINNER:</tspan></text>
<path d="M908.852 1093H114.352C106.052 1093 99.3516 1086.3 99.3516 1078V572C99.3516 563.7 106.052 557 114.352 557H908.852C917.152 557 923.852 563.7 923.852 572V1078C923.852 1086.3 917.152 1093 908.852 1093Z" fill="white"/>
<path d="M909.052 1093H114.152C105.952 1093 99.3516 1086.4 99.3516 1078.2V858.8C99.3516 850.6 105.952 844 114.152 844H909.052C917.252 844 923.852 850.6 923.852 858.8V1078.1C923.852 1086.4 917.252 1093 909.052 1093Z" fill="#10B981"/>
<text fill="#FEFFFF" xml:space="preserve" style="white-space: pre" font-family="Inter" font-size="43" font-weight="bold" letter-spacing="0em"><tspan x="227.213" y="918.42">THAT&#39;S $ 140 PER SECOND</tspan></text>
<text fill="#FEFFFF" xml:space="preserve" style="white-space: pre" font-family="Inter" font-size="43" font-weight="bold" letter-spacing="0em"><tspan x="350.817" y="988.136">OF GAMEPLAY.</tspan></text>
<text fill="#FEFFFF" xml:space="preserve" style="white-space: pre" font-family="Inter" font-size="36" font-weight="bold" letter-spacing="0em"><tspan x="238.125" y="1051.31">ALL SKILL. ALL VERIFIED DATA.</tspan></text>
<text fill="#10B981" xml:space="preserve" style="white-space: pre" font-family="Bebas Neue" font-size="80" font-weight="bold" letter-spacing="0.23em"><tspan x="85.0016" y="1248.13">Speed Wins. Always.</tspan></text>
<text fill="#0184EA" xml:space="preserve" style="white-space: pre" font-family="Inter" font-size="29" letter-spacing="0em"><tspan x="595.102" y="825.869"> in 3.2 seconds</tspan></text>
<text fill="#10B981" xml:space="preserve" style="white-space: pre" font-family="Poppins" font-size="225" font-weight="bold" letter-spacing="0em"><tspan x="220.102" y="790.75">$450</tspan></text>
</g>
<defs>
<clipPath id="clip0_35_12011">
<rect width="1024" height="1536" fill="white"/>
</clipPath>
</defs>
</svg>
