<svg width="1080" height="1536" viewBox="0 0 1080 1536" fill="none" xmlns="http://www.w3.org/2000/svg">
    <g clip-path="url(#clip0_35_11391)">
        <path d="M1079.6 0H-0.400391V1536H1079.6V0Z" fill="#F3FEFD" />
        <path
            d="M480.401 157.7C480.201 157.5 479.401 157 478.201 156.2C476.701 155.3 475.101 154.5 473.501 153.8C471.501 152.9 469.501 152.2 467.401 151.7C465.201 151.1 463.001 150.8 460.701 150.8C457.801 150.8 455.501 151.3 453.901 152.4C452.301 153.4 451.501 154.9 451.501 156.9C451.501 158.5 452.101 159.8 453.301 160.8C454.501 161.8 456.301 162.7 458.601 163.4C460.901 164.1 463.701 164.9 467.101 165.8C471.801 167.1 476.001 168.6 479.401 170.4C482.901 172.2 485.501 174.4 487.401 177.1C489.201 179.8 490.201 183.5 490.201 188C490.201 192 489.401 195.5 488.001 198.4C486.601 201.3 484.401 203.6 481.701 205.4C479.001 207.2 476.001 208.4 472.701 209.2C469.301 210 465.901 210.4 462.401 210.4C458.701 210.4 454.901 210 451.301 209.3C447.601 208.6 443.901 207.5 440.401 206.1C437.101 204.8 433.901 203.2 430.801 201.4L438.201 186.6C438.601 187 439.501 187.7 441.001 188.6C442.501 189.5 444.401 190.4 446.701 191.4C449.201 192.5 451.701 193.4 454.301 194.1C457.001 194.9 459.801 195.3 462.701 195.3C465.801 195.3 468.201 194.8 469.601 193.8C471.001 192.8 471.801 191.5 471.801 189.7C471.801 187.9 471.001 186.5 469.501 185.4C467.901 184.3 465.801 183.4 463.101 182.5C460.401 181.6 457.301 180.7 453.901 179.8C449.401 178.4 445.601 176.8 442.701 175.1C439.801 173.4 437.601 171.3 436.101 168.9C434.701 166.4 434.001 163.4 434.001 159.8C434.001 154.6 435.201 150.2 437.701 146.7C440.201 143.2 443.501 140.5 447.701 138.7C451.901 136.9 456.401 136 461.401 136C464.801 136 468.201 136.4 471.501 137.2C474.601 138 477.601 139 480.601 140.3C483.501 141.5 485.901 142.8 488.001 144.1L480.401 157.7Z"
            fill="#0184EA" />
        <path
            d="M532.5 209.9C527.1 209.9 522.1 208.9 517.6 206.8C513.1 204.7 509.2 202 506 198.4C502.8 194.9 500.2 190.9 498.5 186.5C496.8 182.1 495.9 177.5 495.9 172.8C495.9 168 496.8 163.3 498.7 158.9C500.5 154.5 503.1 150.5 506.4 147.1C509.7 143.7 513.6 141 518.2 138.9C522.8 136.8 527.7 135.9 533 135.9C538.5 135.9 543.5 137 548 139.1C552.5 141.2 556.3 144.1 559.6 147.6C562.8 151.1 565.3 155.2 567.1 159.6C568.8 164 569.7 168.5 569.7 173.1C569.7 177.9 568.8 182.6 567 187C563.3 195.9 556.3 203.1 547.5 206.9C542.9 208.9 538 209.9 532.5 209.9ZM532.9 194.9C536.1 194.9 538.9 194.3 541.4 193C543.8 191.8 545.9 190.1 547.5 187.9C549.1 185.7 550.3 183.4 551.1 180.8C551.9 178.2 552.3 175.5 552.3 172.8C552.3 170 551.9 167.3 551 164.6C550.2 162 548.9 159.7 547.2 157.6C545.5 155.5 543.5 153.9 541.1 152.7C538.7 151.5 535.9 150.9 532.9 150.9C529.6 150.9 526.8 151.5 524.3 152.8C521.9 154 519.9 155.8 518.2 157.9C516.6 160 515.4 162.4 514.6 164.9C513.8 167.5 513.3 170.2 513.4 173C513.4 175.8 513.8 178.5 514.7 181.1C515.5 183.7 516.8 186 518.5 188.1C520.1 190.2 522.2 191.9 524.6 193C526.7 194.3 529.6 194.9 532.9 194.9ZM528.1 180.6H544.2L570.7 209.4H554.5L528.1 180.6Z"
            fill="#0184EA" />
        <path
            d="M611.402 210C605.502 210 600.402 209 596.302 207.1C592.102 205.1 588.702 202.5 586.102 199C583.502 195.6 581.602 191.7 580.402 187.3C579.202 182.9 578.602 178.3 578.602 173.7V136.4H595.702V173.7C595.702 176.4 596.002 179.1 596.502 181.7C597.002 184.2 597.902 186.5 599.202 188.4C600.402 190.3 602.102 192 604.102 193.1C606.102 194.3 608.602 194.9 611.502 194.9C614.402 194.9 616.902 194.3 618.902 193.1C620.902 191.9 622.602 190.3 623.702 188.3C624.902 186.2 625.902 183.8 626.402 181.4C627.002 178.8 627.302 176.2 627.302 173.6V136.3H644.302V173.6C644.302 178.7 643.702 183.4 642.402 187.7C641.102 192 639.102 195.9 636.502 199.3C633.902 202.7 630.502 205.3 626.302 207.1C622.102 209.1 617.202 210 611.402 210Z"
            fill="#0184EA" />
        <path
            d="M673.101 136.4H691.501L717.201 209.4H699.701L694.001 193.1H670.801L665.201 209.4H647.701L673.101 136.4ZM690.901 181.6L682.401 153.4L673.401 181.6H690.901Z"
            fill="#0184EA" />
        <path
            d="M724.4 209.4V136.4H757.7C761.2 136.4 764.5 137.1 767.5 138.6C770.5 140.1 773.1 141.9 775.2 144.2C777.3 146.5 779 149.2 780.2 152.1C781.4 155 782 158 782 161.2C782 164.1 781.5 167 780.5 169.7C779.5 172.4 778.1 174.8 776.3 177C774.5 179.1 772.3 180.9 769.9 182.2L786.2 209.3H767.3L753.1 185.9H741.5V209.4H724.4ZM741.5 171.1H757.3C758.6 171.1 759.9 170.7 760.9 169.9C762 169.1 762.9 167.9 763.6 166.4C764.3 164.9 764.6 163.2 764.6 161.3C764.6 159.2 764.2 157.5 763.4 156C762.6 154.5 761.6 153.4 760.4 152.6C759.2 151.8 757.9 151.4 756.7 151.4H741.6L741.5 171.1Z"
            fill="#0184EA" />
        <path d="M846.401 194.6V209.4H794.301V136.4H845.501V151.2H811.501V165.4H840.701V179.1H811.501V194.6H846.401Z"
            fill="#0184EA" />
        <path d="M479.2 237.6H463.3V277.1H451.3V237.6H435.4V227.5H479.3L479.2 237.6Z" fill="#0184EA" />
        <path
            d="M503.4 277.1V227.5H526.8C529.3 227.5 531.6 228 533.7 229C535.7 229.9 537.6 231.2 539.1 232.8C540.6 234.4 541.8 236.2 542.6 238.2C543.4 240.1 543.9 242.2 543.9 244.3C543.9 248.2 542.5 252.1 539.9 255.1C538.6 256.5 537.1 257.7 535.4 258.7L546.9 277.1H533.6L523.6 261.1H515.4V277.1H503.4ZM515.5 251.1H526.6C527.5 251.1 528.4 250.8 529.1 250.3C529.9 249.7 530.5 248.9 531 247.9C531.5 246.9 531.7 245.7 531.7 244.4C531.7 243 531.4 241.8 530.9 240.8C530.4 239.8 529.6 239 528.8 238.5C527.9 237.9 527.1 237.7 526.2 237.7H515.5V251.1Z"
            fill="#0184EA" />
        <path d="M571 277.1V227.5H583V277.1H571Z" fill="#0184EA" />
        <path d="M618.901 227.5L631.201 263.7L643.301 227.6H656.101L637.101 277.1H625.301L606.201 227.5H618.901Z"
            fill="#0184EA" />
        <path d="M679.301 277.1V227.5H691.301V277.1H679.301Z" fill="#0184EA" />
        <path
            d="M732.9 227.5H745.8L763.9 277.1H751.6L748.1 266H730.9L727.3 277.1H715L732.9 227.5ZM745.5 258.2L739.4 239.1L733.3 258.2H745.5Z"
            fill="#0184EA" />
        <path
            d="M260.001 123.5H382.301C397.301 123.5 409.501 135.7 409.501 150.7V262.3C409.501 277.3 397.301 289.5 382.301 289.5H260.001C245.001 289.5 232.801 277.3 232.801 262.3V150.7C232.901 135.7 245.001 123.5 260.001 123.5Z"
            fill="white" stroke="#0184EA" stroke-width="7.9117" stroke-miterlimit="10" />
        <path d="M407.102 202.4H235.102V210.4H407.102V202.4Z" fill="#0184EA" />
        <path d="M325.201 126.4H317.201V286.6H325.201V126.4Z" fill="#0184EA" />
        <path
            d="M304.8 137.9C302 134.8 285.7 129.5 265.7 143.6C246.8 156.9 245.2 186.2 248.4 190.4C251.5 194.6 273.6 200.2 293.8 179.6C311.7 161.4 307.6 141 304.8 137.9Z"
            fill="#0184EA" />
        <path d="M288.602 138.8L303.102 153.8L302.002 159.9L282.102 140L288.602 138.8Z" fill="#F4F3F3" />
        <path d="M252.2 169L272.1 188.9L266.3 190.4L251 174.6L252.2 169Z" fill="#F4F3F3" />
        <path
            d="M288.101 159.2L286.701 160.6C286.401 160.9 285.901 160.9 285.501 160.6L283.401 158.5L281.001 161.1L283.201 163.3C283.501 163.6 283.501 164.1 283.201 164.4L281.801 165.8C281.501 166.1 281.001 166.1 280.601 165.8L278.501 163.7L275.901 166.5L278.101 168.7C278.401 169 278.401 169.5 278.101 169.9L276.701 171.3C276.401 171.6 275.901 171.6 275.601 171.3L273.501 169.2L271.001 172L273.201 174.2C273.501 174.5 273.501 175 273.201 175.3L271.801 176.7C271.501 177 271.001 177 270.701 176.7L268.601 174.6L266.901 176.5C266.701 176.7 266.401 176.7 266.201 176.5L264.301 174.8C264.101 174.6 264.101 174.3 264.301 174.1L266.101 172.1L264.301 170.3C264.001 170 264.001 169.5 264.301 169.2L265.701 167.8C266.001 167.5 266.501 167.5 266.801 167.8L268.501 169.5L271.001 166.8L269.201 165C268.901 164.7 268.901 164.2 269.201 163.9L270.601 162.5C270.901 162.2 271.401 162.2 271.701 162.5L273.401 164.2L276.001 161.4L274.201 159.6C273.901 159.3 273.901 158.8 274.201 158.4L275.601 157C275.901 156.7 276.401 156.7 276.701 157L278.401 158.7L280.801 156.1L279.001 154.3C278.701 154 278.701 153.5 279.001 153.1L280.401 151.7C280.701 151.4 281.201 151.4 281.601 151.7L283.301 153.4L285.101 151.5C285.301 151.3 285.601 151.3 285.801 151.5L287.701 153.2C287.901 153.4 287.901 153.7 287.701 153.9L285.801 155.9L288.001 158.1C288.501 158.4 288.501 158.9 288.101 159.2Z"
            fill="#F4F3F3" />
        <path
            d="M277.702 221.7C279.402 221.7 281.002 221.9 282.602 222.2C285.402 222.8 288.102 223.8 290.502 225.2C298.002 229.6 302.702 237.6 302.902 246.3V246.4V246.5C302.902 246.6 302.902 246.8 302.902 247C302.902 252.6 301.102 257.9 297.702 262.3C295.402 265.3 292.502 267.7 289.202 269.4C285.802 271.2 282.002 272.1 278.102 272.2H278.002C277.902 272.2 277.802 272.2 277.602 272.2C263.702 272.2 252.302 260.9 252.302 247C252.302 246.6 252.302 246.2 252.302 245.8C252.602 238.9 255.802 232.5 261.002 228C265.702 223.9 271.602 221.7 277.702 221.7ZM277.702 216.9C261.702 216.9 248.402 229.5 247.602 245.5C247.602 246 247.602 246.5 247.602 247C247.602 263.6 261.102 277.1 277.702 277.1C277.902 277.1 278.102 277.1 278.302 277.1C294.702 276.7 307.802 263.4 307.802 247C307.802 246.8 307.802 246.5 307.802 246.3C307.502 232 297.202 220.2 283.602 217.5C281.602 217.1 279.602 216.9 277.702 216.9Z"
            fill="#0184EA" />
        <path
            d="M258.902 230.1C266.602 233.9 273.702 238.7 279.902 244.6C286.102 250.5 291.502 257.3 295.802 264.7C293.902 266.6 291.702 268.3 289.302 269.5C285.902 271.3 282.102 272.2 278.202 272.3H278.102H278.002C277.902 272.3 277.802 272.3 277.602 272.3C263.702 272.3 252.302 261 252.302 247.1C252.302 246.7 252.302 246.3 252.302 245.9C252.702 239.9 255.002 234.4 258.902 230.1ZM257.902 224.3C251.702 229.7 248.002 237.3 247.602 245.5C247.602 246 247.602 246.5 247.602 247C247.602 263.6 261.102 277.1 277.702 277.1C277.902 277.1 278.102 277.1 278.302 277.1C287.402 276.9 296.002 272.6 301.602 265.3C292.002 247.1 276.702 232.6 257.902 224.3Z"
            fill="#0184EA" />
        <path
            d="M295.602 246.9C297.902 246.9 300.402 247.6 302.902 249C302.002 260.4 293.602 269.8 282.402 271.9C281.802 266.5 282.302 261.3 283.802 257C284.702 254.5 285.802 252.4 287.302 250.8C288.702 249.2 290.302 248.1 292.102 247.5C293.102 247.1 294.302 246.9 295.602 246.9ZM295.602 242.1C293.802 242.1 292.102 242.4 290.502 243C279.902 246.7 275.102 261.2 278.402 277.1C294.702 276.8 307.802 263.4 307.802 247C307.802 246.8 307.802 246.5 307.802 246.3C303.802 243.6 299.602 242.1 295.602 242.1Z"
            fill="#0184EA" />
        <path
            d="M277.702 221.7C278.102 221.7 278.602 221.7 279.002 221.7C279.002 223.3 278.902 224.9 278.702 226.4C278.402 228.9 277.702 231.4 276.702 233.7C274.702 238.1 271.702 241.3 267.802 243C265.702 243.9 263.402 244.4 261.002 244.4C258.302 244.4 255.502 243.8 252.702 242.6C254.902 230.6 265.402 221.8 277.702 221.7ZM277.702 216.9C261.602 216.9 248.402 229.6 247.602 245.5C251.902 248 256.602 249.3 261.102 249.3C264.102 249.3 267.102 248.7 269.802 247.5C280.002 242.9 285.102 230.8 283.502 217.5C281.602 217.1 279.602 216.9 277.702 216.9Z"
            fill="#0184EA" />
        <path d="M296.301 229.6L260.201 265.7" stroke="#0184EA" stroke-width="4.8117" stroke-miterlimit="10" />
        <path
            d="M364.5 139.9C366.2 139.9 367.8 140.1 369.4 140.4C372.2 141 374.9 142 377.3 143.4C384.8 147.8 389.5 155.8 389.7 164.5V164.6V164.7C389.7 164.8 389.7 165 389.7 165.2C389.7 170.8 387.9 176.1 384.5 180.5C382.2 183.5 379.3 185.9 376 187.6C372.6 189.4 368.8 190.3 364.9 190.4H364.8H364.7C364.6 190.4 364.5 190.4 364.3 190.4C350.4 190.4 339 179.1 339 165.2C339 165.2 339 165.2 339 165.1C339 164.7 339 164.3 339 163.9C339.3 157 342.5 150.6 347.7 146.1C352.5 142.1 358.4 139.9 364.5 139.9ZM364.5 135.1C348.5 135.1 335.2 147.7 334.5 163.7C334.5 164.2 334.5 164.7 334.5 165.2C334.5 181.8 348 195.3 364.6 195.3C364.8 195.3 365 195.3 365.2 195.3C381.6 194.9 394.6 181.6 394.6 165.2C394.6 165 394.6 164.7 394.6 164.5C394.3 150.2 384 138.4 370.4 135.7C368.5 135.2 366.5 135.1 364.5 135.1Z"
            fill="#0184EA" />
        <path
            d="M345.8 148.2C353.5 152 360.6 156.8 366.8 162.7C373 168.6 378.4 175.3 382.7 182.8C380.8 184.7 378.6 186.4 376.2 187.6C372.8 189.4 369 190.3 365.1 190.4H365H364.9C364.8 190.4 364.7 190.4 364.5 190.4C350.6 190.4 339.2 179.1 339.2 165.2C339.2 165.2 339.2 165.2 339.2 165.1C339.2 164.7 339.2 164.3 339.2 163.9C339.6 158.1 341.9 152.5 345.8 148.2ZM344.8 142.4C338.6 147.8 334.9 155.4 334.5 163.6C334.5 164.1 334.5 164.6 334.5 165.1C334.5 181.7 348 195.2 364.6 195.2C364.8 195.2 365 195.2 365.2 195.2C374.3 195 382.9 190.7 388.5 183.4C378.9 165.3 363.5 150.7 344.8 142.4Z"
            fill="#0184EA" />
        <path
            d="M382.401 165C384.701 165 387.201 165.7 389.701 167.1C388.801 178.5 380.401 187.9 369.201 190C368.601 184.6 369.101 179.4 370.601 175.1C371.501 172.6 372.601 170.5 374.101 168.9C375.501 167.3 377.101 166.2 378.901 165.6C380.001 165.2 381.201 165 382.401 165ZM382.401 160.2C380.601 160.2 378.901 160.5 377.301 161.1C366.701 164.8 361.901 179.3 365.201 195.2C381.501 194.9 394.601 181.5 394.601 165.1C394.601 164.9 394.601 164.6 394.601 164.4C390.701 161.7 386.501 160.2 382.401 160.2Z"
            fill="#0184EA" />
        <path
            d="M364.5 139.9C364.9 139.9 365.4 139.9 365.8 139.9C365.8 141.5 365.7 143.1 365.5 144.6C365.2 147.1 364.5 149.6 363.5 151.9C361.5 156.3 358.5 159.5 354.6 161.2C352.5 162.1 350.2 162.6 347.8 162.6C345.1 162.6 342.3 162 339.5 160.8C341.7 148.7 352.2 139.9 364.5 139.9ZM364.5 135.1C348.4 135.1 335.2 147.8 334.5 163.7C338.8 166.2 343.5 167.5 348 167.5C351 167.5 354 166.9 356.7 165.7C366.9 161.1 372 149 370.4 135.7C368.5 135.2 366.5 135.1 364.5 135.1Z"
            fill="#0184EA" />
        <path d="M383.202 147.8L347.102 183.9" stroke="#0184EA" stroke-width="4.8117" stroke-miterlimit="10" />
        <path
            d="M320.6 260C317.4 260 314.2 259.2 311.4 257.6C308.5 256 306.2 253.6 304.6 250.8C303 248 302.2 244.8 302.2 241.6C302.2 237.9 303.1 234.6 305 231.7V220.6C305 217.5 305.5 214.6 306.4 212C307.3 209.3 308.9 206.7 310.9 204.3C311.3 203.8 311.8 203.3 312.3 202.8H286.9V193C286.9 187.1 288.4 181.6 291.3 176.7C294.2 171.9 298.3 168 303.5 165.3C308.5 162.6 314.3 161.2 320.7 161.2C327.3 161.2 333.1 162.5 338.1 165C343.3 167.6 347.4 171.4 350.2 176.1C353.1 180.8 354.5 186.1 354.5 191.8C354.5 195.9 353.8 199.7 352.3 203.1C350.9 206.3 349.1 209.3 346.8 211.9C344.7 214.3 342.4 216.6 340 218.7C338.6 219.9 337.5 220.9 336.7 221.8C336.5 222 336.4 222.1 336.3 222.2V231.4C338.1 234.3 339.1 237.6 339.1 241.3C339.1 244.5 338.3 247.7 336.7 250.5C335.1 253.3 332.8 255.6 330.1 257.3C327.1 259.1 324 260 320.6 260ZM320.6 191.1C319.6 191.1 318.9 191.2 318.6 191.5C318.3 191.8 318.3 192.7 318.3 193.1V197C320.1 195.4 321.4 193.9 322.4 192.6C322.7 192.2 322.8 192 322.8 192C322.8 191.9 322.8 191.8 322.8 191.7C322.8 191.7 322.8 191.6 322.6 191.5C322.5 191.3 321.7 191.1 320.6 191.1Z"
            fill="#F3F3F3" />
        <path
            d="M313.802 224.9V221C313.802 218.9 314.102 217.1 314.602 215.6C315.102 214.1 316.102 212.5 317.402 210.9C318.702 209.3 320.502 207.6 322.802 205.7C325.602 203.3 327.802 201 329.302 199C330.902 196.9 331.702 194.8 331.702 192.5C331.702 189.6 330.602 187.1 328.502 185.1C326.402 183.1 323.502 182.1 319.802 182.1C316.102 182.1 313.202 183.1 311.102 185.2C309.002 187.3 307.902 190.1 307.902 193.6H295.602C295.602 189.4 296.602 185.7 298.602 182.3C300.602 179 303.402 176.3 307.102 174.4C310.702 172.5 315.002 171.5 319.802 171.5C324.902 171.5 329.202 172.4 332.802 174.3C336.402 176.2 339.202 178.6 341.102 181.8C343.002 185 344.002 188.6 344.002 192.5C344.002 195.3 343.502 197.8 342.602 200.1C341.602 202.4 340.302 204.5 338.702 206.4C336.902 208.5 335.002 210.4 332.902 212.2C331.302 213.6 330.002 214.8 328.902 215.9C327.802 217 327.102 218 326.602 219C326.102 220 325.802 221.3 325.802 222.7V224.9H313.802ZM319.902 250.9C318.302 250.9 316.802 250.5 315.402 249.7C314.102 248.9 313.002 247.8 312.202 246.5C311.402 245.1 311.002 243.6 311.002 242C311.002 239.4 311.802 237.3 313.502 235.7C315.202 234.1 317.302 233.2 319.802 233.2C322.302 233.2 324.402 234 326.102 235.7C327.802 237.3 328.602 239.5 328.602 242C328.602 243.6 328.202 245.1 327.402 246.4C326.702 247.7 325.602 248.8 324.302 249.6C323.102 250.5 321.602 250.9 319.902 250.9Z"
            fill="#0184EA" />
        <path
            d="M391.8 220.2C389 217.1 372.7 211.8 352.7 225.9C333.8 239.2 332.2 268.501 335.4 272.701C338.6 276.901 360.6 282.5 380.8 261.9C398.7 243.6 394.5 223.2 391.8 220.2Z"
            fill="#0184EA" />
        <path d="M375.502 221L390.102 236L389.002 242.1L369.102 222.2L375.502 221Z" fill="#F4F3F3" />
        <path d="M339.1 251.2L359.1 271.2L353.2 272.6L337.9 256.9L339.1 251.2Z" fill="#F4F3F3" />
        <path
            d="M375.101 241.4L373.701 242.8C373.401 243.1 372.901 243.1 372.501 242.8L370.401 240.7L368.001 243.3L370.201 245.5C370.501 245.8 370.501 246.3 370.201 246.6L368.801 248C368.501 248.3 368.001 248.3 367.601 248L365.501 245.9L362.901 248.7L365.101 250.9C365.401 251.2 365.401 251.7 365.101 252.1L363.701 253.5C363.401 253.8 362.901 253.8 362.601 253.5L360.501 251.4L358.001 254.2L360.201 256.4C360.501 256.7 360.501 257.2 360.201 257.5L358.801 258.9C358.501 259.2 358.001 259.2 357.701 258.9L355.601 256.8L353.901 258.7C353.701 258.9 353.401 258.9 353.201 258.7L351.301 257C351.101 256.8 351.101 256.5 351.301 256.3L353.101 254.3L351.301 252.5C351.001 252.2 351.001 251.7 351.301 251.4L352.701 250C353.001 249.7 353.501 249.7 353.801 250L355.501 251.7L358.001 248.9L356.201 247.1C355.901 246.8 355.901 246.3 356.201 246L357.601 244.6C357.901 244.3 358.401 244.3 358.701 244.6L360.401 246.3L363.001 243.5L361.201 241.7C360.901 241.4 360.901 240.9 361.201 240.5L362.601 239.1C362.901 238.8 363.401 238.8 363.701 239.1L365.401 240.8L367.801 238.2L366.001 236.4C365.701 236.1 365.701 235.6 366.001 235.2L367.401 233.8C367.701 233.5 368.201 233.5 368.601 233.8L370.301 235.5L372.101 233.6C372.301 233.4 372.601 233.4 372.801 233.6L374.701 235.3C374.901 235.5 374.901 235.8 374.701 236L372.801 238L375.001 240.2C375.401 240.6 375.401 241.1 375.101 241.4Z"
            fill="#F4F3F3" />
        <path
            d="M287.799 190.5C287.799 190.5 283.299 207.4 290.899 216.7C298.499 226 308.899 217.7 308.899 217.7L324.099 191.5L319.699 188.7L315.399 194.3L295.099 194L287.799 190.5Z"
            fill="white" />
        <path
            d="M1012.15 1320H67.0484C62.1484 1320 58.1484 1316 58.1484 1311.1V675.9C58.1484 671 62.1484 667 67.0484 667H1012.15C1017.05 667 1021.05 671 1021.05 675.9V1311.2C1020.95 1316 1017.05 1320 1012.15 1320Z"
            fill="#FEFEFE" />
        <text fill="#10B981" xml:space="preserve" style="white-space: pre" font-family="Bebas Neue" font-size="135"
            letter-spacing="0em">
            <tspan x="236.448" y="410.865">INSANE FINISH!</tspan>
        </text>
        <text fill="#0184EA" xml:space="preserve" style="white-space: pre" font-family="Bebas Neue" font-size="70"
            letter-spacing="0em">
            <tspan x="103.56" y="496.359">{winner} beats {losser} by just {diff} seconds!</tspan>
        </text>
        <text fill="#10B981" xml:space="preserve" style="white-space: pre" font-family="Inter" font-size="65"
            letter-spacing="0em">
            <tspan x="196.523" y="935.617">{HTeam} </tspan>
        </text>
        <text fill="#0184EA" xml:space="preserve" style="white-space: pre" font-family="Inter" font-size="65"
            letter-spacing="0em">
            <tspan x="196.523" y="1037.23">Winner</tspan>
        </text>
        <text fill="#10B981" xml:space="preserve" style="white-space: pre" font-family="Inter" font-size="65"
            letter-spacing="0em">
            <tspan x="196.523" y="1116.23">Runner-up</tspan>
        </text>
        <text fill="#0287E6" xml:space="preserve" style="white-space: pre" font-family="Inter" font-size="65"
            letter-spacing="0em">
            <tspan x="637.674" y="935.617">{ATeam} </tspan>
        </text>
        <text fill="#10B981" xml:space="preserve" style="white-space: pre" font-family="Inter" font-size="65"
            letter-spacing="0em">
            <tspan x="637.674" y="1037.23">: {wTime}s </tspan>
        </text>
        <text fill="#0184EA" xml:space="preserve" style="white-space: pre" font-family="Inter" font-size="65"
            letter-spacing="0em">
            <tspan x="637.674" y="1116.23">: {lTime}s</tspan>
        </text>
        <text fill="#0184EA" xml:space="preserve" style="white-space: pre" font-family="Bebas Neue" font-size="80"
            font-weight="bold" letter-spacing="0.23em">
            <tspan x="113.002" y="1490">Speed Wins. Always.</tspan>
        </text>
    </g>
    <defs>
        <clipPath id="clip0_35_11391">
            <rect width="1080" height="1536" fill="white" />
        </clipPath>
    </defs>
</svg>