<svg width="1080" height="1536" viewBox="0 0 1080 1536" fill="none" xmlns="http://www.w3.org/2000/svg">
<g clip-path="url(#clip0_35_12257)">
<path d="M1080 0.0996094H0V1536H1080V0.0996094Z" fill="#F3FEFD"/>
<path d="M489.398 87.3998C489.198 87.1998 488.598 86.7998 487.498 86.0998C486.198 85.2998 484.898 84.5998 483.498 83.9998C481.798 83.2998 480.098 82.6998 478.298 82.1998C476.398 81.6998 474.498 81.4998 472.598 81.4998C470.098 81.4998 468.198 81.8998 466.798 82.7998C465.398 83.6998 464.698 84.9998 464.698 86.6998C464.698 87.9998 465.198 89.0998 466.298 89.9998C467.298 90.7998 468.798 91.5998 470.798 92.1998C472.798 92.7998 475.198 93.4998 477.998 94.2998C482.098 95.3998 485.598 96.6998 488.498 98.1998C491.498 99.6998 493.698 101.6 495.298 104C496.898 106.3 497.698 109.4 497.698 113.3C497.698 116.8 497.098 119.7 495.798 122.2C494.498 124.7 492.698 126.7 490.398 128.2C488.098 129.7 485.598 130.8 482.698 131.4C479.798 132.1 476.898 132.4 473.898 132.4C470.698 132.4 467.498 132.1 464.398 131.4C461.198 130.8 458.098 129.9 455.098 128.7C452.298 127.6 449.498 126.2 446.898 124.7L453.198 112C453.498 112.3 454.298 112.9 455.598 113.7C456.898 114.5 458.498 115.3 460.498 116.1C462.598 117 464.798 117.8 466.998 118.4C469.298 119.1 471.698 119.4 474.098 119.4C476.798 119.4 478.798 119 479.998 118.1C481.298 117.3 481.898 116.1 481.898 114.6C481.898 113.1 481.198 111.9 479.898 111C478.598 110.1 476.798 109.3 474.498 108.5C472.198 107.8 469.598 107 466.598 106.2C462.698 105 459.498 103.6 456.998 102.2C454.498 100.8 452.598 98.9998 451.398 96.8998C450.198 94.7998 449.598 92.1998 449.598 89.0998C449.598 84.6998 450.698 80.8998 452.798 77.8998C454.898 74.8998 457.698 72.5998 461.298 71.0998C464.898 69.5998 468.798 68.7998 472.998 68.7998C475.898 68.7998 478.798 69.0998 481.598 69.8998C484.198 70.5998 486.798 71.4998 489.398 72.4998C491.798 73.4998 493.898 74.5998 495.698 75.6998L489.398 87.3998Z" fill="#0184EA"/>
<path d="M533.898 132C529.298 132 524.998 131.1 521.198 129.4C517.398 127.6 513.998 125.3 511.198 122.2C508.398 119.2 506.298 115.8 504.798 112C503.298 108.3 502.598 104.3 502.598 100.3C502.598 96.2002 503.398 92.2002 504.998 88.4002C506.498 84.7002 508.798 81.3002 511.598 78.3002C514.398 75.4002 517.798 73.0002 521.598 71.3002C525.498 69.6002 529.698 68.7002 534.298 68.7002C538.998 68.7002 543.298 69.6002 547.098 71.4002C550.898 73.2002 554.198 75.6002 556.998 78.7002C559.698 81.7002 561.898 85.2002 563.398 88.9002C564.898 92.7002 565.598 96.5002 565.598 100.4C565.598 104.5 564.798 108.5 563.298 112.3C560.198 119.9 554.198 126 546.698 129.3C542.798 131.2 538.598 132 533.898 132ZM534.198 119.2C536.898 119.2 539.298 118.7 541.398 117.6C543.398 116.6 545.198 115.1 546.598 113.3C547.998 111.5 548.998 109.4 549.698 107.2C550.398 105 550.698 102.7 550.698 100.4C550.698 98.0002 550.298 95.7002 549.598 93.4002C548.898 91.2002 547.798 89.2002 546.398 87.4002C544.998 85.6002 543.198 84.2002 541.198 83.2002C539.098 82.2002 536.798 81.7002 534.198 81.7002C531.398 81.7002 528.998 82.2002 526.898 83.3002C524.898 84.3002 523.098 85.8002 521.698 87.6002C520.298 89.4002 519.298 91.5002 518.598 93.6002C517.898 95.8002 517.498 98.1002 517.498 100.5C517.498 102.9 517.898 105.2 518.598 107.4C519.298 109.6 520.398 111.6 521.798 113.4C523.198 115.2 524.998 116.6 526.998 117.6C528.998 118.7 531.398 119.2 534.198 119.2ZM530.198 107H543.898L566.598 131.6H552.798L530.198 107Z" fill="#0184EA"/>
<path d="M601.299 132.1C596.199 132.1 591.899 131.3 588.399 129.6C584.899 127.9 581.899 125.6 579.699 122.7C577.499 119.8 575.799 116.4 574.799 112.7C573.799 108.9 573.199 105 573.199 101.1V69.2002H587.799V101.1C587.799 103.4 587.999 105.7 588.499 107.9C588.999 110.1 589.699 112 590.799 113.7C591.799 115.4 593.299 116.8 594.999 117.7C596.699 118.7 598.799 119.2 601.299 119.2C603.799 119.2 605.899 118.7 607.599 117.7C609.299 116.7 610.699 115.3 611.699 113.6C612.799 111.8 613.599 109.8 613.999 107.7C614.499 105.5 614.799 103.3 614.799 101V69.2002H629.299V101.1C629.299 105.4 628.799 109.5 627.599 113.2C626.499 116.9 624.799 120.2 622.599 123.1C620.299 126 617.399 128.2 613.899 129.8C610.499 131.3 606.199 132.1 601.299 132.1Z" fill="#0184EA"/>
<path d="M654.099 69.2002H669.799L691.699 131.5H676.699L671.799 117.5H651.999L647.199 131.5H632.199L654.099 69.2002ZM669.199 107.8L661.999 83.7002L654.299 107.8H669.199Z" fill="#0184EA"/>
<path d="M697.898 131.6V69.2002H726.398C729.398 69.2002 732.198 69.8002 734.798 71.0002C737.398 72.2002 739.498 73.8002 741.398 75.8002C743.198 77.8002 744.698 80.1002 745.698 82.6002C746.698 85.0002 747.298 87.7002 747.298 90.3002C747.298 92.8002 746.898 95.3002 745.998 97.6002C745.198 99.9002 743.898 102 742.398 103.8C740.898 105.6 738.998 107.1 736.998 108.3L750.898 131.5H734.698L722.598 111.4H712.698V131.5L697.898 131.6ZM712.498 98.8002H725.998C727.098 98.8002 728.198 98.4002 729.098 97.8002C729.998 97.1002 730.798 96.1002 731.398 94.8002C731.998 93.5002 732.298 92.0002 732.298 90.4002C732.298 88.6002 731.998 87.1002 731.298 85.9002C730.598 84.6002 729.798 83.7002 728.698 83.0002C727.698 82.3002 726.598 81.9002 725.498 82.0002H712.598L712.498 98.8002Z" fill="#0184EA"/>
<path d="M802.098 118.9V131.6H757.598V69.2002H801.298V81.8002H772.198V94.0002H797.198V105.7H772.198V119L802.098 118.9Z" fill="#0184EA"/>
<path d="M488.398 155.6H474.798V189.3H464.498V155.6H450.898V147H488.398V155.6Z" fill="#0184EA"/>
<path d="M509.098 189.4V147H529.098C531.198 147 533.198 147.4 534.998 148.3C536.698 149.1 538.298 150.2 539.598 151.6C540.898 152.9 541.898 154.5 542.598 156.2C543.298 157.9 543.698 159.6 543.698 161.4C543.698 164.8 542.498 168 540.198 170.6C539.098 171.8 537.798 172.9 536.398 173.6L546.198 189.3H534.798L526.298 175.6H519.298V189.3L509.098 189.4ZM519.398 167.1H528.898C529.698 167.1 530.398 166.9 531.098 166.4C531.698 165.9 532.298 165.2 532.698 164.4C533.098 163.5 533.298 162.5 533.298 161.4C533.298 160.2 533.098 159.2 532.598 158.3C532.098 157.4 531.498 156.8 530.798 156.3C530.098 155.8 529.298 155.6 528.598 155.6H519.498L519.398 167.1Z" fill="#0184EA"/>
<path d="M566.797 189.4V147H577.097V189.3L566.797 189.4Z" fill="#0184EA"/>
<path d="M607.797 147L618.297 177.9L628.697 147H639.597L623.397 189.3H613.297L596.797 147H607.797Z" fill="#0184EA"/>
<path d="M659.398 189.4V147H669.698V189.3L659.398 189.4Z" fill="#0184EA"/>
<path d="M705.099 147H716.099L731.499 189.3H720.999L717.999 179.8H703.299L700.299 189.3H689.699L705.099 147ZM715.899 173.2L710.699 156.9L705.499 173.2H715.899Z" fill="#0184EA"/>
<path d="M301.098 58.2002H405.598C418.398 58.2002 428.798 68.6002 428.798 81.4002V176.8C428.798 189.6 418.398 200 405.598 200H301.098C288.298 200 277.898 189.6 277.898 176.8V81.4002C277.898 68.6002 288.298 58.2002 301.098 58.2002Z" fill="white" stroke="#0184EA" stroke-width="6.7594" stroke-miterlimit="10"/>
<path d="M426.697 125.601H279.797V132.401H426.697V125.601Z" fill="#0184EA"/>
<path d="M356.8 60.6006H350V197.401H356.8V60.6006Z" fill="#0184EA"/>
<path d="M339.398 70.5006C336.998 67.9006 323.098 63.3006 305.998 75.4006C289.798 86.8006 288.498 111.801 291.198 115.401C293.898 119.001 312.698 123.801 329.998 106.201C345.298 90.5006 341.798 73.1006 339.398 70.5006Z" fill="#0184EA"/>
<path d="M325.5 71.2002L338 84.0002L337 89.2002L320 72.2002L325.5 71.2002Z" fill="#F4F3F3"/>
<path d="M294.398 97L311.498 114.1L306.498 115.3L293.398 101.8L294.398 97Z" fill="#F4F3F3"/>
<path d="M325.098 88.6006L323.898 89.8006C323.598 90.1006 323.198 90.1006 322.898 89.8006L321.098 88.0006L319.098 90.2006L320.998 92.1006C321.298 92.4006 321.298 92.8006 320.998 93.1006L319.798 94.3006C319.498 94.6006 319.098 94.6006 318.798 94.3006L316.998 92.5006L314.798 94.9006L316.698 96.8006C316.998 97.1006 316.998 97.5006 316.698 97.8006L315.498 99.0006C315.198 99.3006 314.798 99.3006 314.498 99.0006L312.698 97.2006L310.498 99.6006L312.398 101.501C312.698 101.801 312.698 102.201 312.398 102.501L311.198 103.701C310.898 104.001 310.498 104.001 310.198 103.701L308.398 101.901L306.898 103.501C306.698 103.701 306.498 103.701 306.298 103.501L304.698 102.001C304.498 101.801 304.498 101.601 304.698 101.401L306.298 99.7006L304.698 98.1006C304.398 97.8006 304.398 97.4006 304.698 97.1006L305.898 95.9006C306.198 95.6006 306.598 95.6006 306.898 95.9006L308.398 97.4006L310.598 95.1006L308.998 93.5006C308.698 93.2006 308.698 92.8006 308.998 92.5006L310.198 91.3006C310.498 91.0006 310.898 91.0006 311.198 91.3006L312.698 92.8006L314.898 90.4006L313.298 88.8006C312.998 88.5006 312.998 88.1006 313.298 87.8006L314.498 86.6006C314.798 86.3006 315.198 86.3006 315.498 86.6006L316.998 88.1006L318.998 85.9006L317.398 84.3006C317.098 84.0006 317.098 83.6006 317.398 83.3006L318.598 82.1006C318.898 81.8006 319.298 81.8006 319.598 82.1006L321.098 83.6006L322.598 82.0006C322.798 81.8006 322.998 81.8006 323.198 82.0006L324.798 83.5006C324.998 83.7006 324.998 83.9006 324.798 84.1006L323.198 85.8006L325.098 87.7006C325.398 87.9006 325.398 88.4006 325.098 88.6006Z" fill="#F4F3F3"/>
<path d="M316.2 142.1C317.6 142.1 319 142.2 320.4 142.5C322.8 143 325.1 143.8 327.2 145.1C333.6 148.9 337.6 155.7 337.8 163.2V163.3V163.4C337.8 163.5 337.8 163.6 337.8 163.8C337.8 168.5 336.3 173.1 333.4 176.9C331.5 179.4 329 181.5 326.2 183C323.3 184.5 320 185.3 316.7 185.4H316.6H316.5C316.4 185.4 316.3 185.4 316.2 185.4C304.3 185.4 294.6 175.8 294.6 163.8C294.6 163.4 294.6 163.1 294.6 162.8C294.9 156.9 297.6 151.4 302 147.6C306 144 311 142.1 316.2 142.1ZM316.2 138C302.5 138 291.2 148.8 290.5 162.4C290.5 162.8 290.5 163.2 290.5 163.7C290.5 177.9 302 189.4 316.2 189.4C316.4 189.4 316.6 189.4 316.7 189.4C330.7 189.1 341.9 177.7 341.9 163.7C341.9 163.5 341.9 163.3 341.9 163.1C341.6 150.9 332.8 140.8 321.2 138.5C319.6 138.1 317.9 138 316.2 138Z" fill="#0184EA"/>
<path d="M300.2 149.2C306.8 152.4 312.8 156.6 318.1 161.6C323.4 166.6 328 172.4 331.6 178.8C330 180.5 328.1 181.8 326.1 182.9C323.2 184.4 319.9 185.2 316.6 185.3H316.5H316.4C316.3 185.3 316.2 185.3 316.1 185.3C304.2 185.3 294.5 175.7 294.5 163.7C294.5 163.3 294.5 163 294.5 162.7C294.9 157.6 296.8 152.9 300.2 149.2ZM299.3 144.3C294 148.9 290.8 155.4 290.5 162.4C290.5 162.8 290.5 163.2 290.5 163.7C290.5 177.9 302 189.4 316.2 189.4C316.4 189.4 316.6 189.4 316.7 189.4C324.5 189.2 331.8 185.5 336.6 179.3C328.5 163.8 315.4 151.3 299.3 144.3Z" fill="#0184EA"/>
<path d="M331.499 163.6C333.499 163.6 335.599 164.2 337.799 165.4C336.999 175.1 329.899 183.2 320.299 185C319.799 180.4 320.199 176 321.499 172.3C322.199 170.2 323.199 168.4 324.499 167C325.699 165.7 327.099 164.7 328.599 164.2C329.399 163.8 330.399 163.6 331.499 163.6ZM331.499 159.5C329.999 159.5 328.499 159.7 327.099 160.2C318.099 163.3 313.999 175.7 316.799 189.4C330.799 189.1 341.999 177.7 341.999 163.7C341.999 163.5 341.999 163.3 341.999 163.1C338.499 160.8 334.899 159.5 331.499 159.5Z" fill="#0184EA"/>
<path d="M316.2 142.1C316.6 142.1 317 142.1 317.3 142.1C317.3 143.5 317.2 144.8 317.1 146.2C316.8 148.4 316.2 150.5 315.4 152.4C313.7 156.1 311.1 158.9 307.8 160.4C306 161.2 304 161.6 302 161.6C299.7 161.6 297.3 161.1 294.9 160C296.7 149.7 305.7 142.1 316.2 142.1ZM316.2 138C302.4 138 291.2 148.8 290.5 162.4C294.2 164.5 298.2 165.7 302 165.7C304.6 165.7 307.1 165.2 309.5 164.1C318.2 160.2 322.5 149.8 321.2 138.5C319.6 138.1 317.9 138 316.2 138Z" fill="#0184EA"/>
<path d="M332.097 148.8L301.297 179.7" stroke="#0184EA" stroke-width="4.1109" stroke-miterlimit="10"/>
<path d="M390.399 72.1C391.799 72.1 393.199 72.2 394.599 72.5C396.999 73 399.299 73.8 401.399 75.1C407.799 78.9 411.799 85.7 411.999 93.2V93.3C411.999 93.4 411.999 93.5 411.999 93.7C411.999 98.4 410.499 103 407.599 106.8C405.699 109.3 403.199 111.4 400.399 112.9C397.499 114.4 394.199 115.2 390.899 115.3H390.799H390.699C390.599 115.3 390.499 115.3 390.399 115.3C378.499 115.3 368.799 105.7 368.799 93.7C368.799 93.3 368.799 93 368.799 92.7C369.099 86.8 371.799 81.3 376.199 77.5C380.199 74 385.199 72.1 390.399 72.1ZM390.399 68C376.699 68 365.399 78.8 364.699 92.4C364.699 92.8 364.699 93.2 364.699 93.7C364.699 107.9 376.199 119.4 390.399 119.4C390.599 119.4 390.799 119.4 390.899 119.4C404.899 119.1 416.099 107.7 416.099 93.7C416.099 93.5 416.099 93.3 416.099 93.1C415.799 80.9 406.999 70.8 395.399 68.5C393.799 68.2 392.099 68 390.399 68Z" fill="#0184EA"/>
<path d="M374.399 79.2998C380.999 82.4998 386.999 86.6998 392.299 91.6998C397.599 96.6998 402.199 102.5 405.799 108.9C404.199 110.6 402.299 111.9 400.299 113C397.399 114.5 394.099 115.3 390.799 115.4H390.699H390.599C390.499 115.4 390.399 115.4 390.299 115.4C378.399 115.4 368.699 105.8 368.699 93.7998C368.699 93.3998 368.699 93.0998 368.699 92.7998C369.099 87.6998 370.999 82.8998 374.399 79.2998ZM373.499 74.2998C368.199 78.8998 364.999 85.3998 364.699 92.3998C364.699 92.7998 364.699 93.1998 364.699 93.6998C364.699 107.9 376.199 119.4 390.399 119.4C390.599 119.4 390.799 119.4 390.899 119.4C398.699 119.2 405.999 115.5 410.799 109.3C402.699 93.7998 389.599 81.3998 373.499 74.2998Z" fill="#0184EA"/>
<path d="M405.699 93.6C407.699 93.6 409.799 94.2 411.999 95.4C411.199 105.1 404.099 113.2 394.499 115C393.999 110.4 394.399 106 395.699 102.3C396.399 100.2 397.399 98.4 398.699 97C399.899 95.7 401.299 94.7 402.799 94.2C403.599 93.8 404.599 93.6 405.699 93.6ZM405.699 89.5C404.199 89.5 402.699 89.7 401.299 90.2C392.299 93.3 388.199 105.7 390.999 119.4C404.999 119.1 416.199 107.7 416.199 93.7C416.199 93.5 416.199 93.3 416.199 93.1C412.699 90.8 409.099 89.5 405.699 89.5Z" fill="#0184EA"/>
<path d="M390.399 72.1C390.799 72.1 391.199 72.1 391.499 72.1C391.499 73.5 391.399 74.8 391.299 76.2C390.999 78.4 390.399 80.5 389.599 82.4C387.899 86.1 385.299 88.9 381.999 90.4C380.199 91.2 378.199 91.6 376.199 91.6C373.899 91.6 371.499 91.1 369.099 90C370.899 79.7 379.899 72.1 390.399 72.1ZM390.399 68C376.599 68 365.399 78.8 364.699 92.4C368.399 94.5 372.399 95.7 376.199 95.7C378.799 95.7 381.299 95.2 383.699 94.1C392.399 90.2 396.699 79.8 395.399 68.5C393.799 68.2 392.099 68 390.399 68Z" fill="#0184EA"/>
<path d="M406.3 78.9004L375.5 109.7" stroke="#0184EA" stroke-width="4.1109" stroke-miterlimit="10"/>
<path d="M352.9 174.8C350.1 174.8 347.4 174.1 345 172.7C342.6 171.3 340.6 169.3 339.2 166.9C337.8 164.5 337.1 161.8 337.1 159C337.1 155.9 337.9 153 339.4 150.5V141C339.4 138.3 339.8 135.9 340.6 133.6C341.4 131.3 342.7 129.1 344.5 127C344.9 126.6 345.2 126.1 345.7 125.7H324V117.5C324 112.4 325.3 107.7 327.8 103.6C330.3 99.4998 333.8 96.1998 338.2 93.7998C342.5 91.4998 347.5 90.2998 352.9 90.2998C358.5 90.2998 363.5 91.3998 367.7 93.4998C372.1 95.7998 375.6 98.9998 378.1 103C380.6 107 381.8 111.5 381.8 116.4C381.8 119.9 381.2 123.1 379.9 126.1C378.7 128.8 377.2 131.4 375.2 133.6C373.4 135.7 371.5 137.6 369.4 139.4C368.2 140.4 367.2 141.3 366.6 142C366.5 142.1 366.4 142.3 366.3 142.4V150.3C367.8 152.8 368.6 155.6 368.6 158.8C368.6 161.6 367.9 164.3 366.5 166.7C365.2 169.1 363.2 171.1 360.8 172.5C358.5 174 355.8 174.8 352.9 174.8ZM352.9 115.9C352.1 115.9 351.4 116 351.2 116.2C351 116.4 350.9 117.2 350.9 117.5V120.8C352.4 119.4 353.6 118.2 354.4 117.1C354.7 116.7 354.7 116.6 354.7 116.6C354.7 116.5 354.7 116.5 354.7 116.4C354.7 116.4 354.7 116.3 354.6 116.2C354.5 116.1 353.9 115.9 352.9 115.9Z" fill="#F3F3F3"/>
<path d="M347.099 144.8V141.5C347.099 139.7 347.299 138.2 347.799 136.8C348.299 135.5 349.099 134.1 350.199 132.8C351.299 131.5 352.899 130 354.799 128.3C357.199 126.2 358.999 124.3 360.399 122.6C361.699 120.8 362.399 119 362.399 117.1C362.399 114.6 361.499 112.5 359.699 110.8C357.899 109.1 355.399 108.2 352.299 108.2C349.199 108.2 346.699 109.1 344.899 110.9C343.099 112.7 342.199 115.1 342.199 118.1H331.699C331.699 114.5 332.599 111.3 334.299 108.5C335.999 105.7 338.399 103.4 341.499 101.7C344.599 100 348.199 99.2002 352.399 99.2002C356.699 99.2002 360.399 100 363.499 101.5C366.599 103.1 368.899 105.2 370.599 107.9C372.299 110.6 373.099 113.7 373.099 117.1C373.099 119.5 372.699 121.6 371.899 123.6C371.099 125.6 369.899 127.4 368.599 129C367.099 130.8 365.399 132.4 363.699 133.9C362.299 135.1 361.199 136.1 360.299 137C359.399 137.9 358.799 138.8 358.299 139.7C357.799 140.6 357.599 141.6 357.599 142.9V144.8H347.099ZM352.299 167C350.999 167 349.699 166.7 348.499 166C347.399 165.4 346.399 164.4 345.799 163.3C345.099 162.1 344.799 160.8 344.799 159.5C344.799 157.3 345.499 155.5 346.999 154.1C348.399 152.7 350.199 152 352.399 152C354.499 152 356.299 152.7 357.799 154.1C359.199 155.5 359.999 157.3 359.999 159.5C359.999 160.8 359.699 162.1 358.999 163.3C358.399 164.4 357.399 165.4 356.299 166C354.999 166.7 353.699 167 352.299 167Z" fill="#0184EA"/>
<path d="M413.699 140.7C411.299 138.1 397.399 133.5 380.299 145.6C364.099 157 362.799 182 365.499 185.6C368.199 189.2 386.999 194 404.299 176.4C419.599 160.8 415.999 143.4 413.699 140.7Z" fill="#0184EA"/>
<path d="M399.797 141.5L412.297 154.3L411.297 159.5L394.297 142.5L399.797 141.5Z" fill="#F4F3F3"/>
<path d="M368.699 167.3L385.699 184.3L380.799 185.5L367.699 172.1L368.699 167.3Z" fill="#F4F3F3"/>
<path d="M399.398 158.9L398.198 160.1C397.898 160.4 397.498 160.4 397.198 160.1L395.398 158.3L393.398 160.5L395.298 162.4C395.598 162.7 395.598 163.1 395.298 163.4L394.098 164.6C393.798 164.9 393.398 164.9 393.098 164.6L391.298 162.8L389.098 165.2L390.998 167.1C391.298 167.4 391.298 167.8 390.998 168.1L389.798 169.3C389.498 169.6 389.098 169.6 388.798 169.3L386.998 167.5L384.798 169.9L386.698 171.8C386.998 172.1 386.998 172.5 386.698 172.8L385.498 174C385.198 174.3 384.798 174.3 384.498 174L382.698 172.2L381.198 173.8C380.998 174 380.798 174 380.598 173.8L378.998 172.3C378.798 172.1 378.798 171.9 378.998 171.7L380.598 170L378.998 168.4C378.698 168.1 378.698 167.7 378.998 167.4L380.198 166.2C380.498 165.9 380.898 165.9 381.198 166.2L382.698 167.7L384.898 165.4L383.298 163.8C382.998 163.5 382.998 163.1 383.298 162.8L384.498 161.6C384.798 161.3 385.198 161.3 385.498 161.6L386.998 163.1L389.198 160.7L387.598 159.1C387.298 158.8 387.298 158.4 387.598 158.1L388.798 156.9C389.098 156.6 389.498 156.6 389.798 156.9L391.298 158.4L393.298 156.2L391.698 154.6C391.398 154.3 391.398 153.9 391.698 153.6L392.898 152.4C393.198 152.1 393.598 152.1 393.898 152.4L395.398 153.9L396.898 152.3C397.098 152.1 397.298 152.1 397.498 152.3L399.098 153.8C399.298 154 399.298 154.2 399.098 154.4L397.498 156.1L399.398 158C399.698 158.2 399.698 158.6 399.398 158.9Z" fill="#F4F3F3"/>
<path d="M324.899 115.4C324.899 115.4 320.999 129.8 327.499 137.8C333.999 145.8 342.899 138.6 342.899 138.6L355.899 116.2L352.199 113.8L348.499 118.6L331.099 118.3L324.899 115.4Z" fill="white"/>
<path d="M1028.4 757H69.3984C63.8984 757 59.3984 752.5 59.3984 747V604C59.3984 598.5 63.8984 594 69.3984 594H1028.4C1033.9 594 1038.4 598.5 1038.4 604V747C1038.4 752.6 1034 757 1028.4 757Z" fill="white"/>
<text fill="#10B981" xml:space="preserve" style="white-space: pre" font-family="Inter" font-size="45" font-weight="bold" letter-spacing="0em"><tspan x="356.097" y="691.864"> players won</tspan></text>
<text fill="#001E3A" xml:space="preserve" style="white-space: pre" font-family="Inter" font-size="45" font-weight="bold" letter-spacing="0em"><tspan x="292.332" y="691.864">12:</tspan></text>
<g filter="url(#filter0_d_35_12257)">
<path d="M254.398 757H68.2984C63.3984 757 59.3984 753 59.3984 748.1V602.9C59.3984 598 63.3984 594 68.2984 594H254.398V757Z" fill="white"/>
</g>
<path fill-rule="evenodd" clip-rule="evenodd" d="M156.948 726.6C140.548 726.6 127.148 713.2 127.148 696.8C127.148 680.4 140.548 667 156.948 667C173.348 667 186.748 680.4 186.748 696.8C186.748 713.3 173.348 726.6 156.948 726.6ZM143.848 716C143.648 716 143.348 715.9 143.148 715.8C142.748 715.5 142.548 715 142.648 714.6L145.448 700.6L134.848 690.9C134.448 690.6 134.348 690.1 134.548 689.6C134.648 689.1 135.148 688.8 135.548 688.8L149.848 687.2L155.848 674.1C156.048 673.7 156.448 673.4 156.948 673.4C157.448 673.4 157.848 673.7 158.048 674.1L164.048 687.2L178.348 688.8C178.848 688.9 179.248 689.2 179.348 689.6C179.448 690.1 179.348 690.6 179.048 690.9L168.448 700.6L171.248 714.6C171.348 715.1 171.148 715.6 170.748 715.8C170.348 716.1 169.848 716.1 169.448 715.9L156.948 708.9L144.448 715.9C144.248 715.9 144.048 716 143.848 716ZM138.548 690.7L147.648 699C147.948 699.3 148.148 699.7 148.048 700.2L145.648 712.3L156.348 706.3C156.748 706.1 157.148 706.1 157.548 706.3L168.248 712.3L165.848 700.2C165.748 699.8 165.948 699.3 166.248 699L175.348 690.7L163.148 689.3C162.748 689.3 162.348 689 162.148 688.6L157.048 677.4L151.948 688.6C151.748 689 151.348 689.3 150.948 689.3L138.548 690.7Z" fill="#10B981"/>
<path fill-rule="evenodd" clip-rule="evenodd" d="M164.352 665.8L178.252 630.2C179.552 626.9 183.152 624.4 186.452 624.4H205.252C206.952 624.4 208.352 625.1 209.152 626.3C210.052 627.6 210.152 629.4 209.452 631.1L187.352 687.5C184.152 676.8 175.352 668.5 164.352 665.8Z" fill="#10B981"/>
<path fill-rule="evenodd" clip-rule="evenodd" d="M126.45 687.6L104.35 631.2C103.65 629.4 103.75 627.7 104.65 626.4C105.45 625.2 106.85 624.5 108.55 624.5H127.35C130.65 624.5 134.25 627.1 135.55 630.3L149.45 665.9C138.55 668.5 129.75 676.8 126.45 687.6Z" fill="#10B981"/>
<path d="M1028.4 955.7H69.3984C63.8984 955.7 59.3984 951.2 59.3984 945.7V802.6C59.3984 797.1 63.8984 792.6 69.3984 792.6H1028.4C1033.9 792.6 1038.4 797.1 1038.4 802.6V945.7C1038.4 951.2 1034 955.7 1028.4 955.7Z" fill="white"/>
<path d="M299.932 891.901V887.601C296.932 887.501 293.932 886.601 292.332 885.701L293.632 880.401C295.532 881.401 298.232 882.401 301.132 882.401C303.732 882.401 305.432 881.401 305.432 879.601C305.432 877.901 304.032 876.801 300.632 875.701C295.832 874.101 292.532 871.801 292.532 867.501C292.532 863.501 295.332 860.401 300.132 859.501V855.101H304.532V859.101C307.532 859.201 309.532 859.901 311.032 860.601L309.732 865.701C308.632 865.201 306.532 864.101 303.232 864.101C300.332 864.101 299.332 865.401 299.332 866.601C299.332 868.101 300.932 869.001 304.732 870.401C310.132 872.301 312.232 874.801 312.232 878.801C312.232 882.801 309.432 886.201 304.232 887.101V891.701H299.932V891.901Z" fill="#001E3A"/>
<path d="M332.332 875.201V869.201C332.432 869.201 332.432 869.201 332.632 869.201C334.132 869.201 335.432 869.101 336.432 869.001C337.432 868.901 338.232 868.701 338.732 868.501C339.232 868.301 339.632 868.001 339.832 867.801C340.032 867.501 340.132 867.201 340.132 866.801C340.132 865.001 338.432 864.001 335.132 863.901C334.932 863.901 334.632 863.901 334.232 863.901C334.232 863.901 334.032 863.901 333.732 863.901C333.532 863.901 333.332 863.901 333.232 863.901C331.932 863.901 330.832 864.001 330.032 864.301C329.132 864.501 328.532 864.901 328.232 865.301C327.832 865.701 327.632 866.101 327.532 866.401C327.432 866.701 327.332 867.101 327.332 867.501H315.932C315.932 866.901 315.932 866.401 316.032 865.801C316.132 865.201 316.332 864.601 316.632 863.801C316.932 863.001 317.332 862.301 317.832 861.701C318.332 861.001 319.032 860.401 319.932 859.701C320.832 859.001 321.832 858.501 323.032 858.001C324.232 857.501 325.732 857.201 327.432 856.901C329.232 856.601 331.132 856.501 333.332 856.501C334.132 856.501 334.832 856.501 335.332 856.501C335.832 856.501 336.632 856.501 337.632 856.601C338.632 856.701 339.532 856.801 340.332 856.901C341.032 857.001 341.932 857.201 343.032 857.401C344.032 857.601 344.932 857.901 345.632 858.201C346.332 858.501 347.132 858.901 347.932 859.401C348.732 859.901 349.332 860.501 349.832 861.101C350.332 861.701 350.732 862.501 351.032 863.401C351.332 864.301 351.532 865.301 351.532 866.401C351.532 867.101 351.432 867.701 351.332 868.301C351.132 868.901 350.932 869.401 350.632 869.901C350.332 870.401 349.932 870.801 349.432 871.301C348.932 871.801 348.332 872.001 347.732 872.201C348.632 872.401 349.332 872.801 349.932 873.401C350.532 874.001 350.932 874.701 351.232 875.501C351.532 876.301 351.632 877.101 351.632 878.001C351.632 884.801 345.732 888.101 333.832 888.101C332.732 888.101 331.932 888.101 331.232 888.101C330.532 888.101 329.532 888.001 328.132 887.901C326.732 887.801 325.632 887.501 324.632 887.301C323.732 887.001 322.632 886.601 321.432 886.001C320.232 885.401 319.332 884.701 318.532 883.901C317.832 883.101 317.232 882.101 316.632 880.801C316.132 879.501 315.832 878.101 315.832 876.501H327.232C327.232 877.301 327.332 877.901 327.432 878.401C327.532 878.801 327.832 879.301 328.232 879.701C328.632 880.101 329.232 880.401 330.132 880.601C331.032 880.801 332.232 880.801 333.732 880.801C334.432 880.801 335.132 880.801 335.732 880.801C338.632 880.601 340.132 879.601 340.132 877.901C340.132 877.401 339.932 877.001 339.632 876.601C339.232 876.301 338.532 876.001 337.332 875.801C336.132 875.301 334.532 875.201 332.332 875.201Z" fill="#001E3A"/>
<path d="M354.43 881.001H363.33V887.801L353.63 893.201L352.23 891.401L354.43 887.801V881.001Z" fill="#001E3A"/>
<path d="M398.131 870.6C399.931 870.9 401.431 871.7 402.631 873C403.831 874.3 404.331 875.8 404.331 877.6C404.331 878.7 404.231 879.8 404.031 880.7C403.831 881.6 403.531 882.4 403.331 883.1C403.031 883.8 402.531 884.4 401.931 884.9C401.331 885.4 400.731 885.8 400.231 886.2C399.731 886.5 398.931 886.8 397.931 887.1C396.931 887.3 396.031 887.5 395.431 887.6C394.731 887.7 393.731 887.8 392.331 887.8C390.931 887.8 389.831 887.9 389.031 887.9C388.231 887.9 387.031 887.9 385.331 887.9C383.731 887.9 382.531 887.9 381.731 887.9C380.931 887.9 379.931 887.8 378.531 887.8C377.231 887.7 376.231 887.6 375.531 887.5C374.831 887.4 374.031 887.2 373.031 887C372.031 886.8 371.231 886.5 370.731 886.1C370.231 885.7 369.631 885.3 369.031 884.8C368.431 884.3 367.931 883.7 367.631 883C367.331 882.3 367.131 881.5 366.831 880.5C366.631 879.6 366.531 878.5 366.531 877.4C366.531 875.6 367.131 874 368.331 872.6C369.531 871.2 370.931 870.5 372.631 870.4C372.131 870 371.631 869.5 371.331 868.9C371.031 868.3 370.731 867.7 370.631 867.2C370.531 866.7 370.431 866.1 370.431 865.6C370.431 862.5 371.631 860.2 373.931 858.7C376.331 857.2 380.031 856.4 385.131 856.4C390.431 856.4 394.331 857.2 396.731 858.7C399.131 860.2 400.331 862.5 400.331 865.5C400.331 866.5 400.131 867.5 399.731 868.5C399.431 869.4 398.831 870.1 398.131 870.6ZM385.431 881.3C386.831 881.3 388.031 881.2 388.931 881.1C389.831 881 390.531 880.7 391.131 880.4C391.731 880.1 392.031 879.7 392.331 879.2C392.531 878.7 392.631 878.1 392.631 877.4C392.631 876 392.031 875 390.831 874.4C389.631 873.8 387.831 873.5 385.431 873.5C384.331 873.5 383.431 873.6 382.631 873.7C381.831 873.8 381.031 874 380.431 874.3C379.731 874.6 379.231 875 378.831 875.5C378.431 876 378.331 876.7 378.331 877.4C378.331 878.4 378.631 879.2 379.131 879.8C379.631 880.4 380.431 880.8 381.431 881C382.431 881.2 383.731 881.3 385.431 881.3ZM385.431 863C382.131 863 380.431 863.8 380.431 865.5C380.431 866.3 380.831 867 381.531 867.4C382.231 867.8 383.531 868.1 385.431 868.1C387.231 868.1 388.531 867.9 389.231 867.4C389.931 867 390.331 866.3 390.331 865.5C390.431 863.9 388.731 863 385.431 863Z" fill="#001E3A"/>
<path d="M424.93 856.301C426.73 856.301 428.43 856.401 430.03 856.701C431.63 857.001 433.23 857.401 434.83 858.201C436.43 858.901 437.93 859.901 439.03 861.001C440.23 862.101 441.13 863.701 441.83 865.601C442.53 867.501 442.93 869.701 442.93 872.301C442.93 877.401 441.33 881.301 438.13 884.001C434.93 886.701 430.33 888.001 424.43 888.001C422.13 888.001 419.93 887.701 417.93 887.101C415.93 886.501 414.33 885.701 412.93 884.701C411.53 883.701 410.43 882.501 409.53 881.201C408.63 879.901 407.93 878.501 407.43 877.001C407.03 875.501 406.73 874.001 406.73 872.401C406.73 867.401 408.33 863.501 411.63 860.701C414.93 857.801 419.33 856.301 424.93 856.301ZM424.93 879.801C425.43 879.801 425.83 879.801 426.13 879.801C426.43 879.801 426.83 879.701 427.43 879.601C428.03 879.501 428.43 879.401 428.83 879.201C429.23 879.001 429.63 878.701 430.13 878.401C430.63 878.001 430.93 877.601 431.23 877.101C431.53 876.601 431.73 875.901 431.93 875.101C432.13 874.301 432.23 873.301 432.23 872.301C432.23 871.301 432.13 870.301 431.93 869.401C431.73 868.501 431.53 867.901 431.23 867.301C430.93 866.801 430.63 866.301 430.13 865.901C429.63 865.501 429.23 865.201 428.83 865.001C428.43 864.801 428.03 864.701 427.43 864.601C426.83 864.501 426.43 864.501 426.13 864.401C425.83 864.401 425.43 864.401 424.93 864.401C424.63 864.401 424.43 864.401 424.23 864.401C424.03 864.401 423.83 864.401 423.43 864.401C423.03 864.401 422.73 864.501 422.53 864.601C422.23 864.701 421.93 864.801 421.63 864.901C421.23 865.001 420.93 865.201 420.63 865.401C420.33 865.601 420.03 865.901 419.73 866.101C419.43 866.401 419.13 866.701 418.93 867.101C418.73 867.501 418.53 867.901 418.33 868.401C418.13 868.901 418.03 869.501 417.93 870.101C417.83 870.801 417.73 871.501 417.73 872.301C417.73 873.301 417.83 874.201 418.03 875.001C418.23 875.801 418.43 876.401 418.73 877.001C419.03 877.501 419.33 878.001 419.83 878.301C420.33 878.701 420.73 878.901 421.03 879.101C421.43 879.301 421.83 879.401 422.43 879.501C423.03 879.601 423.43 879.701 423.73 879.701C423.93 879.801 424.33 879.801 424.93 879.801Z" fill="#001E3A"/>
<path d="M463.532 856.301C465.332 856.301 467.032 856.401 468.632 856.701C470.232 857.001 471.832 857.401 473.432 858.201C475.032 858.901 476.532 859.901 477.632 861.001C478.832 862.101 479.732 863.701 480.432 865.601C481.132 867.501 481.532 869.701 481.532 872.301C481.532 877.401 479.932 881.301 476.732 884.001C473.532 886.701 468.932 888.001 463.032 888.001C460.732 888.001 458.532 887.701 456.532 887.101C454.532 886.501 452.932 885.701 451.532 884.701C450.132 883.701 449.032 882.501 448.132 881.201C447.232 879.901 446.532 878.501 446.032 877.001C445.632 875.501 445.332 874.001 445.332 872.401C445.332 867.401 446.932 863.501 450.232 860.701C453.532 857.801 457.932 856.301 463.532 856.301ZM463.532 879.801C464.032 879.801 464.432 879.801 464.732 879.801C465.032 879.801 465.432 879.701 466.032 879.601C466.632 879.501 467.032 879.401 467.432 879.201C467.832 879.001 468.232 878.701 468.732 878.401C469.232 878.001 469.532 877.601 469.832 877.101C470.132 876.601 470.332 875.901 470.532 875.101C470.732 874.301 470.832 873.301 470.832 872.301C470.832 871.301 470.732 870.301 470.532 869.401C470.332 868.501 470.132 867.901 469.832 867.301C469.532 866.801 469.232 866.301 468.732 865.901C468.232 865.501 467.832 865.201 467.432 865.001C467.032 864.801 466.632 864.701 466.032 864.601C465.432 864.501 465.032 864.501 464.732 864.401C464.432 864.401 464.032 864.401 463.532 864.401C463.232 864.401 463.032 864.401 462.832 864.401C462.632 864.401 462.432 864.401 462.032 864.401C461.632 864.401 461.332 864.501 461.132 864.601C460.832 864.701 460.532 864.801 460.232 864.901C459.832 865.001 459.532 865.201 459.232 865.401C458.932 865.601 458.632 865.901 458.332 866.101C458.032 866.401 457.732 866.701 457.532 867.101C457.332 867.501 457.132 867.901 456.932 868.401C456.732 868.901 456.632 869.501 456.532 870.101C456.432 870.801 456.332 871.501 456.332 872.301C456.332 873.301 456.432 874.201 456.632 875.001C456.832 875.801 457.032 876.401 457.332 877.001C457.632 877.501 457.932 878.001 458.432 878.301C458.932 878.701 459.332 878.901 459.632 879.101C460.032 879.301 460.432 879.401 461.032 879.501C461.632 879.601 462.032 879.701 462.332 879.701C462.532 879.801 462.932 879.801 463.532 879.801Z" fill="#001E3A"/>
<path d="M494.633 869.701H485.633V861.801H494.633V869.701ZM494.633 887.901H485.633V880.101H494.633V887.901Z" fill="#001E3A"/>
<path d="M649.161 856.301H671.361C671.961 856.301 672.561 856.301 673.061 856.301C673.561 856.301 674.361 856.401 675.361 856.601C676.361 856.801 677.261 857.001 678.061 857.301C678.861 857.601 679.661 858.101 680.561 858.701C681.461 859.301 682.261 860.001 682.861 860.801C683.461 861.601 683.961 862.701 684.361 864.001C684.761 865.301 684.961 866.801 684.961 868.401C684.961 870.001 684.761 871.501 684.361 872.801C683.961 874.101 683.461 875.201 682.861 876.101C682.261 877.001 681.561 877.801 680.661 878.401C679.861 879.101 678.961 879.601 678.161 880.001C677.361 880.401 676.461 880.701 675.661 880.901C674.761 881.101 674.061 881.301 673.361 881.401C672.761 881.501 672.161 881.501 671.561 881.501H659.461V887.901H648.961V856.301H649.161ZM671.061 872.201C673.861 872.201 675.161 871.101 675.161 868.801C675.161 868.301 675.061 867.901 674.961 867.501C674.861 867.101 674.661 866.801 674.361 866.601C674.061 866.401 673.861 866.201 673.561 866.001C673.261 865.901 672.961 865.801 672.561 865.701C672.161 865.701 671.861 865.601 671.661 865.601C671.461 865.601 671.161 865.601 670.861 865.601H659.661V872.201H671.061Z" fill="#10B981"/>
<path d="M718.062 856.4L732.263 887.9H720.062L717.662 882.6H702.062L699.662 887.9H687.562L701.662 856.4H718.062ZM705.763 873.5H713.862L709.763 865.2L705.763 873.5Z" fill="#10B981"/>
<path d="M735.062 887.901V856.301H745.562V887.901H735.062Z" fill="#10B981"/>
<path d="M770.059 887.9H748.359V856.4H769.959C771.959 856.4 773.859 856.5 775.359 856.7C776.959 856.9 778.559 857.4 780.159 858.1C781.759 858.8 783.159 859.7 784.159 860.8C785.159 861.9 786.159 863.4 786.759 865.4C787.459 867.3 787.759 869.6 787.759 872.2C787.759 874.5 787.359 876.6 786.659 878.5C785.959 880.4 784.959 881.9 783.859 883C782.659 884.2 781.259 885.1 779.759 885.9C778.259 886.7 776.559 887.2 774.959 887.5C773.459 887.8 771.859 887.9 770.059 887.9ZM769.359 879.3C770.959 879.3 772.459 879 773.559 878.3C774.759 877.7 775.559 876.8 776.159 875.8C776.659 874.8 776.959 873.6 776.959 872.2C776.959 870 776.359 868.3 775.159 867C773.959 865.7 772.059 865 769.359 865H758.859V879.3H769.359Z" fill="#10B981"/>
<path d="M832.759 855.801C835.659 855.801 838.159 856.001 840.359 856.301C842.559 856.601 844.559 857.101 846.459 857.901C848.359 858.701 849.859 859.601 851.059 860.801C852.259 862.001 853.159 863.501 853.859 865.401C854.559 867.201 854.859 869.401 854.859 871.901C854.859 874.401 854.559 876.501 853.959 878.301C853.359 880.101 852.559 881.601 851.459 882.901C850.359 884.201 848.959 885.101 847.159 885.901C845.359 886.701 843.359 887.201 841.059 887.501C838.859 887.801 836.159 888.001 833.159 888.001C825.759 888.001 820.359 886.601 816.959 883.901C813.559 881.201 811.859 877.001 811.859 871.301C811.859 866.001 813.559 862.101 817.059 859.601C820.359 857.101 825.659 855.801 832.759 855.801ZM833.159 879.801C836.359 879.801 838.759 879.201 840.559 877.901C842.359 876.601 843.159 874.601 843.159 872.001C843.159 869.501 842.259 867.501 840.459 866.201C838.659 864.901 836.159 864.201 833.059 864.201C831.459 864.201 830.059 864.401 828.759 864.701C827.559 865.001 826.559 865.601 825.759 866.301C824.959 867.001 824.359 867.801 823.959 868.801C823.559 869.801 823.359 870.901 823.359 872.101C823.359 874.501 824.159 876.401 825.859 877.801C827.459 879.101 829.859 879.801 833.159 879.801Z" fill="#10B981"/>
<path d="M877.662 887.901C872.962 887.901 869.062 887.401 865.862 886.501C862.662 885.601 860.562 884.001 859.362 881.701C858.462 880.001 857.863 877.901 857.562 875.301C857.262 872.801 857.062 868.901 857.062 863.801V856.201H868.162V870.301C868.162 871.201 868.163 872.001 868.263 872.701C868.363 873.401 868.562 874.201 868.962 875.001C869.362 875.801 869.863 876.501 870.562 877.101C871.262 877.701 872.162 878.101 873.362 878.501C874.562 878.901 875.962 879.101 877.662 879.101C879.262 879.101 880.662 878.901 881.862 878.501C883.062 878.101 883.962 877.701 884.562 877.101C885.163 876.601 885.662 875.901 886.062 875.001C886.463 874.101 886.663 873.401 886.763 872.701C886.863 872.001 886.862 871.201 886.862 870.301V856.201H897.962V863.801C897.962 868.901 897.863 872.701 897.562 875.301C897.262 877.801 896.663 880.001 895.763 881.701C895.163 882.901 894.263 883.901 893.062 884.701C891.862 885.501 890.562 886.201 888.862 886.601C887.262 887.001 885.563 887.401 883.763 887.601C881.963 887.801 879.962 887.901 877.662 887.901Z" fill="#10B981"/>
<path d="M900.359 856.301H942.059V866.701H926.459V887.901H916.059V866.701H900.359V856.301Z" fill="#10B981"/>
<g filter="url(#filter1_d_35_12257)">
<path d="M254.398 955.7H68.2984C63.3984 955.7 59.3984 951.7 59.3984 946.8V801.5C59.3984 796.6 63.3984 792.6 68.2984 792.6H254.398V955.7Z" fill="white"/>
</g>
<path d="M182.598 892.049C182.598 903.249 175.298 913.149 164.798 916.549V921.649C164.798 924.449 162.498 926.649 159.798 926.649H153.898C151.098 926.649 148.898 924.349 148.898 921.649V916.549C138.298 913.149 131.098 903.249 131.098 892.049C131.098 890.949 131.998 890.049 133.098 890.049H145.098C146.198 890.049 147.098 890.949 147.098 892.049C147.098 895.549 148.898 898.749 151.998 900.549C158.498 904.349 166.798 899.649 166.798 892.049C166.798 888.549 164.998 885.349 161.898 883.549C158.198 881.349 156.298 882.849 150.498 881.349C139.098 878.449 131.198 868.149 131.198 856.449C131.198 845.249 138.498 835.349 148.998 831.949V826.649C148.998 823.849 151.298 821.649 153.998 821.649H159.898C162.698 821.649 164.898 823.949 164.898 826.649V831.949C175.498 835.349 182.698 845.249 182.698 856.449C182.698 857.549 181.798 858.449 180.698 858.449H168.698C167.598 858.449 166.698 857.549 166.698 856.449C166.698 852.949 164.898 849.749 161.798 847.949C155.298 844.149 146.998 848.849 146.998 856.449C146.998 859.949 148.798 863.149 151.898 864.949C155.698 867.149 157.298 865.549 163.298 867.149C174.698 870.049 182.598 880.349 182.598 892.049Z" fill="#10B981"/>
<path d="M1028.4 1156.6H69.3984C63.8984 1156.6 59.3984 1152.1 59.3984 1146.6V1003.5C59.3984 998 63.8984 993.5 69.3984 993.5H1028.4C1033.9 993.5 1038.4 998 1038.4 1003.5V1146.6C1038.4 1152.1 1034 1156.6 1028.4 1156.6Z" fill="white"/>
<text fill="#10B981" xml:space="preserve" style="white-space: pre" font-family="Inter" font-size="45" font-weight="bold" letter-spacing="0em"><tspan x="292.332" y="1091.41">Fastest win: </tspan></text>
<text fill="#001E3A" xml:space="preserve" style="white-space: pre" font-family="Inter" font-size="45" font-weight="bold" letter-spacing="0em"><tspan x="846.438" y="1091.41">2.3s</tspan></text>
<g filter="url(#filter2_d_35_12257)">
<path d="M254.398 1156.6H68.2984C63.3984 1156.6 59.3984 1152.6 59.3984 1147.7V1002.4C59.3984 997.5 63.3984 993.5 68.2984 993.5H254.398V1156.6Z" fill="white"/>
</g>
<path d="M166.65 1025.62L163.85 1056.52L177.55 1054.32C178.55 1054.22 179.45 1054.92 179.55 1055.82C179.55 1056.12 179.55 1056.32 179.45 1056.62L157.55 1125.32C157.25 1126.22 156.25 1126.72 155.35 1126.42C154.65 1126.22 154.15 1125.52 154.15 1124.72L154.65 1077.72L136.35 1080.62C135.35 1080.82 134.45 1080.12 134.25 1079.12C134.25 1079.02 134.25 1078.82 134.25 1078.62L139.15 1028.92C139.25 1028.12 139.85 1027.42 140.65 1027.32L164.55 1023.62C165.05 1023.52 165.65 1023.72 166.05 1024.12C166.45 1024.52 166.65 1025.12 166.65 1025.62Z" fill="#10B981"/>
<path d="M1028.4 1362H69.3984C63.8984 1362 59.3984 1357.5 59.3984 1352V1208.9C59.3984 1203.4 63.8984 1198.9 69.3984 1198.9H1028.4C1033.9 1198.9 1038.4 1203.4 1038.4 1208.9V1352C1038.4 1357.5 1034 1362 1028.4 1362Z" fill="white"/>
<text fill="#10B981" xml:space="preserve" style="white-space: pre" font-family="Inter" font-size="45" font-weight="bold" letter-spacing="0em"><tspan x="292.332" y="1296.81">Average prize: </tspan></text>
<text fill="#001E3A" xml:space="preserve" style="white-space: pre" font-family="Inter" font-size="45" font-weight="bold" letter-spacing="0em"><tspan x="812.741" y="1296.81">$ 320</tspan></text>
<g filter="url(#filter3_d_35_12257)">
<path d="M254.398 1362H68.2984C63.3984 1362 59.3984 1358 59.3984 1353.1V1207.8C59.3984 1202.9 63.3984 1198.9 68.2984 1198.9H254.398V1362Z" fill="white"/>
</g>
<path d="M203.127 1247.35C201.727 1243.95 199.327 1241.35 196.227 1240.15C194.127 1239.35 191.927 1239.05 189.527 1239.55C190.027 1236.95 188.027 1234.45 185.327 1234.45H128.427C125.727 1234.45 123.727 1236.85 124.227 1239.55C121.727 1239.05 119.627 1239.25 117.527 1240.15C114.427 1241.35 112.027 1243.95 110.627 1247.35C108.527 1252.75 109.227 1259.95 112.427 1266.65C116.827 1275.85 124.427 1281.55 131.427 1281.65C133.527 1288.35 138.927 1294.05 145.827 1297.15C135.727 1301.15 128.827 1310.65 128.827 1321.25V1326.45H185.227V1321.25C185.227 1310.55 178.327 1301.15 168.227 1297.15C175.127 1294.25 180.527 1288.55 182.627 1281.65C189.527 1281.45 197.027 1275.85 201.327 1266.65C204.527 1259.85 205.327 1252.65 203.127 1247.35ZM121.727 1262.15C119.427 1257.25 119.427 1253.15 120.227 1251.15C120.527 1250.35 120.827 1249.95 121.327 1249.75C122.227 1249.45 124.127 1249.75 126.227 1251.45C127.427 1258.85 128.827 1266.35 129.627 1270.75C126.927 1269.75 123.927 1266.65 121.727 1262.15ZM191.927 1262.15C189.827 1266.75 186.527 1269.65 184.127 1270.75C184.927 1266.15 186.127 1258.75 187.527 1251.45C189.627 1249.75 191.527 1249.45 192.427 1249.75C192.927 1249.95 193.227 1250.35 193.527 1251.15C194.227 1253.15 194.427 1257.15 191.927 1262.15Z" fill="#10B981"/>
<text fill="#0184EA" xml:space="preserve" style="white-space: pre" font-family="Bebas Neue" font-size="80" font-weight="bold" letter-spacing="0.23em"><tspan x="129.827" y="1487">Speed Wins Always.</tspan></text>
<text fill="#001E3A" xml:space="preserve" style="white-space: pre" font-family="Bebas Neue" font-size="77.7274" letter-spacing="0em"><tspan x="290.85" y="295.636">WHILE YOU WAITED...</tspan></text>
<text fill="#10B981" xml:space="preserve" style="white-space: pre" font-family="Bebas Neue" font-size="77.7274" letter-spacing="0em"><tspan x="316.355" y="377.408">In the last hour:</tspan></text>
<text fill="#001E3A" xml:space="preserve" style="white-space: pre" font-family="Bebas Neue" font-size="73.4093" letter-spacing="0em"><tspan x="302.814" y="455.386">Squares available:</tspan></text>
<path d="M465.5 501C465.5 492.716 472.216 486 480.5 486H599.5C607.784 486 614.5 492.716 614.5 501V546C614.5 554.284 607.784 561 599.5 561H480.5C472.216 561 465.5 554.284 465.5 546V501Z" fill="#10B981"/>
<text fill="white" xml:space="preserve" style="white-space: pre" font-family="Inter" font-size="64" letter-spacing="0em"><tspan x="505.75" y="546.773">12</tspan></text>
</g>
<defs>
<filter id="filter0_d_35_12257" x="57.1984" y="585.8" width="211.4" height="179.4" filterUnits="userSpaceOnUse" color-interpolation-filters="sRGB">
<feFlood flood-opacity="0" result="BackgroundImageFix"/>
<feColorMatrix in="SourceAlpha" type="matrix" values="0 0 0 0 0 0 0 0 0 0 0 0 0 0 0 0 0 0 127 0" result="hardAlpha"/>
<feOffset dx="6"/>
<feGaussianBlur stdDeviation="4.1"/>
<feComposite in2="hardAlpha" operator="out"/>
<feColorMatrix type="matrix" values="0 0 0 0 0 0 0 0 0 0 0 0 0 0 0 0 0 0 0.08 0"/>
<feBlend mode="normal" in2="BackgroundImageFix" result="effect1_dropShadow_35_12257"/>
<feBlend mode="normal" in="SourceGraphic" in2="effect1_dropShadow_35_12257" result="shape"/>
</filter>
<filter id="filter1_d_35_12257" x="57.1984" y="784.4" width="211.4" height="179.5" filterUnits="userSpaceOnUse" color-interpolation-filters="sRGB">
<feFlood flood-opacity="0" result="BackgroundImageFix"/>
<feColorMatrix in="SourceAlpha" type="matrix" values="0 0 0 0 0 0 0 0 0 0 0 0 0 0 0 0 0 0 127 0" result="hardAlpha"/>
<feOffset dx="6"/>
<feGaussianBlur stdDeviation="4.1"/>
<feComposite in2="hardAlpha" operator="out"/>
<feColorMatrix type="matrix" values="0 0 0 0 0 0 0 0 0 0 0 0 0 0 0 0 0 0 0.08 0"/>
<feBlend mode="normal" in2="BackgroundImageFix" result="effect1_dropShadow_35_12257"/>
<feBlend mode="normal" in="SourceGraphic" in2="effect1_dropShadow_35_12257" result="shape"/>
</filter>
<filter id="filter2_d_35_12257" x="57.1984" y="985.3" width="211.4" height="179.5" filterUnits="userSpaceOnUse" color-interpolation-filters="sRGB">
<feFlood flood-opacity="0" result="BackgroundImageFix"/>
<feColorMatrix in="SourceAlpha" type="matrix" values="0 0 0 0 0 0 0 0 0 0 0 0 0 0 0 0 0 0 127 0" result="hardAlpha"/>
<feOffset dx="6"/>
<feGaussianBlur stdDeviation="4.1"/>
<feComposite in2="hardAlpha" operator="out"/>
<feColorMatrix type="matrix" values="0 0 0 0 0 0 0 0 0 0 0 0 0 0 0 0 0 0 0.08 0"/>
<feBlend mode="normal" in2="BackgroundImageFix" result="effect1_dropShadow_35_12257"/>
<feBlend mode="normal" in="SourceGraphic" in2="effect1_dropShadow_35_12257" result="shape"/>
</filter>
<filter id="filter3_d_35_12257" x="57.1984" y="1190.7" width="211.4" height="179.5" filterUnits="userSpaceOnUse" color-interpolation-filters="sRGB">
<feFlood flood-opacity="0" result="BackgroundImageFix"/>
<feColorMatrix in="SourceAlpha" type="matrix" values="0 0 0 0 0 0 0 0 0 0 0 0 0 0 0 0 0 0 127 0" result="hardAlpha"/>
<feOffset dx="6"/>
<feGaussianBlur stdDeviation="4.1"/>
<feComposite in2="hardAlpha" operator="out"/>
<feColorMatrix type="matrix" values="0 0 0 0 0 0 0 0 0 0 0 0 0 0 0 0 0 0 0.08 0"/>
<feBlend mode="normal" in2="BackgroundImageFix" result="effect1_dropShadow_35_12257"/>
<feBlend mode="normal" in="SourceGraphic" in2="effect1_dropShadow_35_12257" result="shape"/>
</filter>
<clipPath id="clip0_35_12257">
<rect width="1080" height="1536" fill="white"/>
</clipPath>
</defs>
</svg>
