<svg width="1024" height="1536" viewBox="0 0 1024 1536" fill="none" xmlns="http://www.w3.org/2000/svg">
<g clip-path="url(#clip0_35_11504)">
<path d="M1024 0H0V1536H1024V0Z" fill="#DCF6F2"/>
<path d="M451.001 74.1C450.801 73.9 450.001 73.4 448.701 72.6C447.101 71.7 445.501 70.8 443.901 70.1C441.901 69.2 439.801 68.5 437.601 67.9C435.401 67.3 433.101 67 430.701 67C427.701 67 425.401 67.5 423.701 68.6C422.101 69.7 421.201 71.2 421.201 73.3C421.201 74.9 421.801 76.2 423.101 77.3C424.301 78.3 426.201 79.2 428.501 79.9C430.801 80.6 433.801 81.5 437.201 82.4C442.101 83.7 446.301 85.3 449.901 87.1C453.501 88.9 456.201 91.2 458.101 94C460.001 96.8 460.901 100.6 460.901 105.2C460.901 109.4 460.101 112.9 458.601 115.9C457.101 118.9 454.901 121.3 452.101 123.1C449.301 124.9 446.301 126.2 442.901 127C439.401 127.8 435.901 128.2 432.301 128.2C428.401 128.2 424.601 127.8 420.901 127C417.101 126.2 413.301 125.2 409.701 123.7C406.301 122.4 403.001 120.7 399.801 118.8L407.401 103.6C407.801 104 408.701 104.7 410.301 105.6C411.901 106.5 413.801 107.5 416.201 108.5C418.701 109.6 421.301 110.5 424.001 111.3C426.801 112.1 429.701 112.5 432.601 112.5C435.801 112.5 438.201 112 439.701 111C441.201 110 442.001 108.6 442.001 106.8C442.001 105 441.201 103.5 439.601 102.4C438.001 101.3 435.801 100.3 433.101 99.4C430.301 98.5 427.201 97.6 423.601 96.6C418.901 95.1 415.101 93.5 412.101 91.8C409.101 90.1 406.801 87.9 405.301 85.4C403.801 82.9 403.101 79.7 403.101 76C403.101 70.6 404.401 66.2 406.901 62.5C409.401 58.8 412.901 56.1 417.201 54.3C421.501 52.4 426.201 51.5 431.301 51.5C434.801 51.5 438.301 51.9 441.701 52.8C444.901 53.6 448.001 54.7 451.101 56C454.001 57.3 456.601 58.6 458.701 59.9L451.001 74.1Z" fill="#0184EA"/>
<path d="M504.6 127.8C499 127.8 493.9 126.7 489.3 124.6C484.7 122.5 480.7 119.6 477.3 116C474 112.4 471.3 108.3 469.6 103.7C467.8 99.2002 466.9 94.4002 466.9 89.6002C466.9 84.7002 467.9 79.8002 469.7 75.3002C471.6 70.8002 474.3 66.7002 477.7 63.2002C481.1 59.7002 485.1 56.9002 489.8 54.8002C494.5 52.7002 499.6 51.7002 505.1 51.7002C510.8 51.7002 515.9 52.8002 520.5 55.0002C525.1 57.2002 529.1 60.1002 532.4 63.8002C535.7 67.4002 538.3 71.6002 540.1 76.1002C541.9 80.7002 542.8 85.3002 542.8 90.0002C542.8 94.9002 541.9 99.8002 540 104.3C536.2 113.5 529 120.8 520 124.8C515.4 126.8 510.3 127.8 504.6 127.8ZM505 112.4C508.3 112.4 511.2 111.7 513.7 110.4C516.1 109.2 518.3 107.4 519.9 105.2C521.5 103 522.8 100.5 523.6 97.9002C524.4 95.2002 524.8 92.4002 524.8 89.7002C524.8 86.8002 524.3 84.0002 523.4 81.3002C522.5 78.7002 521.2 76.2002 519.5 74.1002C517.8 72.0002 515.6 70.3002 513.2 69.1002C510.7 67.9002 507.9 67.3002 504.7 67.3002C501.3 67.3002 498.4 68.0002 495.9 69.3002C493.5 70.5002 491.3 72.4002 489.7 74.5002C488.1 76.7002 486.8 79.1002 485.9 81.7002C485 84.4002 484.6 87.2002 484.6 90.0002C484.6 92.8002 485 95.7002 486 98.4002C486.9 101 488.2 103.5 489.9 105.6C491.6 107.7 493.7 109.5 496.1 110.7C498.7 111.8 501.6 112.4 505 112.4ZM500.1 97.7002H516.6L543.9 127.3H527.2L500.1 97.7002Z" fill="#0184EA"/>
<path d="M585.802 127.9C579.702 127.9 574.502 126.9 570.202 124.9C565.902 122.9 562.402 120.1 559.702 116.6C557.002 113.1 555.002 109.1 553.802 104.6C552.502 100 551.902 95.3002 551.902 90.6002V52.2002H569.502V90.6002C569.502 93.4002 569.802 96.1002 570.302 98.8002C570.902 101.4 571.802 103.7 573.002 105.7C574.202 107.7 576.002 109.4 578.002 110.6C580.102 111.8 582.602 112.4 585.602 112.4C588.602 112.4 591.102 111.8 593.202 110.6C595.302 109.4 597.002 107.7 598.202 105.6C599.502 103.4 600.402 101 601.002 98.5002C601.602 95.9002 601.902 93.2002 601.902 90.5002V52.2002H619.402V90.6002C619.402 95.8002 618.702 100.7 617.402 105.2C616.102 109.7 614.102 113.6 611.302 117.1C608.602 120.6 605.102 123.2 600.802 125.1C596.902 127 591.802 127.9 585.802 127.9Z" fill="#0184EA"/>
<path d="M649.402 52.2002H668.302L694.702 127.3H676.602L670.702 110.5H646.902L641.102 127.3H623.002L649.402 52.2002ZM667.602 98.6002L658.902 69.6002L649.702 98.6002H667.602Z" fill="#0184EA"/>
<path d="M702.102 127.3V52.2002H736.402C740.102 52.2002 743.402 52.9002 746.502 54.4002C749.602 55.9002 752.202 57.8002 754.402 60.2002C756.602 62.6002 758.302 65.4002 759.602 68.3002C760.802 71.2002 761.502 74.4002 761.502 77.6002C761.502 80.6002 761.002 83.6002 759.902 86.4002C758.902 89.1002 757.402 91.7002 755.602 93.9002C753.802 96.1002 751.502 97.9002 749.102 99.3002L765.902 127.2H746.402L731.802 103H719.902V127.2L702.102 127.3ZM719.802 87.8002H736.002C737.302 87.8002 738.602 87.4002 739.702 86.5002C740.802 85.7002 741.702 84.5002 742.402 82.9002C743.102 81.3002 743.502 79.6002 743.502 77.6002C743.502 75.5002 743.102 73.7002 742.302 72.2002C741.502 70.7002 740.402 69.5002 739.202 68.7002C738.002 67.9002 736.702 67.4002 735.402 67.4002H719.802V87.8002Z" fill="#0184EA"/>
<path d="M827.702 112.1V127.3H774.102V52.2002H826.802V67.4002H791.802V82.0002H821.902V96.1002H791.802V112.1H827.702Z" fill="#0184EA"/>
<path d="M449.802 156.3H433.402V197H421.002V156.4H404.602V146H449.702L449.802 156.3Z" fill="#0184EA"/>
<path d="M474.701 196.9V145.9H498.801C501.401 145.9 503.701 146.4 505.901 147.4C508.001 148.3 509.901 149.7 511.401 151.3C512.901 152.9 514.201 154.8 515.001 156.8C515.901 158.8 516.301 160.9 516.301 163.1C516.301 167.2 514.801 171.1 512.101 174.2C510.801 175.7 509.201 176.9 507.501 177.9L519.301 196.9H505.601L495.301 180.5H486.901V196.9H474.701ZM487.101 170.1H498.501C499.401 170.1 500.401 169.8 501.101 169.2C501.901 168.6 502.501 167.8 503.001 166.8C503.501 165.8 503.801 164.6 503.801 163.2C503.801 161.8 503.501 160.5 502.901 159.5C502.301 158.5 501.601 157.7 500.701 157.1C499.801 156.5 498.901 156.2 498.001 156.2H487.001L487.101 170.1Z" fill="#0184EA"/>
<path d="M544.201 196.9V145.9H556.601V196.9H544.201Z" fill="#0184EA"/>
<path d="M593.602 145.9L606.202 183.1L618.702 145.9H631.802L612.302 196.9H600.102L580.402 145.9H593.602Z" fill="#0184EA"/>
<path d="M655.701 196.9V145.9H668.101V196.9H655.701Z" fill="#0184EA"/>
<path d="M710.902 145.9H724.202L742.802 196.9H730.102L726.502 185.5H708.802L705.102 196.9H692.402L710.902 145.9ZM723.902 177.5L717.602 157.8L711.302 177.5H723.902Z" fill="#0184EA"/>
<path d="M224.201 38.9004H350.101C365.501 38.9004 378.101 51.4004 378.101 66.9004V181.8C378.101 197.2 365.601 209.7 350.101 209.7H224.201C208.801 209.7 196.301 197.2 196.301 181.8V66.8004C196.201 51.4004 208.801 38.9004 224.201 38.9004Z" fill="white" stroke="#0184EA" stroke-width="8.1425" stroke-miterlimit="10"/>
<path d="M375.502 120H198.502V128.2H375.502V120Z" fill="#0184EA"/>
<path d="M291.202 41.8008H283.002V206.601H291.202V41.8008Z" fill="#0184EA"/>
<path d="M270.301 53.7007C267.501 50.6007 250.701 45.1007 230.101 59.6007C210.601 73.3007 209.001 103.501 212.301 107.801C215.501 112.101 238.201 117.901 259.001 96.7007C277.401 77.8007 273.201 56.8007 270.301 53.7007Z" fill="#0184EA"/>
<path d="M253.602 54.6006L268.602 70.0006L267.402 76.3006L247.002 55.8006L253.602 54.6006Z" fill="#F4F3F3"/>
<path d="M216.1 85.7002L236.6 106.2L230.7 107.7L214.9 91.5002L216.1 85.7002Z" fill="#F4F3F3"/>
<path d="M253.102 75.6006L251.702 77.0006C251.402 77.3006 250.802 77.3006 250.502 77.0006L248.302 74.8006L245.902 77.5006L248.202 79.8006C248.502 80.1006 248.502 80.6006 248.202 81.0006L246.802 82.4006C246.502 82.7006 245.902 82.7006 245.602 82.4006L243.402 80.2006L240.702 83.1006L243.002 85.4006C243.302 85.7006 243.302 86.3006 243.002 86.6006L241.602 88.0006C241.302 88.3006 240.702 88.3006 240.402 88.0006L238.202 85.8006L235.602 88.6006L237.902 90.9006C238.202 91.2006 238.202 91.7006 237.902 92.1006L236.502 93.5006C236.202 93.8006 235.602 93.8006 235.302 93.5006L233.102 91.3006L231.302 93.3006C231.102 93.5006 230.802 93.5006 230.602 93.3006L228.702 91.5006C228.502 91.3006 228.502 91.0006 228.702 90.8006L230.602 88.7006L228.702 86.8006C228.402 86.5006 228.402 86.0006 228.702 85.6006L230.102 84.2006C230.402 83.9006 231.002 83.9006 231.302 84.2006L233.102 86.0006L235.702 83.2006L233.802 81.3006C233.502 81.0006 233.502 80.5006 233.802 80.1006L235.202 78.7006C235.502 78.4006 236.102 78.4006 236.402 78.7006L238.202 80.5006L240.902 77.6006L239.002 75.7006C238.702 75.4006 238.702 74.8006 239.002 74.5006L240.402 73.1006C240.702 72.8006 241.302 72.8006 241.602 73.1006L243.402 74.9006L245.802 72.2006L243.902 70.3006C243.602 70.0006 243.602 69.4006 243.902 69.1006L245.302 67.7006C245.602 67.4006 246.202 67.4006 246.502 67.7006L248.302 69.5006L250.102 67.5006C250.302 67.3006 250.602 67.3006 250.802 67.5006L252.702 69.3006C252.902 69.5006 252.902 69.8006 252.702 70.0006L250.802 72.1006L253.102 74.4006C253.502 74.7006 253.502 75.2006 253.102 75.6006Z" fill="#F4F3F3"/>
<path d="M242.4 140C244.1 140 245.8 140.2 247.5 140.5C250.4 141.1 253.1 142.1 255.7 143.6C263.4 148.2 268.3 156.4 268.5 165.4V165.5V165.6C268.5 165.7 268.5 165.9 268.5 166.1C268.5 171.8 266.6 177.4 263.2 181.9C260.9 185 257.9 187.5 254.5 189.2C251 191 247.1 192 243.1 192.1H243H242.9C242.8 192.1 242.7 192.1 242.5 192.1C228.1 192.1 216.5 180.5 216.5 166.1C216.5 165.7 216.5 165.3 216.5 164.9C216.8 157.8 220.1 151.2 225.4 146.6C230 142.2 236.1 139.9 242.4 140ZM242.3 135C225.8 135 212.2 147.9 211.4 164.4C211.4 164.9 211.4 165.4 211.4 165.9C211.4 183 225.3 196.9 242.4 196.9C242.6 196.9 242.8 196.9 243.1 196.9C260 196.5 273.4 182.8 273.4 165.9C273.4 165.7 273.4 165.4 273.4 165.2C273.1 150.5 262.5 138.3 248.5 135.6C246.4 135.2 244.4 135 242.3 135Z" fill="#0184EA"/>
<path d="M223.1 148.501C231 152.401 238.3 157.401 244.7 163.401C251.1 169.501 256.6 176.401 261 184.101C259.1 186.101 256.8 187.801 254.3 189.001C250.8 190.801 246.9 191.801 242.9 191.901H242.8H242.7C242.6 191.901 242.5 191.901 242.3 191.901C227.9 191.901 216.3 180.301 216.3 165.901C216.3 165.501 216.3 165.101 216.3 164.701C216.7 158.701 219 153.001 223.1 148.501ZM222 142.601C215.6 148.101 211.8 156.001 211.4 164.401C211.4 164.901 211.4 165.401 211.4 165.901C211.4 183.001 225.3 196.901 242.4 196.901C242.6 196.901 242.8 196.901 243.1 196.901C252.5 196.701 261.3 192.201 267 184.701C257.1 166.101 241.3 151.101 222 142.601Z" fill="#0184EA"/>
<path d="M260.802 165.9C263.202 165.9 265.802 166.6 268.302 168C267.402 179.7 258.702 189.4 247.202 191.6C246.602 186 247.102 180.7 248.602 176.3C249.502 173.7 250.702 171.6 252.202 169.9C253.602 168.3 255.302 167.2 257.102 166.5C258.302 166.1 259.502 165.9 260.802 165.9ZM260.802 160.9C259.002 160.9 257.202 161.2 255.502 161.8C244.602 165.6 239.702 180.5 243.102 196.9C259.902 196.5 273.402 182.8 273.402 165.9C273.402 165.7 273.402 165.4 273.402 165.2C269.302 162.4 264.902 160.9 260.802 160.9Z" fill="#0184EA"/>
<path d="M242.402 140C242.802 140 243.302 140 243.802 140C243.802 141.6 243.702 143.3 243.502 144.9C243.202 147.5 242.502 150 241.402 152.4C239.402 156.9 236.302 160.2 232.302 162C230.102 163 227.702 163.5 225.402 163.5C222.602 163.5 219.702 162.9 216.802 161.6C218.902 149.1 229.702 140 242.402 140ZM242.402 135C225.802 135 212.302 148 211.502 164.4C216.002 167 220.702 168.3 225.402 168.3C228.502 168.3 231.502 167.7 234.402 166.4C244.902 161.7 250.102 149.2 248.502 135.5C246.402 135.2 244.402 135 242.402 135Z" fill="#0184EA"/>
<path d="M261.5 148.101L224.4 185.201" stroke="#0184EA" stroke-width="4.9521" stroke-miterlimit="10"/>
<path d="M331.801 55.7008C333.501 55.7008 335.201 55.9008 336.901 56.2008C339.801 56.8008 342.501 57.8008 345.101 59.3008C352.801 63.9008 357.601 72.1008 357.901 81.1008V81.2008V81.3008C357.901 81.4008 357.901 81.6008 357.901 81.8008C357.901 87.5008 356.001 93.1008 352.601 97.6008C350.301 100.701 347.301 103.201 343.901 104.901C340.401 106.701 336.501 107.701 332.501 107.801H332.401H332.301C332.201 107.801 332.101 107.801 331.901 107.801C317.501 107.801 305.901 96.2008 305.901 81.8008C305.901 81.8008 305.901 81.8008 305.901 81.7008C305.901 81.3008 305.901 80.9008 305.901 80.5008C306.301 73.4008 309.501 66.8008 314.801 62.2008C319.401 58.0008 325.501 55.7008 331.801 55.7008ZM331.701 50.8008C315.201 50.8008 301.601 63.8008 300.801 80.2008C300.801 80.7008 300.801 81.2008 300.801 81.7008C300.801 98.8008 314.701 112.701 331.801 112.701C332.001 112.701 332.201 112.701 332.501 112.701C349.301 112.301 362.801 98.6008 362.801 81.7008C362.801 81.5008 362.801 81.2008 362.801 81.0008C362.501 66.3008 351.901 54.1008 337.901 51.4008C335.801 51.0008 333.801 50.8008 331.701 50.8008Z" fill="#0184EA"/>
<path d="M312.401 64.3008C320.301 68.2008 327.601 73.2008 334.001 79.2008C340.401 85.3008 345.901 92.2008 350.301 99.9008C348.301 101.901 346.101 103.601 343.601 104.801C340.101 106.601 336.201 107.601 332.201 107.701H332.101H332.001C331.901 107.701 331.801 107.701 331.601 107.701C317.201 107.701 305.601 96.1008 305.601 81.7008C305.601 81.7008 305.601 81.7008 305.601 81.6008C305.601 81.2008 305.601 80.8008 305.601 80.4008C306.101 74.4008 308.401 68.7008 312.401 64.3008ZM311.401 58.3008C305.001 63.8008 301.201 71.7008 300.801 80.1008C300.801 80.6008 300.801 81.1008 300.801 81.6008C300.801 98.7008 314.701 112.601 331.801 112.601C332.001 112.601 332.201 112.601 332.501 112.601C341.901 112.401 350.701 107.901 356.501 100.401C346.501 81.8008 330.701 66.8008 311.401 58.3008Z" fill="#0184EA"/>
<path d="M350.201 81.6002C352.601 81.6002 355.201 82.3002 357.701 83.7002C356.801 95.4002 348.101 105.1 336.601 107.3C336.001 101.7 336.501 96.4002 338.001 92.0002C338.901 89.4002 340.101 87.3002 341.601 85.6002C343.001 84.0002 344.701 82.9002 346.501 82.2002C347.701 81.8002 348.901 81.6002 350.201 81.6002ZM350.201 76.7002C348.401 76.7002 346.601 77.0002 344.901 77.6002C334.001 81.4002 329.101 96.3002 332.401 112.7C349.201 112.4 362.701 98.6002 362.701 81.7002C362.701 81.5002 362.701 81.2002 362.701 81.0002C358.601 78.2002 354.301 76.7002 350.201 76.7002Z" fill="#0184EA"/>
<path d="M331.8 55.7008C332.3 55.7008 332.7 55.7008 333.2 55.7008C333.2 57.3008 333.1 59.0008 332.9 60.6008C332.6 63.2008 331.9 65.7008 330.8 68.1008C328.8 72.6008 325.7 75.9008 321.7 77.7008C319.5 78.7008 317.1 79.2008 314.7 79.2008C311.9 79.2008 309 78.6008 306.1 77.3008C308.3 64.8008 319.1 55.7008 331.8 55.7008ZM331.8 50.8008C315.2 50.8008 301.7 63.8008 300.9 80.2008C305.4 82.8008 310.1 84.1008 314.8 84.1008C317.9 84.1008 320.9 83.5008 323.8 82.2008C334.3 77.5008 339.5 65.0008 337.9 51.3008C335.8 51.0008 333.8 50.8008 331.8 50.8008Z" fill="#0184EA"/>
<path d="M350.901 63.8008L313.801 101.001" stroke="#0184EA" stroke-width="4.9521" stroke-miterlimit="10"/>
<path d="M286.501 179.301C283.201 179.301 279.901 178.501 277.001 176.801C274.101 175.201 271.601 172.701 270.001 169.801C268.401 166.901 267.501 163.701 267.501 160.301C267.501 156.501 268.501 153.101 270.301 150.101V138.701C270.301 135.501 270.801 132.501 271.701 129.801C272.701 127.001 274.201 124.401 276.401 121.801C276.801 121.301 277.301 120.801 277.801 120.201H251.701V110.301C251.701 104.201 253.201 98.5006 256.201 93.6006C259.201 88.6006 263.401 84.7006 268.701 81.8006C273.901 79.0006 279.801 77.6006 286.501 77.6006C293.301 77.6006 299.301 78.9006 304.401 81.5006C309.701 84.2006 314.001 88.1006 316.901 92.9006C319.801 97.7006 321.401 103.201 321.401 109.101C321.401 113.301 320.601 117.201 319.201 120.701C317.801 124.001 315.901 127.101 313.601 129.801C311.401 132.301 309.101 134.701 306.601 136.801C305.201 138.001 304.001 139.101 303.201 140.001C303.001 140.201 302.901 140.301 302.801 140.401V149.901C304.701 152.901 305.601 156.301 305.601 160.101C305.601 163.401 304.801 166.701 303.101 169.601C301.501 172.501 299.101 174.901 296.201 176.501C293.301 178.401 290.001 179.301 286.501 179.301ZM286.501 108.401C285.501 108.401 284.701 108.601 284.501 108.801C284.201 109.101 284.201 110.001 284.201 110.401V114.401C286.001 112.701 287.401 111.201 288.501 109.901C288.801 109.501 288.901 109.301 288.901 109.301C288.901 109.201 288.901 109.101 288.901 109.001C288.901 109.001 288.901 108.901 288.701 108.801C288.501 108.601 287.701 108.401 286.501 108.401Z" fill="#F3F3F3"/>
<path d="M279.601 143.3V139.3C279.601 137.2 279.901 135.3 280.501 133.7C281.101 132.1 282.001 130.5 283.401 128.8C284.801 127.2 286.601 125.4 288.901 123.4C291.801 120.9 294.001 118.6 295.601 116.5C297.201 114.4 298.001 112.2 298.001 109.8C298.001 106.8 296.901 104.2 294.701 102.2C292.501 100.2 289.501 99.1002 285.701 99.1002C281.901 99.1002 278.901 100.2 276.701 102.3C274.501 104.5 273.401 107.3 273.401 111H260.701C260.701 106.7 261.701 102.8 263.801 99.4002C265.901 96.0002 268.801 93.2002 272.501 91.2002C276.201 89.2002 280.601 88.2002 285.601 88.2002C290.801 88.2002 295.301 89.1002 299.001 91.0002C302.701 92.9002 305.501 95.5002 307.501 98.8002C309.501 102.1 310.501 105.8 310.501 109.8C310.501 112.7 310.001 115.3 309.001 117.6C308.001 120 306.601 122.2 305.001 124.1C303.201 126.2 301.201 128.2 299.101 130C297.401 131.4 296.101 132.7 295.001 133.8C294.001 134.9 293.101 136 292.601 137C292.101 138 291.801 139.3 291.801 140.9V143.2L279.601 143.3ZM285.801 170C284.201 170 282.601 169.6 281.201 168.8C279.801 168 278.701 166.9 277.901 165.5C277.101 164.1 276.701 162.5 276.701 160.9C276.701 158.3 277.601 156.1 279.301 154.4C281.001 152.7 283.201 151.8 285.801 151.8C288.401 151.8 290.501 152.7 292.301 154.4C294.001 156.1 294.901 158.3 294.901 160.9C294.901 162.5 294.501 164.1 293.701 165.5C292.901 166.9 291.801 168 290.501 168.8C289.101 169.6 287.501 170 285.801 170Z" fill="#0184EA"/>
<path d="M359.801 138.401C357.001 135.301 340.201 129.801 319.601 144.301C300.101 158.001 298.501 188.201 301.801 192.501C305.001 196.801 327.801 202.601 348.501 181.401C366.901 162.501 362.601 141.501 359.801 138.401Z" fill="#0184EA"/>
<path d="M343 139.2L358.1 154.6L356.9 160.9L336.4 140.4L343 139.2Z" fill="#F4F3F3"/>
<path d="M305.6 170.301L326.1 190.801L320.1 192.301L304.4 176.101L305.6 170.301Z" fill="#F4F3F3"/>
<path d="M342.602 160.2L341.202 161.6C340.902 161.9 340.302 161.9 340.002 161.6L337.802 159.5L335.402 162.2L337.702 164.5C338.002 164.8 338.002 165.4 337.702 165.7L336.302 167.1C336.002 167.4 335.402 167.4 335.102 167.1L332.902 165L330.202 167.9L332.502 170.2C332.802 170.5 332.802 171.1 332.502 171.4L331.102 172.8C330.802 173.1 330.202 173.1 329.902 172.8L327.702 170.7L325.102 173.5L327.402 175.8C327.702 176.1 327.702 176.7 327.402 177L326.002 178.4C325.702 178.7 325.102 178.7 324.802 178.4L322.602 176.2L320.802 178.2C320.602 178.4 320.302 178.4 320.102 178.2L318.202 176.4C318.002 176.2 318.002 175.9 318.202 175.7L320.102 173.6L318.202 171.7C317.902 171.4 317.902 170.8 318.202 170.5L319.602 169.1C319.902 168.8 320.502 168.8 320.802 169.1L322.602 170.9L325.202 168.1L323.302 166.2C323.002 165.9 323.002 165.3 323.302 165L324.702 163.6C325.002 163.3 325.602 163.3 325.902 163.6L327.702 165.4L330.402 162.5L328.502 160.6C328.202 160.3 328.202 159.7 328.502 159.4L329.902 158C330.202 157.7 330.802 157.7 331.102 158L332.902 159.8L335.302 157.1L333.402 155.2C333.102 154.9 333.102 154.3 333.402 154L334.802 152.6C335.102 152.3 335.702 152.3 336.002 152.6L337.802 154.4L339.602 152.4C339.802 152.2 340.102 152.2 340.302 152.4L342.202 154.2C342.402 154.4 342.402 154.7 342.202 154.9L340.302 157L342.602 159.3C342.902 159.4 342.902 159.9 342.602 160.2Z" fill="#F4F3F3"/>
<path d="M252.802 107.8C252.802 107.8 248.102 125.1 256.002 134.8C263.902 144.5 274.502 135.8 274.502 135.8L290.202 108.8L285.702 106L281.302 111.8L260.302 111.4L252.802 107.8Z" fill="white"/>
<text fill="#10B981" xml:space="preserve" style="white-space: pre" font-family="Bebas Neue" font-size="70" letter-spacing="0em"><tspan x="318.409" y="322.727">Your Friend Gets</tspan></text>
<rect width="894" height="194" transform="translate(65 356.5)" fill="#10B981"/>
<text fill="white" xml:space="preserve" style="white-space: pre" font-family="Inter" font-size="135.898" letter-spacing="0em"><tspan x="232.108" y="502.918">10% OFF</tspan></text>
<path d="M558.393 629.734C562.551 604.112 545.151 579.97 519.529 575.811C493.906 571.653 469.764 589.053 465.606 614.676C461.447 640.298 478.847 664.44 504.47 668.599C530.092 672.757 554.235 655.357 558.393 629.734Z" fill="#0184EA"/>
<path d="M535.483 618.1V626.4C535.483 628.1 534.083 629.6 532.283 629.6H519.283V642.6C519.283 644.3 517.883 645.8 516.083 645.8H507.783C506.083 645.8 504.583 644.4 504.583 642.6V629.6H491.583C489.883 629.6 488.383 628.2 488.383 626.4V618.1C488.383 616.4 489.783 614.9 491.583 614.9H504.583V601.9C504.583 600.2 505.983 598.7 507.783 598.7H516.083C517.783 598.7 519.283 600.1 519.283 601.9V614.9H532.283C534.083 614.9 535.483 616.3 535.483 618.1Z" fill="white"/>
<text fill="#10B981" xml:space="preserve" style="white-space: pre" font-family="Inter" font-size="70" letter-spacing="0em"><tspan x="218.361" y="735.575">you get</tspan></text>
<text fill="#10B981" xml:space="preserve" style="white-space: pre" font-family="Inter" font-size="70" letter-spacing="0em"><tspan x="310.361" y="818.575">cash</tspan></text>
<text fill="#0084DF" xml:space="preserve" style="white-space: pre" font-family="Arial" font-size="135" font-weight="900" letter-spacing="0em"><tspan x="624.641" y="805.014">$3</tspan></text>
<path d="M963.149 1372H60.7492C54.5492 1372 49.4492 1367 49.4492 1360.7V924.3C49.4492 918.1 54.4492 913 60.7492 913H963.249C969.449 913 974.549 918 974.549 924.3V1360.8C974.449 1367 969.449 1372 963.149 1372Z" fill="white"/>
<text fill="#0184EA" xml:space="preserve" style="white-space: pre" font-family="Inter" font-size="75" letter-spacing="0em"><tspan x="282.286" y="1004.1">How it works</tspan></text>
<text fill="#0184EA" xml:space="preserve" style="white-space: pre" font-family="Inter" font-size="29" letter-spacing="0em"><tspan x="412.567" y="1049.99">3 simple steps</tspan></text>
<path d="M168 1128.3C168 1128.3 167.7 1095.1 210.1 1095.1V1111.7C210.1 1111.6 183.7 1109.9 168 1128.3Z" fill="#0184EA"/>
<path d="M210.1 1103.2V1121.4L230.1 1103.2H210.1Z" fill="#0184EA"/>
<path d="M210.1 1103.2V1085.1L230.1 1103.2H210.1Z" fill="#0184EA"/>
<text fill="#10B981" xml:space="preserve" style="white-space: pre" font-family="Inter" font-size="35" letter-spacing="0em"><tspan x="153.051" y="1184.41">share </tspan></text>
<text fill="#10B981" xml:space="preserve" style="white-space: pre" font-family="Inter" font-size="35" letter-spacing="0em"><tspan x="129.051" y="1228.41">your link</tspan></text>
<text fill="#10B981" xml:space="preserve" style="white-space: pre" font-family="Inter" font-size="35" letter-spacing="0em"><tspan x="417.051" y="1184.41">friend plays </tspan></text>
<text fill="#10B981" xml:space="preserve" style="white-space: pre" font-family="Inter" font-size="35" letter-spacing="0em"><tspan x="454.551" y="1229.41">&#38;saves</tspan></text>
<path d="M518.151 1127.5C518.151 1128.4 517.451 1129.1 516.551 1129.1H510.651C509.751 1129.1 509.051 1128.4 509.051 1127.5C509.051 1126.6 509.751 1125.9 510.651 1125.9H516.551C517.451 1125.9 518.151 1126.6 518.151 1127.5ZM531.051 1083.6V1132.1C531.051 1134.7 528.951 1136.9 526.251 1136.9H500.851C498.251 1136.9 496.051 1134.8 496.051 1132.1V1083.6C496.051 1081 498.151 1078.8 500.851 1078.8H526.251C528.951 1078.8 531.051 1081 531.051 1083.6ZM509.451 1082L509.551 1082.2H517.651L517.751 1082H509.451ZM527.951 1083.6C527.951 1082.7 527.251 1082 526.351 1082H521.351L520.151 1084.5C519.851 1085.1 519.351 1085.4 518.751 1085.4H508.651C508.051 1085.4 507.451 1085 507.251 1084.5L506.051 1082H501.051C500.151 1082 499.451 1082.7 499.451 1083.6V1132.1C499.451 1133 500.151 1133.7 501.051 1133.7H526.451C527.351 1133.7 528.051 1133 528.051 1132.1L527.951 1083.6Z" fill="#0184EA"/>
<text fill="#10B981" xml:space="preserve" style="white-space: pre" font-family="Inter" font-size="35" letter-spacing="0em"><tspan x="758.051" y="1184.41">you earn</tspan></text>
<text fill="#10B981" xml:space="preserve" style="white-space: pre" font-family="Myriad Pro" font-size="35" font-weight="bold" letter-spacing="0em"><tspan x="808.85" y="1225.43">$</tspan></text>
<text fill="#10B981" xml:space="preserve" style="white-space: pre" font-family="Inter" font-size="35" letter-spacing="0em"><tspan x="828.25" y="1229.41">3</tspan></text>
<path d="M828.204 1145.7H832.704C834.004 1145.7 835.104 1144.6 835.104 1143.3V1139.1C838.704 1138.6 841.804 1137.4 844.404 1135.7C848.604 1132.9 850.704 1129.2 850.804 1124.3C850.904 1121.3 850.004 1118.7 848.304 1116.6C845.504 1113.2 841.104 1111.1 835.104 1110.3V1101.9C836.104 1102.4 837.204 1103.1 838.104 1103.9C838.704 1104.4 839.404 1104.7 840.204 1104.7C840.804 1104.7 841.704 1104.3 841.704 1104.3L846.704 1101.2C847.404 1100.8 847.704 1100.2 847.704 1099.5C847.704 1099 847.504 1098.5 847.004 1098.1C843.904 1094.5 839.904 1092.3 834.904 1091.5V1086.8C834.904 1085.5 833.804 1084.4 832.504 1084.4H828.004C826.704 1084.4 825.604 1085.5 825.604 1086.8V1091.4C823.304 1091.7 821.204 1092.3 819.304 1093.2C813.304 1095.9 810.304 1100 810.404 1105.5C810.404 1108.2 811.304 1110.5 812.804 1112.6C815.404 1116.1 819.704 1118.3 825.504 1119.2V1129.7C823.004 1128.8 820.604 1127.1 818.304 1124.7C817.804 1124.1 817.104 1123.7 816.304 1123.7C815.804 1123.7 815.004 1124.1 815.004 1124.1L810.404 1126.8C809.604 1127.3 809.204 1127.9 809.304 1128.6C809.304 1129.1 809.504 1129.5 809.804 1129.9C811.004 1131.6 812.604 1133.1 814.604 1134.7C817.804 1137.2 821.504 1138.7 825.504 1139.4V1143.5C825.704 1144.6 826.804 1145.7 828.204 1145.7ZM835.104 1120.1C837.504 1120.9 838.704 1122.3 838.704 1124.3C838.704 1126.2 837.804 1127.7 836.104 1128.8C835.804 1129 835.504 1129.2 835.104 1129.3V1120.1ZM822.804 1105.3C822.804 1103.8 823.704 1102.6 825.404 1101.8L825.704 1101.7V1109.2C823.804 1108.4 822.804 1107.1 822.804 1105.3Z" fill="#0084E3"/>
<rect width="466.8" height="83.6" transform="translate(278.6 1254.9)" fill="#10B981"/>
<text fill="white" xml:space="preserve" style="white-space: pre" font-family="Inter" font-size="30" letter-spacing="0em"><tspan x="391.473" y="1307.61">invite &#38; earn win!</tspan></text>
<text fill="#10B981" xml:space="preserve" style="white-space: pre" font-family="Bebas Neue" font-size="80" font-weight="bold" letter-spacing="0.23em"><tspan x="85.4019" y="1471.84">Speed Wins. Always.</tspan></text>
</g>
<defs>
<clipPath id="clip0_35_11504">
<rect width="1024" height="1536" fill="white"/>
</clipPath>
</defs>
</svg>
