<svg width="1024" height="1536" viewBox="0 0 1024 1536" fill="none" xmlns="http://www.w3.org/2000/svg">
<g clip-path="url(#clip0_35_12171)">
<path d="M1023.9 0H0V1535.9H1023.9V0Z" fill="#F3FEFD"/>
<path d="M451.001 114.799C450.801 114.599 450.001 114.099 448.701 113.299C447.101 112.399 445.501 111.499 443.901 110.799C441.901 109.899 439.801 109.199 437.601 108.599C435.401 107.999 433.101 107.699 430.701 107.699C427.701 107.699 425.401 108.199 423.701 109.299C422.101 110.399 421.201 111.899 421.201 113.999C421.201 115.599 421.801 116.899 423.101 117.999C424.301 118.999 426.201 119.899 428.501 120.599C430.901 121.299 433.801 122.199 437.201 123.099C442.101 124.399 446.301 125.999 449.901 127.799C453.501 129.599 456.201 131.899 458.101 134.699C460.001 137.499 460.901 141.299 460.901 145.899C460.901 150.099 460.101 153.599 458.601 156.599C457.101 159.599 454.901 161.999 452.101 163.799C449.301 165.599 446.301 166.899 442.901 167.699C439.401 168.499 435.901 168.899 432.301 168.899C428.401 168.899 424.601 168.499 420.901 167.699C417.101 166.899 413.301 165.799 409.701 164.399C406.301 163.099 403.001 161.399 399.801 159.499L407.401 144.299C407.801 144.699 408.701 145.399 410.301 146.299C411.901 147.199 413.801 148.199 416.201 149.199C418.701 150.299 421.301 151.199 424.001 151.999C426.801 152.799 429.701 153.199 432.601 153.199C435.801 153.199 438.201 152.699 439.701 151.699C441.201 150.699 442.001 149.299 442.001 147.499C442.001 145.699 441.201 144.199 439.601 143.099C438.001 141.999 435.801 140.999 433.101 140.099C430.401 139.199 427.201 138.299 423.601 137.299C418.901 135.799 415.101 134.199 412.101 132.499C409.101 130.799 406.801 128.599 405.301 126.099C403.801 123.599 403.101 120.399 403.101 116.699C403.101 111.299 404.401 106.899 406.901 103.199C409.401 99.4992 412.901 96.7992 417.201 94.9992C421.501 93.0992 426.201 92.1992 431.301 92.1992C434.801 92.1992 438.301 92.5992 441.701 93.4992C444.901 94.2992 448.001 95.3992 451.101 96.6992C454.001 97.9992 456.601 99.2992 458.701 100.599L451.001 114.799Z" fill="#0184EA"/>
<path d="M504.7 168.499C499.1 168.499 494 167.399 489.4 165.299C484.8 163.199 480.8 160.299 477.4 156.699C474.1 153.099 471.4 148.999 469.7 144.399C467.9 139.899 467 135.099 467 130.299C467 125.399 468 120.499 469.8 115.999C471.7 111.499 474.4 107.399 477.8 103.899C481.2 100.399 485.2 97.5994 489.9 95.4994C494.6 93.3994 499.7 92.3994 505.2 92.3994C510.9 92.3994 516 93.4994 520.6 95.6994C525.2 97.8994 529.2 100.799 532.5 104.499C535.8 108.099 538.4 112.299 540.2 116.799C542 121.399 542.9 125.999 542.9 130.699C542.9 135.599 542 140.499 540.1 144.999C536.3 154.199 529.1 161.499 520.1 165.499C515.4 167.499 510.3 168.499 504.7 168.499ZM505 153.099C508.3 153.099 511.2 152.499 513.7 151.099C516.1 149.899 518.3 148.099 519.9 145.899C521.5 143.699 522.8 141.199 523.6 138.599C524.4 135.899 524.8 133.099 524.8 130.399C524.8 127.499 524.3 124.699 523.4 121.999C522.5 119.399 521.2 116.899 519.5 114.799C517.8 112.699 515.6 110.999 513.2 109.799C510.7 108.599 507.9 107.999 504.7 107.999C501.3 107.999 498.4 108.699 495.9 109.999C493.5 111.199 491.3 113.099 489.7 115.199C488.1 117.399 486.8 119.799 485.9 122.399C485 125.099 484.6 127.899 484.6 130.699C484.6 133.499 485 136.399 486 139.099C486.9 141.699 488.2 144.199 489.9 146.299C491.6 148.399 493.7 150.199 496.1 151.399C498.7 152.499 501.6 153.099 505 153.099ZM500.2 138.399H516.7L544 167.999H527.3L500.2 138.399Z" fill="#0184EA"/>
<path d="M585.802 168.599C579.702 168.599 574.502 167.599 570.202 165.599C565.902 163.599 562.402 160.799 559.702 157.299C557.002 153.799 555.002 149.799 553.802 145.299C552.502 140.699 551.902 135.999 551.902 131.299V92.8994H569.602V131.299C569.602 134.099 569.902 136.799 570.402 139.499C571.002 142.099 571.902 144.399 573.102 146.399C574.302 148.399 576.102 150.099 578.102 151.299C580.202 152.499 582.702 153.199 585.702 153.199C588.702 153.199 591.202 152.599 593.302 151.399C595.402 150.199 597.102 148.499 598.302 146.399C599.602 144.199 600.502 141.799 601.102 139.299C601.702 136.699 602.002 133.999 602.002 131.299V92.8994H619.502V131.299C619.502 136.499 618.802 141.399 617.502 145.899C616.202 150.399 614.202 154.299 611.402 157.799C608.702 161.299 605.202 163.899 600.902 165.799C596.902 167.699 591.802 168.599 585.802 168.599Z" fill="#0184EA"/>
<path d="M649.4 92.8994H668.3L694.7 167.999H676.6L670.7 151.199H646.9L641.1 167.999H623L649.4 92.8994ZM667.6 139.299L658.9 110.299L649.7 139.299H667.6Z" fill="#0184EA"/>
<path d="M702.102 167.999V92.8994H736.402C740.102 92.8994 743.402 93.5994 746.502 95.0994C749.602 96.5994 752.202 98.4994 754.402 100.899C756.602 103.299 758.302 106.099 759.602 108.999C760.802 111.899 761.502 115.099 761.502 118.299C761.502 121.299 761.002 124.299 759.902 127.099C758.902 129.799 757.402 132.399 755.602 134.599C753.802 136.799 751.502 138.599 749.102 139.999L765.902 167.899H746.402L731.802 143.699H719.902V167.999H702.102ZM719.802 128.599H736.002C737.302 128.599 738.602 128.199 739.702 127.299C740.802 126.499 741.702 125.299 742.402 123.699C743.102 122.099 743.502 120.399 743.502 118.399C743.502 116.299 743.102 114.499 742.302 112.999C741.502 111.499 740.402 110.299 739.202 109.499C738.002 108.699 736.702 108.199 735.402 108.199H719.802V128.599Z" fill="#0184EA"/>
<path d="M827.702 152.799V167.999H774.102V92.8994H826.802V108.099H791.802V122.699H821.902V136.799H791.802V152.799H827.702Z" fill="#0184EA"/>
<path d="M449.803 197H433.503V237.7H421.103V197H404.703V186.6H449.803V197Z" fill="#0184EA"/>
<path d="M474.703 237.6V186.6H498.803C501.403 186.6 503.703 187.1 505.903 188.1C508.003 189 509.903 190.4 511.403 192C512.903 193.6 514.203 195.5 515.003 197.5C515.903 199.5 516.303 201.6 516.303 203.8C516.303 207.9 514.803 211.8 512.103 214.9C510.803 216.4 509.203 217.6 507.503 218.6L519.303 237.6H505.603L495.303 221.2H486.903V237.6H474.703ZM487.103 210.9H498.603C499.503 210.9 500.503 210.6 501.203 210C502.003 209.4 502.603 208.6 503.103 207.6C503.603 206.5 503.903 205.4 503.903 204C503.903 202.6 503.603 201.3 503.003 200.3C502.403 199.3 501.703 198.5 500.803 197.9C499.903 197.3 499.003 197 498.103 197H487.103V210.9Z" fill="#0184EA"/>
<path d="M544.203 237.6V186.6H556.603V237.6H544.203Z" fill="#0184EA"/>
<path d="M593.602 186.699L606.202 223.899L618.702 186.699H631.802L612.302 237.699H600.102L580.402 186.699H593.602Z" fill="#0184EA"/>
<path d="M655.801 237.6V186.6H668.201V237.6H655.801Z" fill="#0184EA"/>
<path d="M710.902 186.699H724.202L742.802 237.699H730.102L726.502 226.299H708.802L705.102 237.699H692.402L710.902 186.699ZM723.902 218.199L717.602 198.499L711.302 218.199H723.902Z" fill="#0184EA"/>
<path d="M224.201 79.5996H350.101C365.501 79.5996 378.101 92.0996 378.101 107.6V222.5C378.101 237.9 365.601 250.4 350.101 250.4H224.201C208.801 250.4 196.301 237.9 196.301 222.5V107.6C196.201 92.0996 208.801 79.5996 224.201 79.5996Z" fill="white" stroke="#0184EA" stroke-width="8.1425" stroke-miterlimit="10"/>
<path d="M375.602 160.8H198.602V169H375.602V160.8Z" fill="#0184EA"/>
<path d="M291.2 82.5996H283V247.4H291.2V82.5996Z" fill="#0184EA"/>
<path d="M270.302 94.3999C267.502 91.2999 250.702 85.7999 230.102 100.3C210.602 114 209.002 144.2 212.302 148.5C215.502 152.8 238.202 158.6 259.002 137.4C277.402 118.6 273.202 97.5999 270.302 94.3999Z" fill="#0184EA"/>
<path d="M253.6 95.2998L268.6 110.7L267.4 117L247 96.4998L253.6 95.2998Z" fill="#F4F3F3"/>
<path d="M216.102 126.399L236.702 146.899L230.702 148.399L214.902 132.199L216.102 126.399Z" fill="#F4F3F3"/>
<path d="M253.203 116.3L251.803 117.7C251.503 118 250.903 118 250.603 117.7L248.403 115.5L246.003 118.2L248.303 120.5C248.603 120.8 248.603 121.3 248.303 121.7L246.903 123.1C246.603 123.4 246.003 123.4 245.703 123.1L243.503 120.9L240.803 123.8L243.103 126.1C243.403 126.4 243.403 127 243.103 127.3L241.703 128.7C241.403 129 240.803 129 240.503 128.7L238.303 126.5L235.703 129.3L238.003 131.6C238.303 131.9 238.303 132.5 238.003 132.8L236.603 134.2C236.303 134.5 235.703 134.5 235.403 134.2L233.203 132L231.403 134C231.203 134.2 230.903 134.2 230.703 134L228.803 132.2C228.603 132 228.603 131.7 228.803 131.5L230.703 129.4L228.803 127.5C228.503 127.2 228.503 126.7 228.803 126.3L230.203 124.9C230.503 124.6 231.103 124.6 231.403 124.9L233.203 126.7L235.803 123.9L233.903 122C233.603 121.7 233.603 121.2 233.903 120.8L235.303 119.4C235.603 119.1 236.203 119.1 236.503 119.4L238.303 121.2L241.003 118.3L239.103 116.4C238.803 116.1 238.803 115.5 239.103 115.2L240.503 113.8C240.803 113.5 241.403 113.5 241.703 113.8L243.503 115.6L245.903 112.9L244.003 111C243.703 110.7 243.703 110.1 244.003 109.8L245.403 108.4C245.703 108.1 246.303 108.1 246.603 108.4L248.403 110.2L250.203 108.2C250.403 108 250.703 108 250.903 108.2L252.803 110C253.003 110.2 253.003 110.5 252.803 110.7L250.903 112.8L253.203 115.1C253.503 115.4 253.503 116 253.203 116.3Z" fill="#F4F3F3"/>
<path d="M242.4 180.699C244.1 180.699 245.8 180.899 247.5 181.199C250.4 181.799 253.1 182.799 255.7 184.299C263.4 188.899 268.3 197.099 268.5 206.099V206.199V206.299C268.5 206.399 268.5 206.599 268.5 206.799C268.5 212.499 266.6 218.099 263.2 222.599C260.9 225.699 257.9 228.199 254.5 229.899C251 231.699 247.1 232.699 243.1 232.799H243H242.9C242.8 232.799 242.7 232.799 242.5 232.799C228.1 232.799 216.5 221.199 216.5 206.799C216.5 206.399 216.5 205.999 216.5 205.599C216.8 198.499 220.1 191.899 225.4 187.299C230 182.899 236.1 180.699 242.4 180.699ZM242.4 175.699C225.9 175.699 212.3 188.599 211.5 205.099C211.5 205.599 211.5 206.099 211.5 206.599C211.5 223.699 225.4 237.599 242.5 237.599C242.7 237.599 242.9 237.599 243.2 237.599C260.1 237.199 273.5 223.499 273.5 206.599C273.5 206.399 273.5 206.099 273.5 205.899C273.2 191.199 262.6 178.999 248.6 176.299C246.4 175.899 244.4 175.699 242.4 175.699Z" fill="#0184EA"/>
<path d="M223.1 189.3C231 193.2 238.3 198.2 244.7 204.2C251.1 210.3 256.6 217.2 261 224.9C259.1 226.9 256.8 228.6 254.3 229.8C250.8 231.6 246.9 232.6 242.9 232.7H242.8H242.7C242.6 232.7 242.5 232.7 242.3 232.7C227.9 232.7 216.3 221.1 216.3 206.7C216.3 206.3 216.3 205.9 216.3 205.5C216.7 199.4 219 193.7 223.1 189.3ZM222.1 183.3C215.7 188.8 211.9 196.7 211.5 205.1C211.5 205.6 211.5 206.1 211.5 206.6C211.5 223.7 225.4 237.6 242.5 237.6C242.7 237.6 242.9 237.6 243.2 237.6C252.6 237.4 261.4 232.9 267.1 225.4C257.2 206.8 241.4 191.8 222.1 183.3Z" fill="#0184EA"/>
<path d="M260.8 206.6C263.2 206.6 265.8 207.3 268.3 208.7C267.4 220.4 258.7 230.1 247.2 232.3C246.6 226.7 247.1 221.4 248.6 217C249.5 214.4 250.7 212.3 252.2 210.6C253.6 209 255.3 207.9 257.1 207.2C258.3 206.8 259.5 206.6 260.8 206.6ZM260.8 201.6C259 201.6 257.2 201.9 255.5 202.5C244.6 206.3 239.7 221.2 243.1 237.6C259.9 237.2 273.4 223.5 273.4 206.6C273.4 206.4 273.4 206.1 273.4 205.9C269.3 203.2 265 201.6 260.8 201.6Z" fill="#0184EA"/>
<path d="M242.4 180.699C242.8 180.699 243.3 180.699 243.8 180.699C243.8 182.299 243.7 183.999 243.5 185.599C243.2 188.199 242.5 190.699 241.4 193.099C239.4 197.599 236.3 200.899 232.3 202.699C230.1 203.699 227.7 204.199 225.4 204.199C222.6 204.199 219.7 203.599 216.8 202.299C218.9 189.799 229.7 180.699 242.4 180.699ZM242.4 175.699C225.8 175.699 212.3 188.699 211.5 205.099C216 207.699 220.7 208.999 225.4 208.999C228.5 208.999 231.5 208.399 234.4 207.099C244.9 202.399 250.1 189.899 248.5 176.199C246.4 175.899 244.4 175.699 242.4 175.699Z" fill="#0184EA"/>
<path d="M261.602 188.8L224.402 226" stroke="#0184EA" stroke-width="4.9521" stroke-miterlimit="10"/>
<path d="M331.802 96.4C333.502 96.4 335.202 96.6 336.902 96.9C339.802 97.5 342.502 98.5 345.102 100C352.802 104.6 357.602 112.8 357.902 121.8V121.9V122C357.902 122.1 357.902 122.3 357.902 122.5C357.902 128.2 356.002 133.8 352.602 138.3C350.302 141.4 347.302 143.9 343.902 145.6C340.402 147.4 336.502 148.4 332.502 148.5H332.402H332.302C332.202 148.5 332.102 148.5 331.902 148.5C317.502 148.5 305.902 136.9 305.902 122.5C305.902 122.5 305.902 122.5 305.902 122.4C305.902 122 305.902 121.6 305.902 121.2C306.302 114.1 309.502 107.5 314.802 102.9C319.402 98.7 325.502 96.4 331.802 96.4ZM331.802 91.5C315.302 91.5 301.702 104.4 300.902 120.9C300.902 121.4 300.902 121.9 300.902 122.4C300.902 139.5 314.802 153.4 331.902 153.4C332.102 153.4 332.302 153.4 332.602 153.4C349.402 153 362.902 139.3 362.902 122.4C362.902 122.2 362.902 121.9 362.902 121.7C362.602 107 352.002 94.8 338.002 92.1C335.802 91.7 333.802 91.5 331.802 91.5Z" fill="#0184EA"/>
<path d="M312.501 105C320.401 108.9 327.701 113.9 334.101 119.9C340.501 126 346.001 132.9 350.401 140.6C348.401 142.6 346.201 144.3 343.701 145.5C340.201 147.3 336.301 148.3 332.301 148.4H332.201H332.101C332.001 148.4 331.901 148.4 331.701 148.4C317.301 148.4 305.701 136.8 305.701 122.4C305.701 122.4 305.701 122.4 305.701 122.3C305.701 121.9 305.701 121.5 305.701 121.1C306.101 115.1 308.401 109.4 312.501 105ZM311.401 99.0996C305.001 104.6 301.201 112.5 300.801 120.9C300.801 121.4 300.801 121.9 300.801 122.4C300.801 139.5 314.701 153.4 331.801 153.4C332.001 153.4 332.201 153.4 332.501 153.4C341.901 153.2 350.701 148.7 356.501 141.2C346.601 122.6 330.801 107.6 311.401 99.0996Z" fill="#0184EA"/>
<path d="M350.201 122.299C352.601 122.299 355.201 122.999 357.701 124.399C356.801 136.099 348.101 145.799 336.601 147.999C336.001 142.399 336.501 137.099 338.001 132.699C338.901 130.099 340.101 127.999 341.601 126.299C343.001 124.699 344.701 123.599 346.501 122.899C347.701 122.499 348.901 122.299 350.201 122.299ZM350.201 117.399C348.401 117.399 346.601 117.699 344.901 118.299C334.001 122.099 329.101 136.999 332.401 153.399C349.201 152.999 362.701 139.299 362.701 122.399C362.701 122.199 362.701 121.899 362.701 121.699C358.701 118.899 354.301 117.399 350.201 117.399Z" fill="#0184EA"/>
<path d="M331.802 96.4C332.302 96.4 332.702 96.4 333.202 96.4C333.202 98 333.102 99.7 332.902 101.3C332.602 103.9 331.902 106.4 330.802 108.8C328.802 113.3 325.702 116.6 321.702 118.4C319.502 119.4 317.102 119.9 314.702 119.9C311.902 119.9 309.002 119.3 306.102 118C308.302 105.6 319.102 96.4 331.802 96.4ZM331.802 91.5C315.202 91.5 301.702 104.6 300.902 120.9C305.402 123.5 310.102 124.8 314.802 124.8C317.902 124.8 320.902 124.2 323.802 122.9C334.302 118.2 339.502 105.7 337.902 92C335.802 91.7 333.802 91.5 331.802 91.5Z" fill="#0184EA"/>
<path d="M350.901 104.6L313.801 141.7" stroke="#0184EA" stroke-width="4.9521" stroke-miterlimit="10"/>
<path d="M286.603 220C283.303 220 280.003 219.2 277.103 217.5C274.203 215.9 271.703 213.4 270.103 210.5C268.503 207.6 267.603 204.4 267.603 201C267.603 197.2 268.603 193.8 270.403 190.8V179.4C270.403 176.2 270.903 173.2 271.803 170.5C272.803 167.7 274.303 165.1 276.403 162.5C276.803 162 277.303 161.5 277.803 160.9H251.703V151C251.703 144.9 253.203 139.2 256.203 134.3C259.203 129.3 263.403 125.4 268.703 122.5C273.903 119.7 279.803 118.3 286.503 118.3C293.303 118.3 299.303 119.6 304.403 122.2C309.703 124.9 314.003 128.8 316.903 133.6C319.803 138.4 321.403 143.9 321.403 149.8C321.403 154 320.603 157.9 319.203 161.4C317.803 164.7 315.903 167.8 313.603 170.5C311.403 173 309.103 175.4 306.603 177.5C305.203 178.7 304.003 179.8 303.203 180.7C303.003 180.9 302.903 181 302.803 181.1V190.6C304.703 193.6 305.603 197 305.603 200.8C305.603 204.1 304.803 207.4 303.103 210.3C301.503 213.2 299.103 215.6 296.203 217.2C293.303 219.2 290.103 220 286.603 220ZM286.603 149.1C285.603 149.1 284.803 149.2 284.603 149.5C284.303 149.8 284.303 150.7 284.303 151.1V155.1C286.103 153.5 287.503 152 288.603 150.6C288.903 150.2 289.003 150 289.003 150C289.003 149.9 289.003 149.8 289.003 149.7C289.003 149.7 289.003 149.6 288.803 149.5C288.503 149.3 287.703 149.1 286.603 149.1Z" fill="#F3F3F3"/>
<path d="M279.603 183.999V179.999C279.603 177.899 279.903 175.999 280.503 174.399C281.103 172.799 282.003 171.199 283.403 169.499C284.803 167.799 286.603 166.099 288.903 164.099C291.803 161.599 294.003 159.299 295.603 157.199C297.203 155.099 298.003 152.899 298.003 150.499C298.003 147.499 296.903 144.899 294.703 142.899C292.503 140.899 289.503 139.799 285.703 139.799C281.903 139.799 278.903 140.899 276.703 142.999C274.503 145.099 273.403 147.999 273.403 151.699H260.703C260.703 147.399 261.703 143.499 263.803 140.099C265.903 136.699 268.803 133.999 272.503 131.899C276.203 129.899 280.603 128.899 285.603 128.899C290.803 128.899 295.303 129.799 299.003 131.699C302.703 133.599 305.503 136.199 307.503 139.499C309.503 142.799 310.503 146.499 310.503 150.499C310.503 153.399 310.003 155.999 309.003 158.299C308.003 160.699 306.603 162.899 305.003 164.799C303.203 166.899 301.203 168.899 299.103 170.699C297.403 172.099 296.103 173.399 295.003 174.499C294.003 175.599 293.103 176.699 292.603 177.699C292.103 178.699 291.803 179.999 291.803 181.599V183.899L279.603 183.999ZM285.803 210.699C284.203 210.699 282.603 210.299 281.203 209.499C279.803 208.699 278.703 207.599 277.903 206.199C277.103 204.799 276.703 203.199 276.703 201.599C276.703 198.999 277.603 196.799 279.303 195.099C281.003 193.399 283.203 192.499 285.803 192.499C288.403 192.499 290.503 193.399 292.303 195.099C294.003 196.799 294.903 198.999 294.903 201.599C294.903 203.199 294.503 204.799 293.703 206.199C292.903 207.599 291.803 208.699 290.503 209.499C289.103 210.299 287.603 210.699 285.803 210.699Z" fill="#0184EA"/>
<path d="M359.802 179.1C357.002 176 340.202 170.5 319.602 185C300.102 198.7 298.502 228.9 301.802 233.2C305.102 237.5 327.802 243.3 348.502 222.1C366.902 203.2 362.602 182.2 359.802 179.1Z" fill="#0184EA"/>
<path d="M343.1 180L358.1 195.4L356.9 201.6L336.5 181.2L343.1 180Z" fill="#F4F3F3"/>
<path d="M305.602 211L326.102 231.6L320.102 233L304.402 216.8L305.602 211Z" fill="#F4F3F3"/>
<path d="M342.602 200.899L341.202 202.299C340.902 202.599 340.302 202.599 340.002 202.299L337.802 200.199L335.402 202.899L337.702 205.199C338.002 205.499 338.002 206.099 337.702 206.399L336.302 207.799C336.002 208.099 335.402 208.099 335.102 207.799L332.902 205.699L330.202 208.599L332.502 210.899C332.802 211.199 332.802 211.799 332.502 212.099L331.102 213.499C330.802 213.799 330.202 213.799 329.902 213.499L327.702 211.399L325.102 214.199L327.402 216.499C327.702 216.799 327.702 217.399 327.402 217.699L326.002 219.099C325.702 219.399 325.102 219.399 324.802 219.099L322.602 216.899L320.802 218.899C320.602 219.099 320.302 219.099 320.102 218.899L318.202 217.099C318.002 216.899 318.002 216.599 318.202 216.399L320.102 214.299L318.202 212.399C317.902 212.099 317.902 211.499 318.202 211.199L319.602 209.799C319.902 209.499 320.502 209.499 320.802 209.799L322.602 211.599L325.202 208.799L323.302 206.899C323.002 206.599 323.002 205.999 323.302 205.699L324.702 204.299C325.002 203.999 325.602 203.999 325.902 204.299L327.702 206.099L330.402 203.199L328.502 201.299C328.202 200.999 328.202 200.399 328.502 200.099L329.902 198.699C330.202 198.399 330.802 198.399 331.102 198.699L332.902 200.499L335.302 197.799L333.402 195.899C333.102 195.599 333.102 194.999 333.402 194.699L334.802 193.299C335.102 192.999 335.702 192.999 336.002 193.299L337.802 195.099L339.602 193.099C339.802 192.899 340.102 192.899 340.302 193.099L342.202 194.899C342.402 195.099 342.402 195.399 342.202 195.599L340.302 197.699L342.602 199.999C342.902 200.099 342.902 200.599 342.602 200.899Z" fill="#F4F3F3"/>
<path d="M252.802 148.499C252.802 148.499 248.102 165.899 256.002 175.499C263.802 185.099 274.502 176.499 274.502 176.499L290.202 149.499L285.702 146.699L281.302 152.499L260.302 152.099L252.802 148.499Z" fill="white"/>
<path d="M915.849 557.9H108.149C103.649 557.9 99.9492 554.2 99.9492 549.7V403.1C99.9492 398.6 103.649 394.9 108.149 394.9H915.849C920.349 394.9 924.049 398.6 924.049 403.1V549.7C924.049 554.3 920.349 557.9 915.849 557.9Z" fill="#FEFEFE"/>
<g filter="url(#filter0_d_35_12171)">
<path d="M350.249 557.9H110.649C104.749 557.9 99.9492 553.1 99.9492 547.2V405.6C99.9492 399.7 104.749 394.9 110.649 394.9H350.249V557.9Z" fill="white"/>
</g>
<path d="M286.4 428.713C286 428.413 285.5 428.213 285 428.313C282.3 428.713 279.4 429.213 276.4 429.713C262 432.113 244 435.213 225 435.213C206 435.213 188 432.213 173.6 429.713C170.6 429.213 167.7 428.713 165 428.313C164.5 428.213 164 428.413 163.6 428.713C163.2 429.013 163 429.513 163 430.013V502.413C163 502.913 163.2 503.413 163.6 503.713C164 504.013 164.5 504.213 165 504.113C167.8 503.713 170.7 503.213 173.7 502.713C186.4 500.613 201.9 497.913 218.5 497.413C219.6 497.413 220.8 497.313 221.9 497.313C223 497.313 224 497.313 225.1 497.313C226.2 497.313 227.2 497.313 228.3 497.313C229.4 497.313 230.6 497.313 231.7 497.413C248.2 498.013 263.7 500.613 276.5 502.713C279.6 503.213 282.5 503.713 285.2 504.113C285.3 504.113 285.4 504.113 285.5 504.113C285.9 504.113 286.3 504.013 286.6 503.713C287 503.413 287.2 502.913 287.2 502.413V430.013C287 429.513 286.8 429.013 286.4 428.713ZM283.6 492.613C281.4 492.213 279.2 491.913 276.9 491.513C262.4 489.013 244.3 486.013 225 486.013C205.7 486.013 187.6 489.113 173.1 491.513C170.8 491.913 168.5 492.313 166.4 492.613V432.013C168.5 432.313 170.7 432.713 173 433.113C187.6 435.613 205.7 438.613 225 438.613C244.3 438.613 262.4 435.513 277 433.113C279.3 432.713 281.5 432.313 283.6 432.013V492.613ZM257.4 518.313V522.813C257.4 523.313 257.2 523.813 256.7 524.113C256.3 524.413 255.8 524.513 255.2 524.413L224.9 516.813L194.6 524.413C194.5 524.413 194.3 524.513 194.2 524.513C193.8 524.513 193.5 524.413 193.2 524.113C192.8 523.813 192.5 523.313 192.5 522.813V518.313C192.5 517.613 192.9 516.913 193.6 516.713L218.3 507.813V500.713C219.4 500.713 220.6 500.613 221.7 500.613C222.8 500.613 223.8 500.613 224.9 500.613C226 500.613 227 500.613 228.1 500.613C229.2 500.613 230.4 500.713 231.5 500.713V507.813L256.2 516.713C256.9 516.913 257.4 517.613 257.4 518.313Z" fill="#10B981"/>
<text fill="#001E3A" xml:space="preserve" style="white-space: pre" font-family="Inter" font-size="45" font-weight="bold" letter-spacing="0em"><tspan x="375.02" y="460.764">Social media: </tspan></text>
<text fill="#10B981" xml:space="preserve" style="white-space: pre" font-family="Inter" font-size="45" font-weight="bold" letter-spacing="0em"><tspan x="679.32" y="460.764">pay you </tspan></text>
<text fill="#10B981" xml:space="preserve" style="white-space: pre" font-family="Inter" font-size="45" font-weight="bold" letter-spacing="0em"><tspan x="375.02" y="510.764">$0</tspan></text>
<path d="M915.849 787.9H108.149C103.649 787.9 99.9492 784.2 99.9492 779.7V633.1C99.9492 628.6 103.649 624.9 108.149 624.9H915.849C920.349 624.9 924.049 628.6 924.049 633.1V779.7C924.049 784.3 920.349 787.9 915.849 787.9Z" fill="#FEFEFE"/>
<text fill="#001E3A" xml:space="preserve" style="white-space: pre" font-family="Inter" font-size="45" font-weight="bold" letter-spacing="0em"><tspan x="375.02" y="690.764">Streaming: </tspan></text>
<text fill="#10B981" xml:space="preserve" style="white-space: pre" font-family="Inter" font-size="45" font-weight="bold" letter-spacing="0em"><tspan x="624.621" y="690.764">Pay you </tspan></text>
<text fill="#10B981" xml:space="preserve" style="white-space: pre" font-family="Inter" font-size="45" font-weight="bold" letter-spacing="0em"><tspan x="375.02" y="740.764">$40</tspan></text>
<g filter="url(#filter1_d_35_12171)">
<path d="M350.249 787.9H110.649C104.749 787.9 99.9492 783.1 99.9492 777.2V635.6C99.9492 629.7 104.749 624.9 110.649 624.9H350.249V787.9Z" fill="white"/>
</g>
<path d="M259.7 666.15C259.7 660.65 255.2 656.15 249.7 656.15H199.4C194.5 656.15 190.5 660.15 190.5 665.05V747.75C190.5 752.65 194.5 756.65 199.4 756.65H250.7C255.6 756.65 259.6 752.65 259.6 747.75L259.7 666.15ZM225.1 751.95C222 751.95 219.5 749.45 219.5 746.35C219.5 743.25 222 740.75 225.1 740.75C228.2 740.75 230.7 743.25 230.7 746.35C230.7 749.45 228.2 751.95 225.1 751.95ZM252.3 733.45H198V664.15H252.3V733.45Z" fill="#10B981"/>
<path d="M915.849 1017.9H108.149C103.649 1017.9 99.9492 1014.2 99.9492 1009.7V863.1C99.9492 858.6 103.649 854.9 108.149 854.9H915.849C920.349 854.9 924.049 858.6 924.049 863.1V1009.7C924.049 1014.3 920.349 1017.9 915.849 1017.9Z" fill="#FEFEFE"/>
<text fill="#001E3A" xml:space="preserve" style="white-space: pre" font-family="Inter" font-size="45" font-weight="bold" letter-spacing="0em"><tspan x="375.02" y="920.764">SquareTrivia: </tspan></text>
<text fill="#10B981" xml:space="preserve" style="white-space: pre" font-family="Inter" font-size="45" font-weight="bold" letter-spacing="0em"><tspan x="676.52" y="920.764">Pay you</tspan></text>
<text fill="#10B981" xml:space="preserve" style="white-space: pre" font-family="Inter" font-size="45" font-weight="bold" letter-spacing="0em"><tspan x="375.02" y="970.764">$450 in 3.2s</tspan></text>
<g filter="url(#filter2_d_35_12171)">
<path d="M350.249 1017.9H110.649C104.749 1017.9 99.9492 1013.1 99.9492 1007.2V865.6C99.9492 859.7 104.749 854.9 110.649 854.9H350.249V1017.9Z" fill="white"/>
</g>
<path d="M271.326 903.3C269.926 899.9 267.526 897.3 264.426 896.1C262.326 895.3 260.126 895 257.726 895.5C258.226 892.9 256.226 890.4 253.526 890.4H196.626C193.926 890.4 191.926 892.8 192.426 895.5C189.926 895 187.826 895.2 185.726 896.1C182.626 897.3 180.226 899.9 178.826 903.3C176.726 908.7 177.426 915.9 180.626 922.6C185.026 931.8 192.626 937.5 199.626 937.6C201.726 944.3 207.126 950 214.026 953.1C203.926 957.1 197.026 966.6 197.026 977.2V982.4H253.426V977.2C253.426 966.5 246.526 957.1 236.426 953.1C243.326 950.2 248.726 944.5 250.826 937.6C257.726 937.4 265.226 931.8 269.526 922.6C272.726 915.9 273.526 908.7 271.326 903.3ZM189.926 918.2C187.626 913.3 187.626 909.2 188.426 907.2C188.726 906.4 189.026 906 189.526 905.8C190.426 905.5 192.326 905.8 194.426 907.5C195.626 914.9 197.026 922.4 197.826 926.8C195.126 925.7 192.126 922.6 189.926 918.2ZM260.126 918.2C258.026 922.8 254.726 925.7 252.326 926.8C253.126 922.2 254.326 914.8 255.726 907.5C257.826 905.8 259.726 905.5 260.626 905.8C261.126 906 261.426 906.4 261.726 907.2C262.426 909.2 262.626 913.1 260.126 918.2Z" fill="#10B981"/>
<text fill="#11BB83" xml:space="preserve" style="white-space: pre" font-family="Bebas Neue" font-size="103" letter-spacing="0em"><tspan x="277.03" y="1241.82">Time is money.</tspan></text>
<text fill="#11BB83" xml:space="preserve" style="white-space: pre" font-family="Bebas Neue" font-size="75" letter-spacing="0em"><tspan x="141.333" y="1329.78">You&#x2019;re just giving yours away.</tspan></text>
<text fill="#0184EA" xml:space="preserve" style="white-space: pre" font-family="Bebas Neue" font-size="80" font-weight="bold" letter-spacing="0.23em"><tspan x="85.4039" y="1484.25">Speed Wins. Always.</tspan></text>
</g>
<defs>
<filter id="filter0_d_35_12171" x="97.7492" y="386.7" width="266.701" height="179.4" filterUnits="userSpaceOnUse" color-interpolation-filters="sRGB">
<feFlood flood-opacity="0" result="BackgroundImageFix"/>
<feColorMatrix in="SourceAlpha" type="matrix" values="0 0 0 0 0 0 0 0 0 0 0 0 0 0 0 0 0 0 127 0" result="hardAlpha"/>
<feOffset dx="6"/>
<feGaussianBlur stdDeviation="4.1"/>
<feComposite in2="hardAlpha" operator="out"/>
<feColorMatrix type="matrix" values="0 0 0 0 0 0 0 0 0 0 0 0 0 0 0 0 0 0 0.08 0"/>
<feBlend mode="normal" in2="BackgroundImageFix" result="effect1_dropShadow_35_12171"/>
<feBlend mode="normal" in="SourceGraphic" in2="effect1_dropShadow_35_12171" result="shape"/>
</filter>
<filter id="filter1_d_35_12171" x="97.7492" y="616.7" width="266.701" height="179.4" filterUnits="userSpaceOnUse" color-interpolation-filters="sRGB">
<feFlood flood-opacity="0" result="BackgroundImageFix"/>
<feColorMatrix in="SourceAlpha" type="matrix" values="0 0 0 0 0 0 0 0 0 0 0 0 0 0 0 0 0 0 127 0" result="hardAlpha"/>
<feOffset dx="6"/>
<feGaussianBlur stdDeviation="4.1"/>
<feComposite in2="hardAlpha" operator="out"/>
<feColorMatrix type="matrix" values="0 0 0 0 0 0 0 0 0 0 0 0 0 0 0 0 0 0 0.08 0"/>
<feBlend mode="normal" in2="BackgroundImageFix" result="effect1_dropShadow_35_12171"/>
<feBlend mode="normal" in="SourceGraphic" in2="effect1_dropShadow_35_12171" result="shape"/>
</filter>
<filter id="filter2_d_35_12171" x="97.7492" y="846.7" width="266.701" height="179.4" filterUnits="userSpaceOnUse" color-interpolation-filters="sRGB">
<feFlood flood-opacity="0" result="BackgroundImageFix"/>
<feColorMatrix in="SourceAlpha" type="matrix" values="0 0 0 0 0 0 0 0 0 0 0 0 0 0 0 0 0 0 127 0" result="hardAlpha"/>
<feOffset dx="6"/>
<feGaussianBlur stdDeviation="4.1"/>
<feComposite in2="hardAlpha" operator="out"/>
<feColorMatrix type="matrix" values="0 0 0 0 0 0 0 0 0 0 0 0 0 0 0 0 0 0 0.08 0"/>
<feBlend mode="normal" in2="BackgroundImageFix" result="effect1_dropShadow_35_12171"/>
<feBlend mode="normal" in="SourceGraphic" in2="effect1_dropShadow_35_12171" result="shape"/>
</filter>
<clipPath id="clip0_35_12171">
<rect width="1024" height="1536" fill="white"/>
</clipPath>
</defs>
</svg>
