<svg width="1080" height="1536" viewBox="0 0 1080 1536" fill="none" xmlns="http://www.w3.org/2000/svg">
<g clip-path="url(#clip0_38_48545)">
<mask id="mask0_38_48545" style="mask-type:luminance" maskUnits="userSpaceOnUse" x="0" y="0" width="1080" height="1536">
<path d="M1080 0H0V1536H1080V0Z" fill="white"/>
</mask>
<g mask="url(#mask0_38_48545)">
<path d="M1080 0.0996094H0V1536H1080V0.0996094Z" fill="#F3FEFD"/>
<path d="M489.398 77.3998C489.198 77.1998 488.598 76.7998 487.498 76.0998C486.198 75.2998 484.898 74.5998 483.498 73.9998C481.798 73.2998 480.098 72.6998 478.298 72.1998C476.398 71.6998 474.498 71.4998 472.598 71.4998C470.098 71.4998 468.198 71.8998 466.798 72.7998C465.398 73.6998 464.698 74.9998 464.698 76.6998C464.698 77.9998 465.198 79.0998 466.298 79.9998C467.298 80.7998 468.798 81.5998 470.798 82.1998C472.798 82.7998 475.198 83.4998 477.998 84.2998C482.098 85.3998 485.598 86.6998 488.498 88.1998C491.498 89.6998 493.698 91.5998 495.298 93.9998C496.898 96.2998 497.698 99.3998 497.698 103.3C497.698 106.8 497.098 109.7 495.798 112.2C494.498 114.7 492.698 116.7 490.398 118.2C488.098 119.7 485.598 120.8 482.698 121.4C479.798 122.1 476.898 122.4 473.898 122.4C470.698 122.4 467.498 122.1 464.398 121.4C461.198 120.8 458.098 119.9 455.098 118.7C452.298 117.6 449.498 116.2 446.898 114.7L453.198 102C453.498 102.3 454.298 102.9 455.598 103.7C456.898 104.5 458.498 105.3 460.498 106.1C462.598 107 464.798 107.8 466.998 108.4C469.298 109.1 471.698 109.4 474.098 109.4C476.798 109.4 478.798 109 479.998 108.1C481.298 107.3 481.898 106.1 481.898 104.6C481.898 103.1 481.198 101.9 479.898 101C478.598 100.1 476.798 99.2998 474.498 98.4998C472.198 97.7998 469.598 96.9998 466.598 96.1998C462.698 94.9998 459.498 93.5998 456.998 92.1998C454.498 90.7998 452.598 88.9998 451.398 86.8998C450.198 84.7998 449.598 82.1998 449.598 79.0998C449.598 74.6998 450.698 70.8998 452.798 67.8998C454.898 64.8998 457.698 62.5998 461.298 61.0998C464.898 59.5998 468.798 58.7998 472.998 58.7998C475.898 58.7998 478.798 59.0998 481.598 59.8998C484.198 60.5998 486.798 61.4998 489.398 62.4998C491.798 63.4998 493.898 64.5998 495.698 65.6998L489.398 77.3998Z" fill="#0184EA"/>
<path d="M533.898 122C529.298 122 524.998 121.1 521.198 119.4C517.398 117.6 513.998 115.3 511.198 112.2C508.398 109.2 506.298 105.8 504.798 102C503.298 98.3002 502.598 94.3002 502.598 90.3002C502.598 86.2002 503.398 82.2002 504.998 78.4002C506.498 74.7002 508.798 71.3002 511.598 68.3002C514.398 65.4002 517.798 63.0002 521.598 61.3002C525.498 59.6002 529.698 58.7002 534.298 58.7002C538.998 58.7002 543.298 59.6002 547.098 61.4002C550.898 63.2002 554.198 65.6002 556.998 68.7002C559.698 71.7002 561.898 75.2002 563.398 78.9002C564.898 82.7002 565.598 86.5002 565.598 90.4002C565.598 94.5002 564.798 98.5002 563.298 102.3C560.198 109.9 554.198 116 546.698 119.3C542.798 121.2 538.598 122 533.898 122ZM534.198 109.2C536.898 109.2 539.298 108.7 541.398 107.6C543.398 106.6 545.198 105.1 546.598 103.3C547.998 101.5 548.998 99.4002 549.698 97.2002C550.398 95.0002 550.698 92.7002 550.698 90.4002C550.698 88.0002 550.298 85.7002 549.598 83.4002C548.898 81.2002 547.798 79.2002 546.398 77.4002C544.998 75.6002 543.198 74.2002 541.198 73.2002C539.098 72.2002 536.798 71.7002 534.198 71.7002C531.398 71.7002 528.998 72.2002 526.898 73.3002C524.898 74.3002 523.098 75.8002 521.698 77.6002C520.298 79.4002 519.298 81.5002 518.598 83.6002C517.898 85.8002 517.498 88.1002 517.498 90.5002C517.498 92.9002 517.898 95.2002 518.598 97.4002C519.298 99.6002 520.398 101.6 521.798 103.4C523.198 105.2 524.998 106.6 526.998 107.6C528.998 108.7 531.398 109.2 534.198 109.2ZM530.198 97.0002H543.898L566.598 121.6H552.798L530.198 97.0002Z" fill="#0184EA"/>
<path d="M601.299 122.1C596.199 122.1 591.899 121.3 588.399 119.6C584.899 117.9 581.899 115.6 579.699 112.7C577.499 109.8 575.799 106.4 574.799 102.7C573.799 98.9002 573.199 95.0002 573.199 91.1002V59.2002H587.799V91.1002C587.799 93.4002 587.999 95.7002 588.499 97.9002C588.999 100.1 589.699 102 590.799 103.7C591.799 105.4 593.299 106.8 594.999 107.7C596.699 108.7 598.799 109.2 601.299 109.2C603.799 109.2 605.899 108.7 607.599 107.7C609.299 106.7 610.699 105.3 611.699 103.6C612.799 101.8 613.599 99.8002 613.999 97.7002C614.499 95.5002 614.799 93.3002 614.799 91.0002V59.2002H629.299V91.1002C629.299 95.4002 628.799 99.5002 627.599 103.2C626.499 106.9 624.799 110.2 622.599 113.1C620.299 116 617.399 118.2 613.899 119.8C610.499 121.3 606.199 122.1 601.299 122.1Z" fill="#0184EA"/>
<path d="M654.099 59.2002H669.799L691.699 121.5H676.699L671.799 107.5H651.999L647.199 121.5H632.199L654.099 59.2002ZM669.199 97.8002L661.999 73.7002L654.299 97.8002H669.199Z" fill="#0184EA"/>
<path d="M697.898 121.6V59.2002H726.398C729.398 59.2002 732.198 59.8002 734.798 61.0002C737.398 62.2002 739.498 63.8002 741.398 65.8002C743.198 67.8002 744.698 70.1002 745.698 72.6002C746.698 75.0002 747.298 77.7002 747.298 80.3002C747.298 82.8002 746.898 85.3002 745.998 87.6002C745.198 89.9002 743.898 92.0002 742.398 93.8002C740.898 95.6002 738.998 97.1002 736.998 98.3002L750.898 121.5H734.698L722.598 101.4H712.698V121.5L697.898 121.6ZM712.498 88.8002H725.998C727.098 88.8002 728.198 88.4002 729.098 87.8002C729.998 87.1002 730.798 86.1002 731.398 84.8002C731.998 83.5002 732.298 82.0002 732.298 80.4002C732.298 78.6002 731.998 77.1002 731.298 75.9002C730.598 74.6002 729.798 73.7002 728.698 73.0002C727.698 72.3002 726.598 71.9002 725.498 72.0002H712.598L712.498 88.8002Z" fill="#0184EA"/>
<path d="M802.098 108.9V121.6H757.598V59.2002H801.298V71.8002H772.198V84.0002H797.198V95.7002H772.198V109L802.098 108.9Z" fill="#0184EA"/>
<path d="M488.398 145.6H474.798V179.3H464.498V145.6H450.898V137H488.398V145.6Z" fill="#0184EA"/>
<path d="M509.098 179.4V137H529.098C531.198 137 533.198 137.4 534.998 138.3C536.698 139.1 538.298 140.2 539.598 141.6C540.898 142.9 541.898 144.5 542.598 146.2C543.298 147.9 543.698 149.6 543.698 151.4C543.698 154.8 542.498 158 540.198 160.6C539.098 161.8 537.798 162.9 536.398 163.6L546.198 179.3H534.798L526.298 165.6H519.298V179.3L509.098 179.4ZM519.398 157.1H528.898C529.698 157.1 530.398 156.9 531.098 156.4C531.698 155.9 532.298 155.2 532.698 154.4C533.098 153.5 533.298 152.5 533.298 151.4C533.298 150.2 533.098 149.2 532.598 148.3C532.098 147.4 531.498 146.8 530.798 146.3C530.098 145.8 529.298 145.6 528.598 145.6H519.498L519.398 157.1Z" fill="#0184EA"/>
<path d="M566.797 179.4V137H577.097V179.3L566.797 179.4Z" fill="#0184EA"/>
<path d="M607.797 137L618.297 167.9L628.697 137H639.597L623.397 179.3H613.297L596.797 137H607.797Z" fill="#0184EA"/>
<path d="M659.398 179.4V137H669.698V179.3L659.398 179.4Z" fill="#0184EA"/>
<path d="M705.099 137H716.099L731.499 179.3H720.999L717.999 169.8H703.299L700.299 179.3H689.699L705.099 137ZM715.899 163.2L710.699 146.9L705.499 163.2H715.899Z" fill="#0184EA"/>
<path d="M301.098 48.2002H405.598C418.398 48.2002 428.798 58.6002 428.798 71.4002V166.8C428.798 179.6 418.398 190 405.598 190H301.098C288.298 190 277.898 179.6 277.898 166.8V71.4002C277.898 58.6002 288.298 48.2002 301.098 48.2002Z" fill="white" stroke="#0184EA" stroke-width="6.7594" stroke-miterlimit="10"/>
<path d="M426.697 115.601H279.797V122.401H426.697V115.601Z" fill="#0184EA"/>
<path d="M356.8 50.6006H350V187.401H356.8V50.6006Z" fill="#0184EA"/>
<path d="M339.398 60.5006C336.998 57.9006 323.098 53.3006 305.998 65.4006C289.798 76.8006 288.498 101.801 291.198 105.401C293.898 109.001 312.698 113.801 329.998 96.2006C345.298 80.5006 341.798 63.1006 339.398 60.5006Z" fill="#0184EA"/>
<path d="M325.5 61.2002L338 74.0002L337 79.2002L320 62.2002L325.5 61.2002Z" fill="#F4F3F3"/>
<path d="M294.398 87L311.498 104.1L306.498 105.3L293.398 91.8L294.398 87Z" fill="#F4F3F3"/>
<path d="M325.098 78.6006L323.898 79.8006C323.598 80.1006 323.198 80.1006 322.898 79.8006L321.098 78.0006L319.098 80.2006L320.998 82.1006C321.298 82.4006 321.298 82.8006 320.998 83.1006L319.798 84.3006C319.498 84.6006 319.098 84.6006 318.798 84.3006L316.998 82.5006L314.798 84.9006L316.698 86.8006C316.998 87.1006 316.998 87.5006 316.698 87.8006L315.498 89.0006C315.198 89.3006 314.798 89.3006 314.498 89.0006L312.698 87.2006L310.498 89.6006L312.398 91.5006C312.698 91.8006 312.698 92.2006 312.398 92.5006L311.198 93.7006C310.898 94.0006 310.498 94.0006 310.198 93.7006L308.398 91.9006L306.898 93.5006C306.698 93.7006 306.498 93.7006 306.298 93.5006L304.698 92.0006C304.498 91.8006 304.498 91.6006 304.698 91.4006L306.298 89.7006L304.698 88.1006C304.398 87.8006 304.398 87.4006 304.698 87.1006L305.898 85.9006C306.198 85.6006 306.598 85.6006 306.898 85.9006L308.398 87.4006L310.598 85.1006L308.998 83.5006C308.698 83.2006 308.698 82.8006 308.998 82.5006L310.198 81.3006C310.498 81.0006 310.898 81.0006 311.198 81.3006L312.698 82.8006L314.898 80.4006L313.298 78.8006C312.998 78.5006 312.998 78.1006 313.298 77.8006L314.498 76.6006C314.798 76.3006 315.198 76.3006 315.498 76.6006L316.998 78.1006L318.998 75.9006L317.398 74.3006C317.098 74.0006 317.098 73.6006 317.398 73.3006L318.598 72.1006C318.898 71.8006 319.298 71.8006 319.598 72.1006L321.098 73.6006L322.598 72.0006C322.798 71.8006 322.998 71.8006 323.198 72.0006L324.798 73.5006C324.998 73.7006 324.998 73.9006 324.798 74.1006L323.198 75.8006L325.098 77.7006C325.398 77.9006 325.398 78.4006 325.098 78.6006Z" fill="#F4F3F3"/>
<path d="M316.2 132.1C317.6 132.1 319 132.2 320.4 132.5C322.8 133 325.1 133.8 327.2 135.1C333.6 138.9 337.6 145.7 337.8 153.2V153.3V153.4C337.8 153.5 337.8 153.6 337.8 153.8C337.8 158.5 336.3 163.1 333.4 166.9C331.5 169.4 329 171.5 326.2 173C323.3 174.5 320 175.3 316.7 175.4H316.6H316.5C316.4 175.4 316.3 175.4 316.2 175.4C304.3 175.4 294.6 165.8 294.6 153.8C294.6 153.4 294.6 153.1 294.6 152.8C294.9 146.9 297.6 141.4 302 137.6C306 134 311 132.1 316.2 132.1ZM316.2 128C302.5 128 291.2 138.8 290.5 152.4C290.5 152.8 290.5 153.2 290.5 153.7C290.5 167.9 302 179.4 316.2 179.4C316.4 179.4 316.6 179.4 316.7 179.4C330.7 179.1 341.9 167.7 341.9 153.7C341.9 153.5 341.9 153.3 341.9 153.1C341.6 140.9 332.8 130.8 321.2 128.5C319.6 128.1 317.9 128 316.2 128Z" fill="#0184EA"/>
<path d="M300.2 139.2C306.8 142.4 312.8 146.6 318.1 151.6C323.4 156.6 328 162.4 331.6 168.8C330 170.5 328.1 171.8 326.1 172.9C323.2 174.4 319.9 175.2 316.6 175.3H316.5H316.4C316.3 175.3 316.2 175.3 316.1 175.3C304.2 175.3 294.5 165.7 294.5 153.7C294.5 153.3 294.5 153 294.5 152.7C294.9 147.6 296.8 142.9 300.2 139.2ZM299.3 134.3C294 138.9 290.8 145.4 290.5 152.4C290.5 152.8 290.5 153.2 290.5 153.7C290.5 167.9 302 179.4 316.2 179.4C316.4 179.4 316.6 179.4 316.7 179.4C324.5 179.2 331.8 175.5 336.6 169.3C328.5 153.8 315.4 141.3 299.3 134.3Z" fill="#0184EA"/>
<path d="M331.499 153.6C333.499 153.6 335.599 154.2 337.799 155.4C336.999 165.1 329.899 173.2 320.299 175C319.799 170.4 320.199 166 321.499 162.3C322.199 160.2 323.199 158.4 324.499 157C325.699 155.7 327.099 154.7 328.599 154.2C329.399 153.8 330.399 153.6 331.499 153.6ZM331.499 149.5C329.999 149.5 328.499 149.7 327.099 150.2C318.099 153.3 313.999 165.7 316.799 179.4C330.799 179.1 341.999 167.7 341.999 153.7C341.999 153.5 341.999 153.3 341.999 153.1C338.499 150.8 334.899 149.5 331.499 149.5Z" fill="#0184EA"/>
<path d="M316.2 132.1C316.6 132.1 317 132.1 317.3 132.1C317.3 133.5 317.2 134.8 317.1 136.2C316.8 138.4 316.2 140.5 315.4 142.4C313.7 146.1 311.1 148.9 307.8 150.4C306 151.2 304 151.6 302 151.6C299.7 151.6 297.3 151.1 294.9 150C296.7 139.7 305.7 132.1 316.2 132.1ZM316.2 128C302.4 128 291.2 138.8 290.5 152.4C294.2 154.5 298.2 155.7 302 155.7C304.6 155.7 307.1 155.2 309.5 154.1C318.2 150.2 322.5 139.8 321.2 128.5C319.6 128.1 317.9 128 316.2 128Z" fill="#0184EA"/>
<path d="M332.097 138.8L301.297 169.7" stroke="#0184EA" stroke-width="4.1109" stroke-miterlimit="10"/>
<path d="M390.399 62.1C391.799 62.1 393.199 62.2 394.599 62.5C396.999 63 399.299 63.8 401.399 65.1C407.799 68.9 411.799 75.7 411.999 83.2V83.3C411.999 83.4 411.999 83.5 411.999 83.7C411.999 88.4 410.499 93 407.599 96.8C405.699 99.3 403.199 101.4 400.399 102.9C397.499 104.4 394.199 105.2 390.899 105.3H390.799H390.699C390.599 105.3 390.499 105.3 390.399 105.3C378.499 105.3 368.799 95.7 368.799 83.7C368.799 83.3 368.799 83 368.799 82.7C369.099 76.8 371.799 71.3 376.199 67.5C380.199 64 385.199 62.1 390.399 62.1ZM390.399 58C376.699 58 365.399 68.8 364.699 82.4C364.699 82.8 364.699 83.2 364.699 83.7C364.699 97.9 376.199 109.4 390.399 109.4C390.599 109.4 390.799 109.4 390.899 109.4C404.899 109.1 416.099 97.7 416.099 83.7C416.099 83.5 416.099 83.3 416.099 83.1C415.799 70.9 406.999 60.8 395.399 58.5C393.799 58.2 392.099 58 390.399 58Z" fill="#0184EA"/>
<path d="M374.399 69.2998C380.999 72.4998 386.999 76.6998 392.299 81.6998C397.599 86.6998 402.199 92.4998 405.799 98.8998C404.199 100.6 402.299 101.9 400.299 103C397.399 104.5 394.099 105.3 390.799 105.4H390.699H390.599C390.499 105.4 390.399 105.4 390.299 105.4C378.399 105.4 368.699 95.7998 368.699 83.7998C368.699 83.3998 368.699 83.0998 368.699 82.7998C369.099 77.6998 370.999 72.8998 374.399 69.2998ZM373.499 64.2998C368.199 68.8998 364.999 75.3998 364.699 82.3998C364.699 82.7998 364.699 83.1998 364.699 83.6998C364.699 97.8998 376.199 109.4 390.399 109.4C390.599 109.4 390.799 109.4 390.899 109.4C398.699 109.2 405.999 105.5 410.799 99.2998C402.699 83.7998 389.599 71.3998 373.499 64.2998Z" fill="#0184EA"/>
<path d="M405.699 83.6C407.699 83.6 409.799 84.2 411.999 85.4C411.199 95.1 404.099 103.2 394.499 105C393.999 100.4 394.399 96 395.699 92.3C396.399 90.2 397.399 88.4 398.699 87C399.899 85.7 401.299 84.7 402.799 84.2C403.599 83.8 404.599 83.6 405.699 83.6ZM405.699 79.5C404.199 79.5 402.699 79.7 401.299 80.2C392.299 83.3 388.199 95.7 390.999 109.4C404.999 109.1 416.199 97.7 416.199 83.7C416.199 83.5 416.199 83.3 416.199 83.1C412.699 80.8 409.099 79.5 405.699 79.5Z" fill="#0184EA"/>
<path d="M390.399 62.1C390.799 62.1 391.199 62.1 391.499 62.1C391.499 63.5 391.399 64.8 391.299 66.2C390.999 68.4 390.399 70.5 389.599 72.4C387.899 76.1 385.299 78.9 381.999 80.4C380.199 81.2 378.199 81.6 376.199 81.6C373.899 81.6 371.499 81.1 369.099 80C370.899 69.7 379.899 62.1 390.399 62.1ZM390.399 58C376.599 58 365.399 68.8 364.699 82.4C368.399 84.5 372.399 85.7 376.199 85.7C378.799 85.7 381.299 85.2 383.699 84.1C392.399 80.2 396.699 69.8 395.399 58.5C393.799 58.2 392.099 58 390.399 58Z" fill="#0184EA"/>
<path d="M406.3 68.9004L375.5 99.7004" stroke="#0184EA" stroke-width="4.1109" stroke-miterlimit="10"/>
<path d="M352.9 164.8C350.1 164.8 347.4 164.1 345 162.7C342.6 161.3 340.6 159.3 339.2 156.9C337.8 154.5 337.1 151.8 337.1 149C337.1 145.9 337.9 143 339.4 140.5V131C339.4 128.3 339.8 125.9 340.6 123.6C341.4 121.3 342.7 119.1 344.5 117C344.9 116.6 345.2 116.1 345.7 115.7H324V107.5C324 102.4 325.3 97.6998 327.8 93.5998C330.3 89.4998 333.8 86.1998 338.2 83.7998C342.5 81.4998 347.5 80.2998 352.9 80.2998C358.5 80.2998 363.5 81.3998 367.7 83.4998C372.1 85.7998 375.6 88.9998 378.1 92.9998C380.6 96.9998 381.8 101.5 381.8 106.4C381.8 109.9 381.2 113.1 379.9 116.1C378.7 118.8 377.2 121.4 375.2 123.6C373.4 125.7 371.5 127.6 369.4 129.4C368.2 130.4 367.2 131.3 366.6 132C366.5 132.1 366.4 132.3 366.3 132.4V140.3C367.8 142.8 368.6 145.6 368.6 148.8C368.6 151.6 367.9 154.3 366.5 156.7C365.2 159.1 363.2 161.1 360.8 162.5C358.5 164 355.8 164.8 352.9 164.8ZM352.9 105.9C352.1 105.9 351.4 106 351.2 106.2C351 106.4 350.9 107.2 350.9 107.5V110.8C352.4 109.4 353.6 108.2 354.4 107.1C354.7 106.7 354.7 106.6 354.7 106.6C354.7 106.5 354.7 106.5 354.7 106.4C354.7 106.4 354.7 106.3 354.6 106.2C354.5 106.1 353.9 105.9 352.9 105.9Z" fill="#F3F3F3"/>
<path d="M347.099 134.8V131.5C347.099 129.7 347.299 128.2 347.799 126.8C348.299 125.5 349.099 124.1 350.199 122.8C351.299 121.5 352.899 120 354.799 118.3C357.199 116.2 358.999 114.3 360.399 112.6C361.699 110.8 362.399 109 362.399 107.1C362.399 104.6 361.499 102.5 359.699 100.8C357.899 99.1002 355.399 98.2002 352.299 98.2002C349.199 98.2002 346.699 99.1002 344.899 100.9C343.099 102.7 342.199 105.1 342.199 108.1H331.699C331.699 104.5 332.599 101.3 334.299 98.5002C335.999 95.7002 338.399 93.4002 341.499 91.7002C344.599 90.0002 348.199 89.2002 352.399 89.2002C356.699 89.2002 360.399 90.0002 363.499 91.5002C366.599 93.1002 368.899 95.2002 370.599 97.9002C372.299 100.6 373.099 103.7 373.099 107.1C373.099 109.5 372.699 111.6 371.899 113.6C371.099 115.6 369.899 117.4 368.599 119C367.099 120.8 365.399 122.4 363.699 123.9C362.299 125.1 361.199 126.1 360.299 127C359.399 127.9 358.799 128.8 358.299 129.7C357.799 130.6 357.599 131.6 357.599 132.9V134.8H347.099ZM352.299 157C350.999 157 349.699 156.7 348.499 156C347.399 155.4 346.399 154.4 345.799 153.3C345.099 152.1 344.799 150.8 344.799 149.5C344.799 147.3 345.499 145.5 346.999 144.1C348.399 142.7 350.199 142 352.399 142C354.499 142 356.299 142.7 357.799 144.1C359.199 145.5 359.999 147.3 359.999 149.5C359.999 150.8 359.699 152.1 358.999 153.3C358.399 154.4 357.399 155.4 356.299 156C354.999 156.7 353.699 157 352.299 157Z" fill="#0184EA"/>
<path d="M413.699 130.7C411.299 128.1 397.399 123.5 380.299 135.6C364.099 147 362.799 172 365.499 175.6C368.199 179.2 386.999 184 404.299 166.4C419.599 150.8 415.999 133.4 413.699 130.7Z" fill="#0184EA"/>
<path d="M399.797 131.5L412.297 144.3L411.297 149.5L394.297 132.5L399.797 131.5Z" fill="#F4F3F3"/>
<path d="M368.699 157.3L385.699 174.3L380.799 175.5L367.699 162.1L368.699 157.3Z" fill="#F4F3F3"/>
<path d="M399.398 148.9L398.198 150.1C397.898 150.4 397.498 150.4 397.198 150.1L395.398 148.3L393.398 150.5L395.298 152.4C395.598 152.7 395.598 153.1 395.298 153.4L394.098 154.6C393.798 154.9 393.398 154.9 393.098 154.6L391.298 152.8L389.098 155.2L390.998 157.1C391.298 157.4 391.298 157.8 390.998 158.1L389.798 159.3C389.498 159.6 389.098 159.6 388.798 159.3L386.998 157.5L384.798 159.9L386.698 161.8C386.998 162.1 386.998 162.5 386.698 162.8L385.498 164C385.198 164.3 384.798 164.3 384.498 164L382.698 162.2L381.198 163.8C380.998 164 380.798 164 380.598 163.8L378.998 162.3C378.798 162.1 378.798 161.9 378.998 161.7L380.598 160L378.998 158.4C378.698 158.1 378.698 157.7 378.998 157.4L380.198 156.2C380.498 155.9 380.898 155.9 381.198 156.2L382.698 157.7L384.898 155.4L383.298 153.8C382.998 153.5 382.998 153.1 383.298 152.8L384.498 151.6C384.798 151.3 385.198 151.3 385.498 151.6L386.998 153.1L389.198 150.7L387.598 149.1C387.298 148.8 387.298 148.4 387.598 148.1L388.798 146.9C389.098 146.6 389.498 146.6 389.798 146.9L391.298 148.4L393.298 146.2L391.698 144.6C391.398 144.3 391.398 143.9 391.698 143.6L392.898 142.4C393.198 142.1 393.598 142.1 393.898 142.4L395.398 143.9L396.898 142.3C397.098 142.1 397.298 142.1 397.498 142.3L399.098 143.8C399.298 144 399.298 144.2 399.098 144.4L397.498 146.1L399.398 148C399.698 148.2 399.698 148.6 399.398 148.9Z" fill="#F4F3F3"/>
<path d="M324.899 105.4C324.899 105.4 320.999 119.8 327.499 127.8C333.999 135.8 342.899 128.6 342.899 128.6L355.899 106.2L352.199 103.8L348.499 108.6L331.099 108.3L324.899 105.4Z" fill="white"/>
<path d="M1019.5 567.9H60.5C55 567.9 50.5 563.4 50.5 557.9V414.9C50.5 409.4 55 404.9 60.5 404.9H1019.5C1025 404.9 1029.5 409.4 1029.5 414.9V558C1029.5 563.5 1025.1 567.9 1019.5 567.9Z" fill="white"/>
<text fill="#10B981" xml:space="preserve" style="white-space: pre" font-family="Inter" font-size="45" font-style="italic" font-weight="bold" letter-spacing="0em"><tspan x="277.965" y="501.127">Games Played:          </tspan></text>
<text fill="#001E3A" xml:space="preserve" style="white-space: pre" font-family="Inter" font-size="45" font-style="italic" font-weight="bold" letter-spacing="0em"><tspan x="706" y="501.127">{gameCount}</tspan></text>
<g filter="url(#filter0_d_38_48545)">
<path d="M245.5 567.9H59.4C54.5 567.9 50.5 563.9 50.5 559V413.8C50.5 408.9 54.5 404.9 59.4 404.9H245.5V567.9Z" fill="white"/>
</g>
<path d="M206.048 515.361L203.248 474.761C201.848 463.061 194.748 452.861 184.348 447.561C176.548 443.361 167.148 443.461 159.548 447.961C152.548 452.161 143.648 452.161 136.648 447.961C118.148 436.661 94.2475 454.961 92.8475 474.861L89.9475 515.261C89.6475 518.761 90.8475 522.261 93.3475 524.761C97.9475 529.461 105.448 529.461 110.148 524.861L132.748 502.261C141.148 493.861 154.848 493.861 163.248 502.261L185.848 524.861C188.348 527.261 191.748 528.561 195.248 528.261C201.748 527.661 206.648 521.861 206.048 515.361ZM128.348 478.461H121.448C120.248 478.461 119.348 479.361 119.348 480.561V487.461H114.448C114.348 476.961 115.948 478.561 105.448 478.461V473.561C115.948 473.461 114.348 475.061 114.448 464.561H119.348C119.448 475.061 117.948 473.461 128.348 473.561V478.461ZM166.648 478.061C165.548 478.061 164.648 477.161 164.648 476.061C164.648 474.961 165.648 473.961 166.748 474.061C167.848 474.061 168.748 474.961 168.748 476.061C168.748 477.161 167.848 478.061 166.648 478.061ZM177.048 488.461C175.948 488.461 175.048 487.561 175.048 486.461C175.048 485.361 176.048 484.361 177.148 484.461C178.248 484.461 179.148 485.361 179.148 486.461C179.148 487.561 178.248 488.461 177.048 488.461ZM177.048 467.661C175.948 467.661 175.048 466.761 175.048 465.661C175.048 464.561 176.048 463.561 177.148 463.661C178.248 463.661 179.148 464.561 179.148 465.661C179.148 466.761 178.148 467.661 177.048 467.661ZM187.448 478.061C186.348 478.061 185.448 477.161 185.448 476.061C185.448 474.961 186.448 473.961 187.548 474.061C188.648 474.061 189.548 474.961 189.548 476.061C189.548 477.161 188.548 478.061 187.448 478.061Z" fill="#10B981"/>
<path d="M1019.5 765.9H60.5C55 765.9 50.5 761.4 50.5 755.9V612.9C50.5 607.4 55 602.9 60.5 602.9H1019.5C1025 602.9 1029.5 607.4 1029.5 612.9V755.9C1029.5 761.5 1025.1 765.9 1019.5 765.9Z" fill="white"/>
<text fill="#10B981" xml:space="preserve" style="white-space: pre" font-family="Inter" font-size="45" font-style="italic" font-weight="bold" letter-spacing="0em"><tspan x="277.965" y="699.127">Total Winners:          </tspan></text>
<text fill="#001E3A" xml:space="preserve" style="white-space: pre" font-family="Inter" font-size="45" font-style="italic" font-weight="bold" letter-spacing="0em"><tspan x="677" y="699.127">{winnerCount}</tspan></text>
<g filter="url(#filter1_d_38_48545)">
<path d="M245.5 765.9H59.4C54.5 765.9 50.5 761.9 50.5 757V611.8C50.5 606.9 54.5 602.9 59.4 602.9H245.5V765.9Z" fill="white"/>
</g>
<path fill-rule="evenodd" clip-rule="evenodd" d="M148.05 735.5C131.65 735.5 118.25 722.1 118.25 705.7C118.25 689.3 131.65 675.9 148.05 675.9C164.45 675.9 177.85 689.3 177.85 705.7C177.85 722.2 164.45 735.5 148.05 735.5ZM134.95 724.9C134.75 724.9 134.45 724.8 134.25 724.7C133.85 724.4 133.65 723.9 133.75 723.5L136.55 709.5L125.95 699.8C125.55 699.5 125.45 699 125.65 698.5C125.75 698 126.25 697.7 126.65 697.7L140.95 696.1L146.95 683C147.15 682.6 147.55 682.3 148.05 682.3C148.55 682.3 148.95 682.6 149.15 683L155.15 696.1L169.45 697.7C169.95 697.8 170.35 698.1 170.45 698.5C170.55 699 170.45 699.5 170.15 699.8L159.55 709.5L162.35 723.5C162.45 724 162.25 724.5 161.85 724.7C161.45 725 160.95 725 160.55 724.8L148.05 717.8L135.55 724.8C135.35 724.8 135.15 724.9 134.95 724.9ZM129.65 699.6L138.75 707.9C139.05 708.2 139.25 708.6 139.15 709.1L136.75 721.2L147.45 715.2C147.85 715 148.25 715 148.65 715.2L159.35 721.2L156.95 709.1C156.85 708.7 157.05 708.2 157.35 707.9L166.45 699.6L154.25 698.2C153.85 698.2 153.45 697.9 153.25 697.5L148.15 686.3L143.05 697.5C142.85 697.9 142.45 698.2 142.05 698.2L129.65 699.6Z" fill="#10B981"/>
<path fill-rule="evenodd" clip-rule="evenodd" d="M155.453 674.701L169.353 639.101C170.653 635.801 174.253 633.301 177.553 633.301H196.353C198.053 633.301 199.453 634.001 200.253 635.201C201.153 636.501 201.253 638.301 200.553 640.001L178.453 696.401C175.253 685.701 166.453 677.401 155.453 674.701Z" fill="#10B981"/>
<path fill-rule="evenodd" clip-rule="evenodd" d="M117.552 696.5L95.4516 640.1C94.7516 638.3 94.8516 636.6 95.7516 635.3C96.5516 634.1 97.9516 633.4 99.6516 633.4H118.452C121.752 633.4 125.352 636 126.652 639.2L140.552 674.8C129.652 677.4 120.852 685.7 117.552 696.5Z" fill="#10B981"/>
<path d="M1019.5 964H60.5C55 964 50.5 959.5 50.5 954V810.9C50.5 805.4 55 800.9 60.5 800.9H1019.5C1025 800.9 1029.5 805.4 1029.5 810.9V954C1029.5 959.5 1025.1 964 1019.5 964Z" fill="white"/>
<text fill="#10B981" xml:space="preserve" style="white-space: pre" font-family="Inter" font-size="45" font-style="italic" font-weight="bold" letter-spacing="0em"><tspan x="277.965" y="897.178">Total Paid:          </tspan></text>
<text fill="#001E3A" xml:space="preserve" style="white-space: pre" font-family="Inter" font-size="45" font-style="italic" font-weight="bold" letter-spacing="0em"><tspan x="728" y="897.178">$ {totalPaid}</tspan></text>
<g filter="url(#filter2_d_38_48545)">
<path d="M245.5 964H59.4C54.5 964 50.5 960 50.5 955.1V809.8C50.5 804.9 54.5 800.9 59.4 800.9H245.5V964Z" fill="white"/>
</g>
<path d="M173.699 900.35C173.699 911.55 166.399 921.45 155.899 924.85V929.95C155.899 932.75 153.599 934.95 150.899 934.95H144.999C142.199 934.95 139.999 932.65 139.999 929.95V924.85C129.399 921.45 122.199 911.55 122.199 900.35C122.199 899.25 123.099 898.35 124.199 898.35H136.199C137.299 898.35 138.199 899.25 138.199 900.35C138.199 903.85 139.999 907.05 143.099 908.85C149.599 912.65 157.899 907.95 157.899 900.35C157.899 896.85 156.099 893.65 152.999 891.85C149.299 889.65 147.399 891.15 141.599 889.65C130.199 886.75 122.299 876.45 122.299 864.75C122.299 853.55 129.599 843.65 140.099 840.25V834.95C140.099 832.15 142.399 829.95 145.099 829.95H150.999C153.799 829.95 155.999 832.25 155.999 834.95V840.25C166.599 843.65 173.799 853.55 173.799 864.75C173.799 865.85 172.899 866.75 171.799 866.75H159.799C158.699 866.75 157.799 865.85 157.799 864.75C157.799 861.25 155.999 858.05 152.899 856.25C146.399 852.45 138.099 857.15 138.099 864.75C138.099 868.25 139.899 871.45 142.999 873.25C146.799 875.45 148.399 873.85 154.399 875.45C165.799 878.35 173.699 888.65 173.699 900.35Z" fill="#10B981"/>
<path d="M1019.5 1162.1H60.5C55 1162.1 50.5 1157.6 50.5 1152.1V1009C50.5 1003.5 55 999 60.5 999H1019.5C1025 999 1029.5 1003.5 1029.5 1009V1152.1C1029.5 1157.6 1025.1 1162.1 1019.5 1162.1Z" fill="white"/>
<text fill="#001E3A" xml:space="preserve" style="white-space: pre" font-family="Inter" font-size="45" font-style="italic" font-weight="bold" letter-spacing="0em"><tspan x="419" y="1095.27">{fastTime}s by {fastName}</tspan></text>
<text fill="#10B981" xml:space="preserve" style="white-space: pre" font-family="Inter" font-size="45" font-style="italic" font-weight="bold" letter-spacing="0em"><tspan x="277.965" y="1095.27">Fastest Time:          </tspan></text>
<g filter="url(#filter3_d_38_48545)">
<path d="M245.5 1162.1H59.4C54.5 1162.1 50.5 1158.1 50.5 1153.2V1007.9C50.5 1003 54.5 999 59.4 999H245.5V1162.1Z" fill="white"/>
</g>
<path d="M157.752 1031.12L154.952 1062.02L168.652 1059.82C169.652 1059.72 170.552 1060.42 170.652 1061.32C170.652 1061.62 170.652 1061.82 170.552 1062.12L148.652 1130.82C148.352 1131.72 147.352 1132.22 146.452 1131.92C145.752 1131.72 145.252 1131.02 145.252 1130.22L145.752 1083.22L127.452 1086.12C126.452 1086.32 125.552 1085.62 125.352 1084.62C125.352 1084.52 125.352 1084.32 125.352 1084.12L130.252 1034.42C130.352 1033.62 130.952 1032.92 131.752 1032.82L155.652 1029.12C156.152 1029.02 156.752 1029.22 157.152 1029.62C157.552 1030.02 157.752 1030.62 157.752 1031.12Z" fill="#10B981"/>
<path d="M1019.5 1360.2H60.5C55 1360.2 50.5 1355.7 50.5 1350.2V1207.1C50.5 1201.6 55 1197.1 60.5 1197.1H1019.5C1025 1197.1 1029.5 1201.6 1029.5 1207.1V1350.2C1029.5 1355.7 1025.1 1360.2 1019.5 1360.2Z" fill="white"/>
<text fill="#10B981" xml:space="preserve" style="white-space: pre" font-family="Inter" font-size="45" font-style="italic" font-weight="bold" letter-spacing="0em"><tspan x="277.965" y="1293.37">Biggest Win:          </tspan></text>
<text fill="#001E3A" xml:space="preserve" style="white-space: pre" font-family="Inter" font-size="45" font-style="italic" font-weight="bold" letter-spacing="0em"><tspan x="741" y="1293.37">$ {bigPrice}</tspan></text>
<g filter="url(#filter4_d_38_48545)">
<path d="M245.5 1360.2H59.4C54.5 1360.2 50.5 1356.2 50.5 1351.3V1206C50.5 1201.1 54.5 1197.1 59.4 1197.1H245.5V1360.2Z" fill="white"/>
</g>
<path d="M194.229 1245.55C192.829 1242.15 190.429 1239.55 187.329 1238.35C185.229 1237.55 183.029 1237.25 180.629 1237.75C181.129 1235.15 179.129 1232.65 176.429 1232.65H119.529C116.829 1232.65 114.829 1235.05 115.329 1237.75C112.829 1237.25 110.729 1237.45 108.629 1238.35C105.529 1239.55 103.129 1242.15 101.729 1245.55C99.6287 1250.95 100.329 1258.15 103.529 1264.85C107.929 1274.05 115.529 1279.75 122.529 1279.85C124.629 1286.55 130.029 1292.25 136.929 1295.35C126.829 1299.35 119.929 1308.85 119.929 1319.45V1324.65H176.329V1319.45C176.329 1308.75 169.429 1299.35 159.329 1295.35C166.229 1292.45 171.629 1286.75 173.729 1279.85C180.629 1279.65 188.129 1274.05 192.429 1264.85C195.629 1258.05 196.429 1250.85 194.229 1245.55ZM112.829 1260.35C110.529 1255.45 110.529 1251.35 111.329 1249.35C111.629 1248.55 111.929 1248.15 112.429 1247.95C113.329 1247.65 115.229 1247.95 117.329 1249.65C118.529 1257.05 119.929 1264.55 120.729 1268.95C118.029 1267.95 115.029 1264.85 112.829 1260.35ZM183.029 1260.35C180.929 1264.95 177.629 1267.85 175.229 1268.95C176.029 1264.35 177.229 1256.95 178.629 1249.65C180.729 1247.95 182.629 1247.65 183.529 1247.95C184.029 1248.15 184.329 1248.55 184.629 1249.35C185.329 1251.35 185.529 1255.35 183.029 1260.35Z" fill="#10B981"/>
<text fill="#0184EA" xml:space="preserve" style="white-space: pre" font-family="Bebas Neue" font-size="80" letter-spacing="0em"><tspan x="129.828" y="1479.29">Speed Wins Always.         </tspan></text>
<text fill="#001E3A" xml:space="preserve" style="white-space: pre" font-family="Bebas Neue" font-size="100" letter-spacing="0em"><tspan x="351.566" y="290">This week&#x2019;s          </tspan></text>
<text fill="#001E3A" xml:space="preserve" style="white-space: pre" font-family="Bebas Neue" font-size="90" letter-spacing="0em"><tspan x="416.543" y="380">winners         </tspan></text>
</g>
</g>
<defs>
<filter id="filter0_d_38_48545" x="48.3" y="396.7" width="211.4" height="179.4" filterUnits="userSpaceOnUse" color-interpolation-filters="sRGB">
<feFlood flood-opacity="0" result="BackgroundImageFix"/>
<feColorMatrix in="SourceAlpha" type="matrix" values="0 0 0 0 0 0 0 0 0 0 0 0 0 0 0 0 0 0 127 0" result="hardAlpha"/>
<feOffset dx="6"/>
<feGaussianBlur stdDeviation="4.1"/>
<feComposite in2="hardAlpha" operator="out"/>
<feColorMatrix type="matrix" values="0 0 0 0 0 0 0 0 0 0 0 0 0 0 0 0 0 0 0.08 0"/>
<feBlend mode="normal" in2="BackgroundImageFix" result="effect1_dropShadow_38_48545"/>
<feBlend mode="normal" in="SourceGraphic" in2="effect1_dropShadow_38_48545" result="shape"/>
</filter>
<filter id="filter1_d_38_48545" x="48.3" y="594.7" width="211.4" height="179.4" filterUnits="userSpaceOnUse" color-interpolation-filters="sRGB">
<feFlood flood-opacity="0" result="BackgroundImageFix"/>
<feColorMatrix in="SourceAlpha" type="matrix" values="0 0 0 0 0 0 0 0 0 0 0 0 0 0 0 0 0 0 127 0" result="hardAlpha"/>
<feOffset dx="6"/>
<feGaussianBlur stdDeviation="4.1"/>
<feComposite in2="hardAlpha" operator="out"/>
<feColorMatrix type="matrix" values="0 0 0 0 0 0 0 0 0 0 0 0 0 0 0 0 0 0 0.08 0"/>
<feBlend mode="normal" in2="BackgroundImageFix" result="effect1_dropShadow_38_48545"/>
<feBlend mode="normal" in="SourceGraphic" in2="effect1_dropShadow_38_48545" result="shape"/>
</filter>
<filter id="filter2_d_38_48545" x="48.3" y="792.7" width="211.4" height="179.5" filterUnits="userSpaceOnUse" color-interpolation-filters="sRGB">
<feFlood flood-opacity="0" result="BackgroundImageFix"/>
<feColorMatrix in="SourceAlpha" type="matrix" values="0 0 0 0 0 0 0 0 0 0 0 0 0 0 0 0 0 0 127 0" result="hardAlpha"/>
<feOffset dx="6"/>
<feGaussianBlur stdDeviation="4.1"/>
<feComposite in2="hardAlpha" operator="out"/>
<feColorMatrix type="matrix" values="0 0 0 0 0 0 0 0 0 0 0 0 0 0 0 0 0 0 0.08 0"/>
<feBlend mode="normal" in2="BackgroundImageFix" result="effect1_dropShadow_38_48545"/>
<feBlend mode="normal" in="SourceGraphic" in2="effect1_dropShadow_38_48545" result="shape"/>
</filter>
<filter id="filter3_d_38_48545" x="48.3" y="990.8" width="211.4" height="179.5" filterUnits="userSpaceOnUse" color-interpolation-filters="sRGB">
<feFlood flood-opacity="0" result="BackgroundImageFix"/>
<feColorMatrix in="SourceAlpha" type="matrix" values="0 0 0 0 0 0 0 0 0 0 0 0 0 0 0 0 0 0 127 0" result="hardAlpha"/>
<feOffset dx="6"/>
<feGaussianBlur stdDeviation="4.1"/>
<feComposite in2="hardAlpha" operator="out"/>
<feColorMatrix type="matrix" values="0 0 0 0 0 0 0 0 0 0 0 0 0 0 0 0 0 0 0.08 0"/>
<feBlend mode="normal" in2="BackgroundImageFix" result="effect1_dropShadow_38_48545"/>
<feBlend mode="normal" in="SourceGraphic" in2="effect1_dropShadow_38_48545" result="shape"/>
</filter>
<filter id="filter4_d_38_48545" x="48.3" y="1188.9" width="211.4" height="179.5" filterUnits="userSpaceOnUse" color-interpolation-filters="sRGB">
<feFlood flood-opacity="0" result="BackgroundImageFix"/>
<feColorMatrix in="SourceAlpha" type="matrix" values="0 0 0 0 0 0 0 0 0 0 0 0 0 0 0 0 0 0 127 0" result="hardAlpha"/>
<feOffset dx="6"/>
<feGaussianBlur stdDeviation="4.1"/>
<feComposite in2="hardAlpha" operator="out"/>
<feColorMatrix type="matrix" values="0 0 0 0 0 0 0 0 0 0 0 0 0 0 0 0 0 0 0.08 0"/>
<feBlend mode="normal" in2="BackgroundImageFix" result="effect1_dropShadow_38_48545"/>
<feBlend mode="normal" in="SourceGraphic" in2="effect1_dropShadow_38_48545" result="shape"/>
</filter>
<clipPath id="clip0_38_48545">
<rect width="1080" height="1536" fill="white"/>
</clipPath>
</defs>
</svg>
